<svg xmlns="http://www.w3.org/2000/svg" xmlns:xlink="http://www.w3.org/1999/xlink" viewBox="0 0 500 500"><defs><clippath id="clip-path"><path d="M313.52,236.19c-3.07-5.06-17.79-5-19.12-2.73,0,0,7.29,23.58,15.42,21.14S313.52,236.19,313.52,236.19Z" style="fill:#92E3A9;stroke:#263238;stroke-linecap:round;stroke-linejoin:round"></path></clippath><clippath id="clip-path-2"><path d="M296,248.19a7.3,7.3,0,0,0-1.55,4.45c0,2.2,4.19,46.13,17.14,61.42,2.72,3.21,5.82,5.16,9.35,5.2,11,.12,16.27-8.57,23.24-28.75q1.31-3.76,2.71-8.08C353.62,261.6,362,218.18,362,218.18s-14.78,3.43-23.55,12.12c-3.84,3.8-7.83,14.59-10.39,22.51-1.25,3.89-2.16,7.08-2.54,8.43-.12.45-.19.69-.19.69a19.43,19.43,0,0,0-1.55-3.93s0,0,0,0a.19.19,0,0,1-.05-.1,48.26,48.26,0,0,0-6.95-9.56l-3.2-12.11s-1.13,2.21-6.23,3-12.89-5.72-12.89-5.72Z" style="fill:#92E3A9;stroke:#263238;stroke-linecap:round;stroke-linejoin:round"></path></clippath><clippath id="clip-path-3"><path d="M420.24,347.43s1.86-14.72,3-19.52c5.12-21.64,23.15-71.77,20.24-86.6-3-15.25-21.26-28.59-50.76-30.06-27.36-1.36-49.92,8.34-55.31,19.61-5.15,10.76-4.94,85-3.63,118.53h75.15A37.22,37.22,0,0,0,420.24,347.43Z" style="fill:#92E3A9;stroke:#263238;stroke-linecap:round;stroke-linejoin:round"></path></clippath><clippath id="clip-path-4"><rect x="294.4" y="179.94" width="51.67" height="25.59" transform="translate(33.6 432.61) rotate(-70.97)" style="fill:#92E3A9;stroke:#263238;stroke-linecap:round;stroke-linejoin:round"></rect></clippath><clippath id="clip-path-5"><rect x="273.34" y="101.83" width="51.67" height="25.59" transform="translate(333.1 -203.96) rotate(75.12)" style="fill:#92E3A9;stroke:#263238;stroke-linecap:round;stroke-linejoin:round"></rect></clippath><clippath id="clip-path-6"><path d="M353.46,224.28c-1.4-2.53-5.4-1.31-10.06,6s-6.58,15.89-5.45,19,16.22,6.89,16.22,6.89l3.11-7.89Z" style="fill:#92E3A9;stroke:#263238;stroke-linecap:round;stroke-linejoin:round"></path></clippath></defs><g id="background-simple"><path d="M97,92.61l.56-.5c51.57-46.44,120.06-48.53,170,1.45,26,26.06,72.19,21.07,105.23,30.49,113.92,32.49,94.22,187.06,37.95,261.78-50.78,67.42-160.81,82.65-234.73,49.48C111,406.16,65.24,341,49,272.94q-2.45-10.24-4-20.67C36.4,194.3,52.84,132.74,97,92.61Z" style="fill:#92E3A9"></path><path d="M97,92.61l.56-.5c51.57-46.44,120.06-48.53,170,1.45,26,26.06,72.19,21.07,105.23,30.49,113.92,32.49,94.22,187.06,37.95,261.78-50.78,67.42-160.81,82.65-234.73,49.48C111,406.16,65.24,341,49,272.94q-2.45-10.24-4-20.67C36.4,194.3,52.84,132.74,97,92.61Z" style="fill:#fff;opacity:0.7000000000000001"></path></g><g id="Bubble"><path d="M278.78,400.34a45.7,45.7,0,0,1-89,2.63" style="fill:none;stroke:#263238;stroke-linecap:round;stroke-linejoin:round"></path><path d="M278.16,379.69a45.28,45.28,0,0,1,1.35,15.54" style="fill:none;stroke:#263238;stroke-linecap:round;stroke-linejoin:round"></path><path d="M204.59,356.41a45.67,45.67,0,0,1,71,16" style="fill:none;stroke:#263238;stroke-linecap:round;stroke-linejoin:round"></path><polyline points="191.91 349.2 190.63 345.79 202.68 354.96" style="fill:none;stroke:#263238;stroke-linecap:round;stroke-linejoin:round"></polyline><path d="M189.17,382.41A45.5,45.5,0,0,1,197.42,364l-4-10.76" style="fill:none;stroke:#263238;stroke-linecap:round;stroke-linejoin:round"></path><path d="M188.32,393.31a43.27,43.27,0,0,1,.11-5.57" style="fill:none;stroke:#263238;stroke-linecap:round;stroke-linejoin:round"></path><path d="M236.14,368.61a23,23,0,1,1-8.12.49" style="fill:none;stroke:#263238;stroke-linecap:round;stroke-linejoin:round"></path><path d="M230.51,416.75a25.46,25.46,0,0,1-22.34-28.26" style="fill:none;stroke:#263238;stroke-linecap:round;stroke-linejoin:round"></path><path d="M257.85,398.85a25.5,25.5,0,0,1-19.4,17.59" style="fill:none;stroke:#263238;stroke-linecap:round;stroke-linejoin:round"></path><path d="M209.79,382a25.48,25.48,0,0,1,49,12.37" style="fill:none;stroke:#263238;stroke-linecap:round;stroke-linejoin:round"></path><line x1="248.26" y1="381.49" x2="248.53" y2="381.16" style="fill:none;stroke:#263238;stroke-linecap:round;stroke-linejoin:round;stroke-width:2px"></line><line x1="244.41" y1="386.09" x2="246.33" y2="383.8" style="fill:none;stroke:#263238;stroke-linecap:round;stroke-linejoin:round;stroke-width:2px"></line><polyline points="219.71 390.61 230.19 403.12 242.73 388.1" style="fill:none;stroke:#263238;stroke-linecap:round;stroke-linejoin:round;stroke-width:2px"></polyline></g><g id="Character"><rect x="251.57" y="147.14" width="202.25" height="202.25" rx="46.19" style="fill:#fff;stroke:#263238;stroke-linecap:round;stroke-linejoin:round"></rect><path d="M313.52,236.19c-3.07-5.06-17.79-5-19.12-2.73,0,0,7.29,23.58,15.42,21.14S313.52,236.19,313.52,236.19Z" style="fill:#92E3A9"></path><g style="clip-path:url(#clip-path)"><path d="M313.52,236.19c-3.07-5.06-17.79-5-19.12-2.73,0,0,7.29,23.58,15.42,21.14S313.52,236.19,313.52,236.19Z" style="fill-opacity:0.7000000000000001;opacity:0.30000000000000004"></path></g><path d="M313.52,236.19c-3.07-5.06-17.79-5-19.12-2.73,0,0,7.29,23.58,15.42,21.14S313.52,236.19,313.52,236.19Z" style="fill:none;stroke:#263238;stroke-linecap:round;stroke-linejoin:round"></path><path d="M296,248.19a7.3,7.3,0,0,0-1.55,4.45c0,2.2,4.19,46.13,17.14,61.42,2.72,3.21,5.82,5.16,9.35,5.2,11,.12,16.27-8.57,23.24-28.75q1.31-3.76,2.71-8.08C353.62,261.6,362,218.18,362,218.18s-14.78,3.43-23.55,12.12c-3.84,3.8-7.83,14.59-10.39,22.51-1.25,3.89-2.16,7.08-2.54,8.43-.12.45-.19.69-.19.69a19.43,19.43,0,0,0-1.55-3.93s0,0,0,0a.19.19,0,0,1-.05-.1,48.26,48.26,0,0,0-6.95-9.56l-3.2-12.11s-1.13,2.21-6.23,3-12.89-5.72-12.89-5.72Z" style="fill:#92E3A9"></path><g style="clip-path:url(#clip-path-2)"><path d="M311.54,314.06c2.72,3.21,5.82,5.16,9.35,5.2,11,.12,16.27-8.57,23.24-28.75L344,243.63a34.75,34.75,0,0,0-16,9.18c-1.25,3.89-2.16,7.08-2.54,8.43,3.08,6.42,8.46,21.19,2.29,36.92C323.76,308.36,317.21,312.51,311.54,314.06Z" style="fill-opacity:0.7000000000000001;opacity:0.30000000000000004"></path></g><path d="M296,248.19a7.3,7.3,0,0,0-1.55,4.45c0,2.2,4.19,46.13,17.14,61.42,2.72,3.21,5.82,5.16,9.35,5.2,11,.12,16.27-8.57,23.24-28.75q1.31-3.76,2.71-8.08C353.62,261.6,362,218.18,362,218.18s-14.78,3.43-23.55,12.12c-3.84,3.8-7.83,14.59-10.39,22.51-1.25,3.89-2.16,7.08-2.54,8.43-.12.45-.19.69-.19.69a19.43,19.43,0,0,0-1.55-3.93s0,0,0,0a.19.19,0,0,1-.05-.1,48.26,48.26,0,0,0-6.95-9.56l-3.2-12.11s-1.13,2.21-6.23,3-12.89-5.72-12.89-5.72Z" style="fill:none;stroke:#263238;stroke-linecap:round;stroke-linejoin:round"></path><path d="M330.82,276.25c.78,4.11.81,8.57-1.09,12.4" style="fill:none;stroke:#263238;stroke-linecap:round;stroke-linejoin:round"></path><path d="M325.28,261.93a46.89,46.89,0,0,1,5,11.78" style="fill:none;stroke:#263238;stroke-linecap:round;stroke-linejoin:round"></path><path d="M332.27,267.12s-1.54-4.24-5.71-5.19" style="fill:none;stroke:#263238;stroke-linecap:round;stroke-linejoin:round"></path><path d="M311,251.62a14.72,14.72,0,0,0,2.8-2" style="fill:none;stroke:#263238;stroke-linecap:round;stroke-linejoin:round"></path><path d="M296,248.19c3.27,3.49,8.36,5.77,13.1,4.25" style="fill:none;stroke:#263238;stroke-linecap:round;stroke-linejoin:round"></path><path d="M323.66,257.87a.57.57,0,0,0,.06.09.19.19,0,0,1-.05-.1Z" style="fill:#92E3A9;stroke:#263238;stroke-linecap:round;stroke-linejoin:round"></path><path d="M420.24,347.43s1.86-14.72,3-19.52c5.12-21.64,23.15-71.77,20.24-86.6-3-15.25-21.26-28.59-50.76-30.06-27.36-1.36-49.92,8.34-55.31,19.61-5.15,10.76-4.94,85-3.63,118.53h75.15A37.22,37.22,0,0,0,420.24,347.43Z" style="fill:#92E3A9"></path><g style="clip-path:url(#clip-path-3)"><path d="M414.36,258c-14.17,19.43-29.62,48.5-29.62,48.5l-42.2-52.6s9.66,66.81,14.94,74,5,10.55,5,10.55,13.38,14.41,23.41,12.45c8.51-1.66,39.12-35.81,48.67-75.4Z" style="fill-opacity:0.7000000000000001;opacity:0.30000000000000004"></path></g><path d="M420.24,347.43s1.86-14.72,3-19.52c5.12-21.64,23.15-71.77,20.24-86.6-3-15.25-21.26-28.59-50.76-30.06-27.36-1.36-49.92,8.34-55.31,19.61-5.15,10.76-4.94,85-3.63,118.53h75.15A37.22,37.22,0,0,0,420.24,347.43Z" style="fill:none;stroke:#263238;stroke-linecap:round;stroke-linejoin:round"></path><path d="M404.63,214.23s-14.71,6.31-30.63,1.08a29.08,29.08,0,0,0,2.06-9.09c0-2.06-.51-3.91-2.06-4.79,0,0,.72-.79,1.94-2h0c6-6.14,24.34-23.4,30.3-13.11C406.25,186.28,400,186.87,404.63,214.23Z" style="fill:#fff;stroke:#263238;stroke-linecap:round;stroke-linejoin:round"></path><path d="M388,195.17a16.59,16.59,0,0,1-11.94,11.05c0-2.06-.51-3.91-2.06-4.79,0,0,.72-.79,1.94-2h0C381.78,197.1,388,195.17,388,195.17Z" style="fill:#263238"></path><path d="M410.39,171.79c6.32-25.17-7.29-33.79-15.86-37.09-13.74-5.28-31.07.73-35.13,14.72s-.4,17.17-.59,22.89c-.14,4-2.8,6,.14,16.06,1.93,6.64,5.53,14.26,9.72,14.51,11.34.66,22.09-5.81,21.49-8.84" style="fill:#fff;stroke:#263238;stroke-linecap:round;stroke-linejoin:round"></path><path d="M374.74,159.46s5.08-1.76,7.79,3.78" style="fill:none;stroke:#263238;stroke-linecap:round;stroke-linejoin:round"></path><path d="M357.48,158.63s3.77-3.21,7.56,1.33" style="fill:none;stroke:#263238;stroke-linecap:round;stroke-linejoin:round"></path><ellipse cx="377.01" cy="170.12" rx="1.26" ry="2.12" style="fill:#263238"></ellipse><path d="M361.25,169c0,1.17.57,2.12,1.26,2.12s1.26-1,1.26-2.12-.56-2.12-1.26-2.12S361.25,167.79,361.25,169Z" style="fill:#263238"></path><path d="M365,164.11s.78,5.83.43,7-4.29,4.7-4.45,6.28,3.3,3.18,3.3,3.18" style="fill:#fff;stroke:#263238;stroke-linecap:round;stroke-linejoin:round"></path><path d="M362.51,183.89s7.88,2,14.5,0c0,0-3.12,9.77-9.29,8.77-4.08-.66-3-7.06-3-7.06Z" style="fill:#263238"></path><path d="M384.23,145.35a10.44,10.44,0,0,0-7.79-1.19c-4.53,1.06-5.24,10.59-5.24,10.59a9.61,9.61,0,0,1-2.85-4.79l-1.43,4.09-3.77-3.56-1.27,4.26-1.5-3.07-2.91,5.66s-4.37-5.63-3.69-10c1.85-11.87,11.26-21.62,31-20.57,9.92.53,13.62,7.32,13.62,7.32s9.7-1.31,14,3.72c14.65,17.13,5.46,35.74-8.45,53.36l-4.77-16.8-4.61-.52a49.23,49.23,0,0,0,0-5.18,26.32,26.32,0,0,0-1.71-6.5l-1.71.77.71-3.22-3.91,2s1.66-13.24,0-15.48A2.71,2.71,0,0,0,384.23,145.35Z" style="fill:#263238"></path><path d="M396.24,176.2s4.62-8.6,9.44-6.5,1.47,12.37-2.72,15.73-6.72,0-6.72,0" style="fill:#fff;stroke:#263238;stroke-linecap:round;stroke-linejoin:round"></path><g style="opacity:0.2"><path d="M388.42,141.81a8.47,8.47,0,0,0-7.38-5.19c-5.64-.38-9.7,5.75-9.83,10" style="fill:none;stroke:#fff;stroke-linecap:round;stroke-linejoin:round"></path><path d="M392.24,141.62s3.87-3,6.11,0c3.8,5,.66,17.13.66,17.13" style="fill:none;stroke:#fff;stroke-linecap:round;stroke-linejoin:round"></path><path d="M397.5,138.08s4-2.48,7.48,2.3,3.08,16.36,3.08,16.36" style="fill:none;stroke:#fff;stroke-linecap:round;stroke-linejoin:round"></path><path d="M408.92,137.44s7,2.94,7.37,17" style="fill:none;stroke:#fff;stroke-linecap:round;stroke-linejoin:round"></path><path d="M392.71,138.08s-3.93-6.66-15.54-4.43-13.36,14.1-13.36,14.1" style="fill:none;stroke:#fff;stroke-linecap:round;stroke-linejoin:round"></path><path d="M395.6,136.06s-4.68-6.49-18.9-5.19-19.93,13.72-18.49,19.66" style="fill:none;stroke:#fff;stroke-linecap:round;stroke-linejoin:round"></path></g><path d="M279.1,219.3s16.91-13,24.28-14.33,32.73,4.22,32.73,4.22v30s-15.87,1.74-23,6.95-31.65,6.05-31.65,6.05Z" style="fill:#757575;stroke:#263238;stroke-linecap:round;stroke-linejoin:round"></path><path d="M295,210a45.08,45.08,0,0,1,1-5.94c.6-2.11,4.69-1.88,5.61-1.14a11.87,11.87,0,0,1,1.82,2.05s-1.42.41-1.82.54S300.77,213.29,295,210Z" style="fill:#fff;stroke:#263238;stroke-linecap:round;stroke-linejoin:round"></path><rect x="294.4" y="179.94" width="51.67" height="25.59" transform="translate(33.6 432.61) rotate(-70.97)" style="fill:#92E3A9"></rect><g style="clip-path:url(#clip-path-4)"><path d="M299.71,213l24.19,8.35,16.85-48.85-24.19-8.34Zm38.49-39.26-15.54,45.06-20.41-7,15.55-45.07Z" style="fill-opacity:0.7000000000000001;opacity:0.5"></path><path d="M320.15,170.5l-2.08,6a1.28,1.28,0,0,1-1.64.8h0a1.28,1.28,0,0,1-.8-1.64l2.08-6a1.28,1.28,0,0,1,1.64-.8h0A1.28,1.28,0,0,1,320.15,170.5Z" style="fill-opacity:0.7000000000000001;opacity:0.5"></path><path d="M324.83,209.78l-2.08,6a1.29,1.29,0,0,1-1.64.8h0a1.28,1.28,0,0,1-.8-1.64l2.08-6a1.29,1.29,0,0,1,1.64-.81h0A1.3,1.3,0,0,1,324.83,209.78Z" style="fill-opacity:0.7000000000000001;opacity:0.5"></path><path d="M312.65,190.12a8,8,0,1,0,10.19-5A8,8,0,0,0,312.65,190.12Zm11.79,3.48.6.2-.37,1.06-.59-.21a1.91,1.91,0,0,1-2.5.7l-.56-.19.42-1.22.64.22c.59.2.89,0,1-.39s0-.74-.57-1-1.09-.11-2.07.52a3,3,0,0,1-2.91.58c-1.11-.38-1.65-1.08-1.54-2l-.61-.21.37-1,.61.21a1.87,1.87,0,0,1,2.48-.69l.26.08-.43,1.22-.34-.11c-.58-.21-.89,0-1,.36s0,.72.59.93,1.08.11,2.07-.52a3,3,0,0,1,2.91-.58A1.9,1.9,0,0,1,324.44,193.6Z" style="fill-opacity:0.7000000000000001;opacity:0.5"></path></g><rect x="294.4" y="179.94" width="51.67" height="25.59" transform="translate(33.6 432.61) rotate(-70.97)" style="fill:none;stroke:#263238;stroke-linecap:round;stroke-linejoin:round"></rect><rect x="273.34" y="101.83" width="51.67" height="25.59" transform="translate(333.1 -203.96) rotate(75.12)" style="fill:#92E3A9"></rect><g style="clip-path:url(#clip-path-5)"><path d="M304.9,86.37l-24.73,6.57,13.27,49.93,24.73-6.57Zm-10,54L282.62,94.36l20.86-5.55,12.24,46.07Z" style="fill-opacity:0.7000000000000001;opacity:0.5"></path><path d="M311.64,133,310,126.86a1.29,1.29,0,0,1,.92-1.58h0a1.28,1.28,0,0,1,1.58.91l1.64,6.17a1.29,1.29,0,0,1-.92,1.58h0A1.28,1.28,0,0,1,311.64,133Z" style="fill-opacity:0.7000000000000001;opacity:0.5"></path><path d="M285.84,103l-1.64-6.17a1.3,1.3,0,0,1,.92-1.58h0a1.29,1.29,0,0,1,1.58.92l1.64,6.17a1.29,1.29,0,0,1-.92,1.58h0A1.29,1.29,0,0,1,285.84,103Z" style="fill-opacity:0.7000000000000001;opacity:0.5"></path><path d="M306.92,112.56a8,8,0,1,0-5.69,9.8A8,8,0,0,0,306.92,112.56Zm-11.72,3.69-.62.16-.28-1.07.61-.17c-.06-1,.54-1.67,1.68-2l.58-.15.33,1.24-.66.18c-.6.16-.75.48-.63.9s.39.62,1,.46,1-.51,1.43-1.58c.56-1.31,1.14-1.86,2.09-2.11a1.9,1.9,0,0,1,2.42.84l.63-.16.28,1.08-.62.16c.06,1-.53,1.66-1.67,2l-.27.07-.33-1.24.35-.1c.6-.16.76-.46.65-.88s-.4-.59-1-.43-1,.51-1.43,1.58c-.57,1.31-1.13,1.86-2.09,2.11A1.9,1.9,0,0,1,295.2,116.25Z" style="fill-opacity:0.7000000000000001;opacity:0.5"></path></g><rect x="273.34" y="101.83" width="51.67" height="25.59" transform="translate(333.1 -203.96) rotate(75.12)" style="fill:none;stroke:#263238;stroke-linecap:round;stroke-linejoin:round"></rect><path d="M279.1,219.3s24.52-8.27,31.12-9.45,25.89-.66,25.89-.66v30s-20.15,6.11-23.26,8.56-31.38,4.44-31.38,4.44Z" style="fill:#999;stroke:#263238;stroke-linecap:round;stroke-linejoin:round"></path><path d="M312.57,222.88c-1.29,7-.37,16.27-5,21.91" style="fill:none;stroke:#263238;stroke-linecap:round;stroke-linejoin:round"></path><path d="M314.7,212.35q-.75,3.41-1.42,6.83" style="fill:none;stroke:#263238;stroke-linecap:round;stroke-linejoin:round"></path><path d="M339.12,112.71a5.5,5.5,0,1,1-5.5-5.49A5.5,5.5,0,0,1,339.12,112.71Z" style="fill:#bfbfbf;stroke:#263238;stroke-linecap:round;stroke-linejoin:round"></path><path d="M336.69,116.13a4.6,4.6,0,1,0-6.49-.35A4.59,4.59,0,0,0,336.69,116.13Zm-4.94-5-.24-.27.48-.43.24.27a1.09,1.09,0,0,1,1.45.34l.22.26-.55.49-.26-.29c-.24-.26-.44-.25-.62-.09s-.22.37,0,.63.51.36,1.18.32a1.76,1.76,0,0,1,1.62.52,1.08,1.08,0,0,1,.2,1.46l.25.27-.48.43-.25-.28a1.07,1.07,0,0,1-1.43-.34l-.11-.12.55-.49.14.15c.24.27.44.27.62.11s.2-.37,0-.63-.51-.36-1.18-.32a1.72,1.72,0,0,1-1.62-.52A1.09,1.09,0,0,1,331.75,111.11Z" style="fill-opacity:0.7000000000000001;opacity:0.5"></path><path d="M313.1,69.3a5.5,5.5,0,1,1-5.5-5.5A5.49,5.49,0,0,1,313.1,69.3Z" style="fill:#bfbfbf;stroke:#263238;stroke-linecap:round;stroke-linejoin:round"></path><path d="M310.67,72.72a4.6,4.6,0,1,0-6.49-.35A4.59,4.59,0,0,0,310.67,72.72Zm-4.94-5-.24-.27L306,67l.24.27a1.08,1.08,0,0,1,1.44.35l.23.25-.55.5-.26-.29c-.24-.27-.44-.26-.62-.09s-.22.36,0,.63.51.36,1.18.31a1.73,1.73,0,0,1,1.62.53,1.07,1.07,0,0,1,.2,1.45l.25.28-.48.43-.25-.28a1.06,1.06,0,0,1-1.43-.35l-.11-.11.55-.5.14.16c.24.26.43.27.62.1s.2-.36,0-.62-.51-.36-1.18-.32a1.75,1.75,0,0,1-1.62-.52A1.1,1.1,0,0,1,305.73,67.69Z" style="fill-opacity:0.7000000000000001;opacity:0.5"></path><path d="M287.59,175.45a5.49,5.49,0,1,1,6.65-4A5.49,5.49,0,0,1,287.59,175.45Z" style="fill:#bfbfbf;stroke:#263238;stroke-linecap:round;stroke-linejoin:round"></path><path d="M284.84,172.28a4.6,4.6,0,1,0,1.9-6.22A4.59,4.59,0,0,0,284.84,172.28Zm6.07-3.59.32-.17.3.56-.32.17a1.09,1.09,0,0,1-.68,1.32l-.31.16-.34-.65.34-.18c.32-.17.35-.37.24-.59s-.31-.3-.62-.13-.47.42-.59,1.07a1.75,1.75,0,0,1-.89,1.46,1.08,1.08,0,0,1-1.46-.16l-.33.17-.3-.56.32-.17a1.09,1.09,0,0,1,.68-1.32l.14-.07.35.65-.18.1c-.32.17-.37.36-.25.57s.3.29.62.12.46-.41.58-1.07a1.77,1.77,0,0,1,.9-1.46A1.1,1.1,0,0,1,290.91,168.69Z" style="fill-opacity:0.7000000000000001;opacity:0.5"></path><path d="M353.46,224.28c-1.4-2.53-5.4-1.31-10.06,6s-6.58,15.89-5.45,19,16.22,6.89,16.22,6.89l3.11-7.89Z" style="fill:#92E3A9"></path><g style="clip-path:url(#clip-path-6)"><path d="M353.46,224.28c-1.4-2.53-5.4-1.31-10.06,6s-6.58,15.89-5.45,19,16.22,6.89,16.22,6.89l3.11-7.89Z" style="fill-opacity:0.7000000000000001;opacity:0.5"></path></g><path d="M353.46,224.28c-1.4-2.53-5.4-1.31-10.06,6s-6.58,15.89-5.45,19,16.22,6.89,16.22,6.89l3.11-7.89Z" style="fill:none;stroke:#263238;stroke-linecap:round;stroke-linejoin:round"></path><path d="M359.85,239.63l-8.66-18.94s-5.64-8.08-6.75-11.15-13.53-5.48-16.33-5.48-5.77,5-5.77,5h5.83s2.18,2.29,2.45,3.66-7.7,8.17-8.85,8.82a42.17,42.17,0,0,0-7.31,4c-3.17,2.35-10.32,4.18-11.65,6.29s-.39,2.5.57,3a8.41,8.41,0,0,0,2.55.6s-.57,2.39,0,3.65,3.89,1.14,3.89,1.14a2.27,2.27,0,0,0,1.78,2,16.15,16.15,0,0,1,2.86.75s6.86,1.17,9.94.51,12.42-5.63,14.7-5.42,8.6,14.86,8.6,14.86S358.48,251.1,359.85,239.63Z" style="fill:#fff;stroke:#263238;stroke-linecap:round;stroke-linejoin:round"></path><path d="M305.93,235.42s9-1.94,9.55-2.62,6.86-2.64,6.86-2.64" style="fill:none;stroke:#263238;stroke-linecap:round;stroke-linejoin:round"></path><path d="M309.82,240.21s5-1,6.78-1.26,8.94-3.53,8.94-3.53" style="fill:none;stroke:#263238;stroke-linecap:round;stroke-linejoin:round"></path><path d="M314.46,243s7.09-.6,8.57-1.28,5.81-2.05,5.81-2.05" style="fill:none;stroke:#263238;stroke-linecap:round;stroke-linejoin:round"></path><path d="M419.22,231.29C408.7,238.22,402.35,255,402.35,255l-16.43,30.55s-13.81-34-17.72-34.44l-14.74-26.8s1.74,15.71-4.4,22.37S338,249.3,338,249.3L342.54,262l1.14,6s19.37,58.12,25.71,61.71,20.74,5.21,33-3.73,33.12-42.78,35.1-53.85" style="fill:#92E3A9;stroke:#263238;stroke-linecap:round;stroke-linejoin:round"></path><path d="M362.27,255.1q.8-1.2,1.47-2.46" style="fill:none;stroke:#263238;stroke-linecap:round;stroke-linejoin:round"></path><path d="M349.86,263a16.67,16.67,0,0,0,10.86-5.88" style="fill:none;stroke:#263238;stroke-linecap:round;stroke-linejoin:round"></path><path d="M342.54,262a14.78,14.78,0,0,0,5.16,1.15" style="fill:none;stroke:#263238;stroke-linecap:round;stroke-linejoin:round"></path><path d="M390.23,299a15.3,15.3,0,0,1-.33,4.16" style="fill:none;stroke:#263238;stroke-linecap:round;stroke-linejoin:round"></path><path d="M385.92,285.52a33.62,33.62,0,0,1,4,11" style="fill:none;stroke:#263238;stroke-linecap:round;stroke-linejoin:round"></path><path d="M395,291a23.63,23.63,0,0,0-6.39-5.47" style="fill:none;stroke:#263238;stroke-linecap:round;stroke-linejoin:round"></path><path d="M421,246.65a19.92,19.92,0,0,0-16.58,7.22" style="fill:none;stroke:#263238;stroke-linecap:round;stroke-linejoin:round"></path><path d="M430.74,272.49a8.68,8.68,0,0,1-5.18-.84" style="fill:none;stroke:#263238;stroke-linecap:round;stroke-linejoin:round"></path><path d="M441.84,260.1c-1.46,7-5.37,10.58-8.78,11.81" style="fill:none;stroke:#263238;stroke-linecap:round;stroke-linejoin:round"></path><path d="M398.27,220.24s-15.34,3.57-23.88-2.15" style="fill:none;stroke:#263238;stroke-linecap:round;stroke-linejoin:round"></path><path d="M343.26,314.11s8.36,23.6,27.69,27.6" style="fill:none;stroke:#263238;stroke-linecap:round;stroke-linejoin:round"></path><path d="M399.13,346.82c-1,.75-2,1.44-3.09,2.09" style="fill:none;stroke:#263238;stroke-linecap:round;stroke-linejoin:round"></path><line x1="292.47" y1="61.01" x2="292.47" y2="81.76" style="fill:none;stroke:#263238;stroke-linecap:round;stroke-linejoin:round"></line><line x1="292.47" y1="48.56" x2="292.47" y2="56.86" style="fill:none;stroke:#263238;stroke-linecap:round;stroke-linejoin:round"></line><line x1="292.47" y1="40.81" x2="292.47" y2="45.24" style="fill:none;stroke:#263238;stroke-linecap:round;stroke-linejoin:round"></line><polyline points="288.55 79.33 292.46 84.18 296.38 79.33" style="fill:none;stroke:#263238;stroke-linecap:round;stroke-linejoin:round"></polyline><line x1="302.84" y1="164.9" x2="302.84" y2="185.64" style="fill:none;stroke:#263238;stroke-linecap:round;stroke-linejoin:round"></line><line x1="302.84" y1="152.45" x2="302.84" y2="160.75" style="fill:none;stroke:#263238;stroke-linecap:round;stroke-linejoin:round"></line><line x1="302.84" y1="144.69" x2="302.84" y2="149.13" style="fill:none;stroke:#263238;stroke-linecap:round;stroke-linejoin:round"></line><polyline points="298.92 183.22 302.84 188.07 306.75 183.22" style="fill:none;stroke:#263238;stroke-linecap:round;stroke-linejoin:round"></polyline><line x1="323.33" y1="102.46" x2="323.33" y2="123.21" style="fill:none;stroke:#263238;stroke-linecap:round;stroke-linejoin:round"></line><line x1="323.33" y1="90.01" x2="323.33" y2="98.31" style="fill:none;stroke:#263238;stroke-linecap:round;stroke-linejoin:round"></line><line x1="323.33" y1="82.26" x2="323.33" y2="86.69" style="fill:none;stroke:#263238;stroke-linecap:round;stroke-linejoin:round"></line><polyline points="319.41 120.78 323.33 125.63 327.25 120.78" style="fill:none;stroke:#263238;stroke-linecap:round;stroke-linejoin:round"></polyline></g><g id="Hand"><path d="M142.77,331c-.33,13,6.12,12,6.12,12a26.76,26.76,0,0,1,2.43-4.28c3.37-5.19,8.54-12.47,6.6-16.78a64.64,64.64,0,0,0-4.31-7.43c-3.46-5.3-7.43-10.65-7.43-10.65L163.4,301s12.25,5.07,21.93,5.66q.38,0,.75,0c8.83.17,7.41-6.76,7.41-9,0-1-2.39-2.7-5.19-4.42-4-2.45-8.82-4.85-8.82-4.85L182.1,283a15.48,15.48,0,0,0,4.57.24c6.7-.73,5.78-7.32,4.7-10.2-.31-.82-1.85-2.07-4-3.5-6.89-4.54-20.07-10.87-20.07-10.87H147.93l-19,51.95S143.09,318,142.77,331Z" style="fill:#fff"></path><path d="M142.77,331c-.33,13,6.12,12,6.12,12a26.76,26.76,0,0,1,2.43-4.28c3.37-5.19,8.54-12.47,6.6-16.78a64.64,64.64,0,0,0-4.31-7.43c-3.46-5.3-7.43-10.65-7.43-10.65L163.4,301s12.25,5.07,21.93,5.66q.38,0,.75,0c8.83.17,7.41-6.76,7.41-9,0-1-2.39-2.7-5.19-4.42-4-2.45-8.82-4.85-8.82-4.85L182.1,283a15.48,15.48,0,0,0,4.57.24c6.7-.73,5.78-7.32,4.7-10.2-.31-.82-1.85-2.07-4-3.5-6.89-4.54-20.07-10.87-20.07-10.87H147.93l-19,51.95S143.09,318,142.77,331Z" style="fill:#92E3A9;opacity:0.4"></path><path d="M142.77,331c-.33,13,6.12,12,6.12,12a26.76,26.76,0,0,1,2.43-4.28,18.18,18.18,0,0,1-.35-3.79c.08-4.45,3.74-13,3.74-13L151,316a7.46,7.46,0,0,1,2.64-1.52c-3.46-5.3-7.43-10.65-7.43-10.65L163.4,301s12.25,5.07,21.93,5.66q.38,0,.75,0c-.56-4.85,1.35-11,2.22-13.41-4-2.45-8.82-4.85-8.82-4.85L182.1,283a15.48,15.48,0,0,0,4.57.24c-.88-4.23,0-10.09.67-13.7-6.89-4.54-20.07-10.87-20.07-10.87H147.93l-19,51.95S143.09,318,142.77,331Z" style="fill:#92E3A9;opacity:0.4"></path><path d="M147.92,258.67h19.35s22.81,10.94,24.1,14.37,2.34,12-9.27,10l-2.62,5.42s14,7,14,9.26,1.51,9.55-8.17,9S163.4,301,163.4,301l-17.21,2.85s9.15,12.35,11.73,18.09-7.42,16.72-9,21.07c0,0-6.45,1-6.12-12s-13.87-20.4-13.87-20.4" style="fill:none;stroke:#263238;stroke-linecap:round;stroke-linejoin:round"></path><path d="M152.51,319.61s-4.85-2.72-7.49,2.32" style="fill:none;stroke:#263238;stroke-linecap:round;stroke-linejoin:round"></path><rect x="106.65" y="126.69" width="114.37" height="198.21" rx="9.26" style="fill:#92E3A9;stroke:#263238;stroke-linecap:round;stroke-linejoin:round"></rect><path d="M217.48,134.73V317.37a4.13,4.13,0,0,1-4.13,4.13h-99a4.13,4.13,0,0,1-4.13-4.13V134.73a4.13,4.13,0,0,1,4.13-4.13h22a3.46,3.46,0,0,1,3.25,2.25l.94,2.51a3.46,3.46,0,0,0,3.25,2.26h40.14a3.46,3.46,0,0,0,3.25-2.26l.94-2.51a3.46,3.46,0,0,1,3.24-2.25h22A4.13,4.13,0,0,1,217.48,134.73Z" style="fill:#263238"></path><path d="M178.34,276.4h-29a9.84,9.84,0,0,1-9.84-9.84h0a9.83,9.83,0,0,1,9.84-9.83h29a9.83,9.83,0,0,1,9.83,9.83h0A9.84,9.84,0,0,1,178.34,276.4Z" style="fill:#92E3A9;stroke:#263238;stroke-linecap:round;stroke-linejoin:round"></path><path d="M154.37,132.65a1.71,1.71,0,1,1-1.71-1.71A1.71,1.71,0,0,1,154.37,132.65Z" style="fill:#fff;stroke:#263238;stroke-linecap:round;stroke-linejoin:round"></path><path d="M176.73,132.65a1.08,1.08,0,1,1-1.07-1.07A1.07,1.07,0,0,1,176.73,132.65Z" style="fill:#fff;stroke:#263238;stroke-linecap:round;stroke-linejoin:round"></path><path d="M170.64,133.26H157.82a.6.6,0,0,1-.6-.61h0a.6.6,0,0,1,.6-.6h12.82a.61.61,0,0,1,.61.6h0A.61.61,0,0,1,170.64,133.26Z" style="fill:#fff;stroke:#263238;stroke-linecap:round;stroke-linejoin:round"></path><rect x="115.49" y="147.99" width="96.69" height="98.69" rx="12.49" style="fill:#fff;stroke:#263238;stroke-linecap:round;stroke-linejoin:round"></rect><line x1="154.08" y1="189.75" x2="154.08" y2="174.91" style="fill:none;stroke:#263238;stroke-linecap:round;stroke-linejoin:round"></line><line x1="154.08" y1="198.65" x2="154.08" y2="192.71" style="fill:none;stroke:#263238;stroke-linecap:round;stroke-linejoin:round"></line><line x1="154.08" y1="204.19" x2="154.08" y2="201.02" style="fill:none;stroke:#263238;stroke-linecap:round;stroke-linejoin:round"></line><polyline points="156.88 176.65 154.08 173.18 151.28 176.65" style="fill:none;stroke:#263238;stroke-linecap:round;stroke-linejoin:round"></polyline><line x1="173.59" y1="184.25" x2="173.59" y2="169.41" style="fill:none;stroke:#263238;stroke-linecap:round;stroke-linejoin:round"></line><line x1="173.59" y1="193.15" x2="173.59" y2="187.21" style="fill:none;stroke:#263238;stroke-linecap:round;stroke-linejoin:round"></line><line x1="173.59" y1="198.69" x2="173.59" y2="195.52" style="fill:none;stroke:#263238;stroke-linecap:round;stroke-linejoin:round"></line><polyline points="176.4 171.15 173.59 167.68 170.79 171.15" style="fill:none;stroke:#263238;stroke-linecap:round;stroke-linejoin:round"></polyline><line x1="163.39" y1="174.29" x2="163.39" y2="159.45" style="fill:none;stroke:#263238;stroke-linecap:round;stroke-linejoin:round"></line><line x1="163.39" y1="183.19" x2="163.39" y2="177.25" style="fill:none;stroke:#263238;stroke-linecap:round;stroke-linejoin:round"></line><line x1="163.39" y1="188.73" x2="163.39" y2="185.56" style="fill:none;stroke:#263238;stroke-linecap:round;stroke-linejoin:round"></line><polyline points="166.19 161.19 163.39 157.72 160.59 161.19" style="fill:none;stroke:#263238;stroke-linecap:round;stroke-linejoin:round"></polyline><circle cx="163.84" cy="195.11" r="15.51" transform="translate(-63.52 310.09) rotate(-76.81)" style="fill:#92E3A9;stroke:#263238;stroke-linecap:round;stroke-linejoin:round"></circle><path d="M162.76,186.87v-1.25h2.16v1.25c1.87.38,2.83,1.82,2.83,4.1v.53h-2.5v-.7c0-1.2-.48-1.65-1.32-1.65s-1.32.45-1.32,1.65.48,2,2.26,3.46c2.16,1.73,2.9,3.05,2.9,5,0,2.28-1,3.74-2.85,4.13v1.22h-2.16v-1.22c-1.9-.39-2.86-1.85-2.86-4.13v-1.15h2.5v1.32c0,1.2.53,1.63,1.37,1.63s1.36-.43,1.36-1.63-.48-2.07-2.25-3.46c-2.16-1.7-2.91-3.05-2.91-5C160,188.72,160.91,187.28,162.76,186.87Z" style="fill:#263238"></path><path d="M151.75,220.16v-.47h.82v.47c.71.15,1.07.69,1.07,1.56v.2h-.94v-.27c0-.45-.19-.62-.5-.62s-.51.17-.51.62.19.78.86,1.32a2.23,2.23,0,0,1,1.1,1.88,1.4,1.4,0,0,1-1.08,1.57v.46h-.82v-.46a1.4,1.4,0,0,1-1.09-1.57v-.44h1v.5c0,.46.2.62.52.62s.52-.16.52-.62-.18-.78-.86-1.31a2.24,2.24,0,0,1-1.1-1.88A1.39,1.39,0,0,1,151.75,220.16Z" style="fill:#263238"></path><path d="M155,220.9a1,1,0,0,0,1.1-.8h.68v6.37h-1v-4.86H155Z" style="fill:#263238"></path><path d="M157.86,221.63a1.52,1.52,0,1,1,3,0v3.31a1.52,1.52,0,1,1-3,0Zm1,3.38c0,.45.2.62.52.62s.52-.17.52-.62v-3.45c0-.45-.2-.63-.52-.63s-.52.18-.52.63Z" style="fill:#263238"></path><path d="M161.47,221.63a1.52,1.52,0,1,1,3,0v3.31a1.52,1.52,0,1,1-3,0Zm1,3.38c0,.45.2.62.52.62s.52-.17.52-.62v-3.45c0-.45-.2-.63-.52-.63s-.52.18-.52.63Z" style="fill:#263238"></path><path d="M165.08,221.63a1.52,1.52,0,1,1,3,0v3.31a1.52,1.52,0,1,1-3,0Zm1,3.38c0,.45.2.62.52.62s.52-.17.52-.62v-3.45c0-.45-.2-.63-.52-.63s-.52.18-.52.63Z" style="fill:#263238"></path><path d="M169.74,225.51v1h-1v-1Z" style="fill:#263238"></path><path d="M170.38,221.63a1.53,1.53,0,1,1,3.05,0v3.31a1.53,1.53,0,1,1-3.05,0Zm1,3.38c0,.45.2.62.51.62s.52-.17.52-.62v-3.45c0-.45-.2-.63-.52-.63s-.51.18-.51.63Z" style="fill:#263238"></path><path d="M174,221.63a1.53,1.53,0,1,1,3,0v3.31a1.53,1.53,0,1,1-3,0Zm1,3.38c0,.45.2.62.52.62s.51-.17.51-.62v-3.45c0-.45-.2-.63-.51-.63s-.52.18-.52.63Z" style="fill:#263238"></path><path d="M146.23,232.37h1v6.38h-1Z" style="fill:#263238"></path><path d="M148,232.37h1.58c1,0,1.49.56,1.49,1.58v3.22c0,1-.49,1.58-1.49,1.58H148Zm1,.91v4.56h.56c.32,0,.51-.16.51-.62V233.9c0-.45-.19-.62-.51-.62Z" style="fill:#263238"></path><path d="M152.56,237.78v1h-1v-1Z" style="fill:#263238"></path><path d="M154.76,233.21c-.32,0-.52.17-.52.63v.68h-1v-.62c0-1,.51-1.6,1.49-1.6a1.4,1.4,0,0,1,1.5,1.6,3.52,3.52,0,0,1-1.24,2.53c-.59.63-.76.94-.76,1.27a.66.66,0,0,0,0,.14h1.9v.91h-2.9V238a2.74,2.74,0,0,1,1-2,2.7,2.7,0,0,0,1-2C155.28,233.37,155.08,233.21,154.76,233.21Z" style="fill:#263238"></path><path d="M157.52,233.17a1,1,0,0,0,1.1-.8h.68v6.38h-1v-4.86h-.77Z" style="fill:#263238"></path><path d="M162,238.82a1.44,1.44,0,0,1-1.57-1.6v-.5a1.37,1.37,0,0,1,.62-1.32v0a1.32,1.32,0,0,1-.62-1.28v-.2a1.57,1.57,0,1,1,3.14,0v.2a1.33,1.33,0,0,1-.62,1.28v0a1.39,1.39,0,0,1,.62,1.32v.5A1.44,1.44,0,0,1,162,238.82Zm-.57-4.52c0,.51.24.67.57.67s.56-.16.56-.67v-.36c0-.57-.24-.73-.56-.73s-.57.16-.57.73Zm.57,3.61c.32,0,.55-.15.56-.72v-.59c0-.5-.21-.72-.56-.72s-.57.22-.57.72v.59C161.38,237.76,161.63,237.91,162,237.91Z" style="fill:#263238"></path><path d="M164.74,233.17a1,1,0,0,0,1.1-.8h.68v6.38h-1v-4.86h-.77Z" style="fill:#263238"></path><path d="M170.67,237.16c0,1.08-.49,1.66-1.53,1.66s-1.49-.58-1.49-1.6v-.16h.95v.22c0,.46.2.63.51.63s.56-.17.56-.78V236h0a.91.91,0,0,1-.91.56c-.74,0-1.11-.52-1.11-1.46V233.9a1.52,1.52,0,1,1,3,0Zm-1-2.17v-1.15c0-.46-.2-.62-.52-.62s-.52.16-.52.62V235c0,.45.2.63.52.63S169.67,235.44,169.67,235Z" style="fill:#263238"></path><path d="M172.24,236.69v.59c0,.46.2.62.52.62s.52-.16.52-.62v-1.4c0-.46-.2-.63-.52-.63s-.52.17-.52.63v.19h-1l.19-3.7h2.64v.91h-1.75l-.08,1.53h0a.92.92,0,0,1,.86-.47c.74,0,1.11.52,1.11,1.46v1.42c0,1-.51,1.6-1.49,1.6a1.4,1.4,0,0,1-1.5-1.6v-.53Z" style="fill:#263238"></path><path d="M174.89,234c0-1.08.49-1.66,1.53-1.66s1.49.58,1.49,1.6v.17H177v-.23c0-.46-.2-.63-.52-.63s-.55.17-.55.78v1.16h0a.92.92,0,0,1,.91-.55c.74,0,1.11.52,1.11,1.45v1.17a1.52,1.52,0,1,1-3,0Zm1,2.18v1.14c0,.46.2.62.52.62s.52-.16.52-.62v-1.14c0-.46-.2-.63-.52-.63S175.89,235.68,175.89,236.14Z" style="fill:#263238"></path><path d="M181.5,232.37v.88l-1.47,5.5h-1l1.47-5.47h-2v-.91Z" style="fill:#263238"></path><path d="M162.57,228.07h1.17v.35h-.4v2.07H163v-2.07h-.39Z" style="fill:#263238"></path><path d="M163.88,228.65a.54.54,0,0,1,.57-.61.54.54,0,0,1,.58.61v1.26a.54.54,0,0,1-.58.6.53.53,0,0,1-.57-.6Zm.38,1.28c0,.17.07.24.19.24s.2-.07.2-.24v-1.3c0-.17-.08-.24-.2-.24s-.19.07-.19.24Z" style="fill:#263238"></path><path d="M155.81,261.29c1.43,0,2.16.85,2.16,2.35v.3h-1.39v-.39c0-.67-.26-.92-.73-.92s-.74.25-.74.92.3,1.19,1.26,2c1.23,1.09,1.62,1.86,1.62,2.93,0,1.5-.75,2.36-2.2,2.36s-2.19-.86-2.19-2.36v-.57H155v.67c0,.67.3.91.76.91s.77-.24.77-.91-.3-1.19-1.26-2c-1.23-1.08-1.62-1.86-1.62-2.93C153.64,262.14,154.38,261.29,155.81,261.29Z" style="fill:#263238"></path><path d="M160.3,265.34h2v1.34h-2v2.74h2.54v1.34h-4V261.4h4v1.33H160.3Z" style="fill:#263238"></path><path d="M165.09,264h0v6.78h-1.32V261.4h1.85l1.48,5.6h0v-5.6h1.31v9.36H166.9Z" style="fill:#263238"></path><path d="M169.46,261.4h2.33c1.47,0,2.2.81,2.2,2.31v4.74c0,1.5-.73,2.31-2.2,2.31h-2.33Zm1.48,1.33v6.69h.82c.47,0,.75-.24.75-.91v-4.87c0-.67-.28-.91-.75-.91Z" style="fill:#263238"></path><path d="M98,242.57s6.45,2,8.7,7.59" style="fill:none;stroke:#263238;stroke-linecap:round;stroke-linejoin:round"></path><path d="M68.73,420.2c.72-12.46,1.19-25.18,1.81-35.43,1.29-21.25,2.26-35.5,4.19-50s1.62-36.42,2.58-44.08,3.85-9.27,6.13-18.37,4.32-27.2,8.06-29.74,15.15-7.33,15.15-7.33v51.29c6.78,10.41,14.84,13,14.84,13,5.15-14.93,4.51-20.86,9.67-26.34s8.87-12.65,17-9.65c3.86,1.42,5.92,2.88,4,16s-5.81,17.19-5.81,17.19c-.64,4.46.32,17.46,1.94,24.1s-4.52,24.31-7.42,35.59-18.38,34.16-18.38,34.16a198.08,198.08,0,0,0,.65,25.81c.12,1.22.26,2.52.44,3.87l1,35.12-55.83-1.06Z" style="fill:#fff"></path><path d="M151,267.38a3.16,3.16,0,0,1,0-2.33,8.19,8.19,0,0,0-2.84-1.52c-8.1-3-11.82,4.17-17,9.65a15.22,15.22,0,0,0-1.29,1.56c4.67-1.76,10.79-1.73,13.25,1.68C146.21,280.7,152.52,273,151,267.38Z" style="fill:#92E3A9;opacity:0.4"></path><path d="M116,407.62l-2.55,9.56s3.59-3.52,9-12.06c-.26-8.34.06-14.61.06-14.61s15.48-22.86,18.38-34.14,9-28.95,7.42-35.6-2.58-19.64-1.94-24.1a13.69,13.69,0,0,0,1.88-3.06,5.19,5.19,0,0,0-2.43-1.43,53.33,53.33,0,0,0-3.14,22.7c1,12.9-1.2,14-5.47,30.74s-11.37,35.74-14.7,39.15S117.67,403.51,116,407.62Z" style="fill:#92E3A9;opacity:0.4"></path><path d="M109.88,294.67s-5.09.79-7.14,2c0,0,9.93,2.59,10.57,5.35s2.78,5.63,6.55,2.26c0,0,.19-2.11.59-5.18-2.4-1.06-8.49-4.41-13.79-12.56v-51.3s-5.64,2.36-10.3,4.65c3.45.45,7,1.51,8.36,3.84a10.42,10.42,0,0,1-5.81,6.43c-3.66,1.65,0,29.33,0,29.33s-6,1.48-7.94,7.05c0,0,9.88,1,14,4.14S109.88,294.67,109.88,294.67Z" style="fill:#92E3A9;opacity:0.4"></path><path d="M70.54,384.77c-.5,8.3-.9,18.22-1.41,28.32C70.4,393.9,74.25,361,74.25,361S77.7,373.14,78,371.84c.77-3.81-1.61-25.37-1.4-33,.1-3.48-.16-12.4-.47-21.1-.27,6-.67,12-1.36,17.07C72.8,349.27,71.83,363.52,70.54,384.77Z" style="fill:#92E3A9;opacity:0.4"></path><path d="M68.73,456.64V420.2c.72-12.46,1.19-25.18,1.81-35.43,1.29-21.25,2.26-35.5,4.19-50s1.62-36.42,2.58-44.08,3.85-9.27,6.13-18.37,4.32-27.2,8.06-29.74,15.15-7.33,15.15-7.33v51.29c6.78,10.41,14.84,13,14.84,13,5.15-14.93,4.51-20.86,9.67-26.34s8.87-12.65,17-9.65c3.86,1.42,5.92,2.88,4,16s-5.81,17.19-5.81,17.19c-.64,4.46.32,17.46,1.94,24.1s-4.52,24.31-7.42,35.59-18.38,34.16-18.38,34.16a198.08,198.08,0,0,0,.65,25.81c.12,1.22.26,2.52.44,3.87,0,0,.52,22.67,3,36.44" style="fill:none;stroke:#263238;stroke-linecap:round;stroke-linejoin:round"></path><path d="M121.49,299.52s-1.62,7.19-4.84,8.8-7.86,0-7.86,0" style="fill:none;stroke:#263238;stroke-linecap:round;stroke-linejoin:round"></path><path d="M106.65,286.53s-3.22-7.16-13.54-.95" style="fill:none;stroke:#263238;stroke-linecap:round;stroke-linejoin:round"></path><path d="M106.65,257.58s-.64-3.8-6-4.77" style="fill:none;stroke:#263238;stroke-linecap:round;stroke-linejoin:round"></path><path d="M122.45,390.52c-6.12,7.76-5,15.17-7.31,19s-2,17.74-2,17.74" style="fill:none;stroke:#263238;stroke-linecap:round;stroke-linejoin:round"></path><path d="M78,316v27a133.68,133.68,0,0,0,2.26,23" style="fill:none;stroke:#263238;stroke-linecap:round;stroke-linejoin:round"></path><path d="M146.31,296.67s0-4.61-1.29-6" style="fill:none;stroke:#263238;stroke-linecap:round;stroke-linejoin:round"></path><path d="M142.77,282.18s-2.86-9.61-11.24-5.42" style="fill:none;stroke:#263238;stroke-linecap:round;stroke-linejoin:round"></path><path d="M116.93,297.14c-6.22.14-12.53-2.62-16.24.73" style="fill:none;stroke:#263238;stroke-linecap:round;stroke-linejoin:round"></path><path d="M66.14,407.85h1.68a2,2,0,0,1,2,2v34.29a2,2,0,0,1-2,2H66.14a0,0,0,0,1,0,0V407.85A0,0,0,0,1,66.14,407.85Z" style="fill:#263238"></path><path d="M66.14,412.8s29.56-7.73,57.93,1.08a2.17,2.17,0,0,1,1.51,2.07v18.14a1.09,1.09,0,0,1-1.27,1.08c-6.09-1.1-32.88-5.33-56.7.24Z" style="fill:#263238"></path><path d="M67.43,412.46v-4.09A2.44,2.44,0,0,0,65,405.93H61.68a2.29,2.29,0,0,0-2,1.19l-2.92,5.34v31.25l2.88,3.52a2.31,2.31,0,0,0,1.77.84H65a2.44,2.44,0,0,0,2.44-2.44Z" style="fill:#92E3A9;stroke:#263238;stroke-linecap:round;stroke-linejoin:round"></path><path d="M65.33,410.45l6.75-1.26a1.3,1.3,0,0,1,1.54,1.28v3.9L71.38,416v12.66h2.24v6.6a1.62,1.62,0,0,1-1.28,1.58l-6.41,1.33a1.55,1.55,0,0,1-1.86-1.52V412A1.54,1.54,0,0,1,65.33,410.45Z" style="fill:#92E3A9;stroke:#263238;stroke-linecap:round;stroke-linejoin:round"></path><path d="M65.58,436.46l5.5-1.26a.89.89,0,0,0,.7-.87V430.2" style="fill:none;stroke:#263238;stroke-linecap:round;stroke-linejoin:round"></path><polyline points="69.54 428.48 69.54 414.93 71.75 413.25 71.75 410.71" style="fill:none;stroke:#263238;stroke-linecap:round;stroke-linejoin:round"></polyline><line x1="60.6" y1="408.41" x2="60.6" y2="444.6" style="fill:none;stroke:#263238;stroke-linecap:round;stroke-linejoin:round"></line><path d="M87.31,422.54h0a1,1,0,0,1-1-1v-2.17a1,1,0,0,1,1-1h0a1,1,0,0,1,1,1v2.17A1,1,0,0,1,87.31,422.54Z" style="fill:#fff"></path><path d="M102.54,422.94h0a1,1,0,0,1-1-1v-2.16a1,1,0,0,1,1-1h0a1,1,0,0,1,1,1V422A1,1,0,0,1,102.54,422.94Z" style="fill:#fff"></path><path d="M116.09,424.61h0a1,1,0,0,1-1-1v-2.17a1,1,0,0,1,1-1h0a1,1,0,0,1,1,1v2.17A1,1,0,0,1,116.09,424.61Z" style="fill:#fff"></path></g></svg>