<?xml version="1.0" encoding="UTF-8"?>
<svg xmlns="http://www.w3.org/2000/svg" viewBox="0 0 70.0993 70.099">
  <path fill="#dfab29" d="M70.0661,19.6973C70.0316,18.4179,69.9521,16.7278,69.642,15.0018C69.3068,13.1356,68.7499,11.4549,67.9396,9.8634C67.0998,8.2134,66.0091,6.712,64.6981,5.401C63.3868,4.0897,61.8851,2.9989,60.2345,2.1588C58.6442,1.3491,56.9642,0.7925,55.0992,0.4572C53.3729,0.147,51.6817,0.0674,50.4013,0.0328C49.7617,0.0156,49.1226,0.008,48.4832,0.0041C47.8567,0.0003,47.2305,0,46.6043,0L23.4944,0C22.8682,0,22.2421,0.0003,21.6159,0.0041C20.9761,0.008,20.3371,0.0156,19.6981,0.0328C18.4171,0.0675,16.7259,0.147,14.9999,0.4572C13.1347,0.7925,11.455,1.3491,9.8642,2.1589C8.2139,2.999,6.7122,4.0897,5.4011,5.4009C4.0898,6.7122,2.9992,8.2136,2.1592,9.8637C1.3491,11.4552,0.7923,13.1359,0.4571,15.0018C0.147,16.7279,0.0676,18.4181,0.033,19.6978C0.0157,20.3371,0.0081,20.9767,0.0042,21.6166C0,22.3007,0,22.9855,0,23.6702L0,46.4289C0,47.1137,0,47.7984,0.0043,48.4832C0.0081,49.1224,0.0157,49.7619,0.033,50.4015C0.0675,51.6809,0.147,53.3712,0.4571,55.0971C0.7923,56.963,1.3491,58.6437,2.1592,60.2352C2.9995,61.8856,4.0901,63.3871,5.4011,64.698C6.7121,66.0092,8.2141,67.1001,9.8647,67.9402C11.4548,68.7497,13.1346,69.3063,14.9997,69.6417C16.726,69.952,18.4172,70.0315,19.6978,70.0661C20.3366,70.0834,20.9758,70.0909,21.6153,70.0949C22.2563,70.0987,22.8962,70.099,23.5361,70.099L46.563,70.099C47.2029,70.099,47.8428,70.0987,48.4827,70.0949C49.1232,70.0909,49.7624,70.0834,50.4016,70.0661C51.6819,70.0315,53.373,69.952,55.0994,69.6417C56.9646,69.3063,58.6444,68.7497,60.2349,67.94C61.8852,67.1001,63.387,66.0092,64.6983,64.6979C66.009,63.3872,67.0997,61.8858,67.9399,60.2354C68.7502,58.6438,69.307,56.9631,69.6422,55.0972C69.9523,53.3712,70.0317,51.6809,70.0663,50.4013C70.0836,49.7623,70.0912,49.1231,70.0951,48.4838C70.0993,47.7987,70.0993,47.1149,70.0993,46.4311L70.0993,23.6682C70.0993,22.9844,70.0993,22.3005,70.0951,21.6166C70.0912,20.976,70.0836,20.3369,70.0663,19.6976ZM65.0991,46.2991C65.0991,47.0169,65.0993,47.7346,65.0951,48.4525C65.0913,49.0571,65.0844,49.6616,65.068,50.2661C65.0325,51.5827,64.9548,52.9109,64.721,54.2129C64.4835,55.535,64.0956,56.7655,63.4841,57.9667C62.8834,59.1465,62.0987,60.2262,61.1627,61.1623C60.2264,62.0986,59.1466,62.8834,57.9665,63.484C56.7659,64.0952,55.5361,64.4828,54.2147,64.7204C52.9122,64.9546,51.5836,65.0322,50.2665,65.0678C49.662,65.0842,49.0575,65.0911,48.4528,65.0948C47.823,65.0986,47.193,65.0988,46.5632,65.0988L23.5363,65.0988C22.9064,65.0988,22.2765,65.0986,21.6467,65.0948C21.042,65.0911,20.4375,65.0841,19.833,65.0678C18.5159,65.0322,17.1872,64.9546,15.8848,64.7204C14.5634,64.4829,13.3335,64.0952,12.133,63.484C10.9529,62.8834,9.8731,62.0986,8.9368,61.1623C8.0008,60.2262,7.2161,59.1466,6.6153,57.9667C6.0038,56.7655,5.616,55.535,5.3785,54.2129C5.1446,52.9109,5.067,51.5827,5.0315,50.2661C5.0151,49.6616,5.0082,49.0571,5.0045,48.4525C5.0001,47.7347,5.0003,47.0169,5.0003,46.2991L5.0003,23.7996C5.0003,23.0818,5.0001,22.3641,5.0045,21.6463C5.0082,21.0416,5.0151,20.4371,5.0315,19.8326C5.067,18.516,5.1447,17.1879,5.3785,15.8858C5.616,14.5638,6.0039,13.3332,6.6153,12.132C7.2161,10.9521,8.0008,9.8726,8.9368,8.9364C9.8731,8.0001,10.9529,7.2153,12.133,6.6147C13.3336,6.0035,14.5634,5.6159,15.8848,5.3783C17.1873,5.1442,18.5159,5.0665,19.833,5.0309C20.4375,5.0146,21.042,5.0076,21.6467,5.0039C22.2627,5.0002,22.8788,4.9999,23.4948,4.9999L46.6047,4.9999C47.2208,4.9999,47.8369,5.0001,48.4528,5.0039C49.0575,5.0076,49.662,5.0146,50.2665,5.0309C51.5836,5.0665,52.9123,5.1441,54.2147,5.3783C55.5361,5.6158,56.766,6.0035,57.9665,6.6147C59.1466,7.2153,60.2264,8.0001,61.1627,8.9364C62.0987,9.8726,62.8834,10.9521,63.4841,12.132C64.0957,13.3332,64.4835,14.5638,64.721,15.8858C64.9549,17.1879,65.0325,18.516,65.068,19.8326C65.0844,20.4372,65.0913,21.0416,65.0951,21.6463C65.0994,22.3641,65.0991,23.0818,65.0991,23.7996L65.0991,46.2991ZM48.764,29.3102L41.5709,29.3102C40.5129,29.3102,39.8329,28.1872,40.3231,27.2497L46.7799,14.9018C47.1702,14.1555,46.6288,13.2615,45.7866,13.2615L27.5698,13.2615C27.0386,13.2615,26.5802,13.6346,26.4724,14.1549L21.8264,36.5703C21.6821,37.266,22.2134,37.9186,22.9238,37.9186L29.4316,37.9186C30.142,37.9186,30.6733,38.5712,30.5291,39.2669L26.6574,57.9471L49.6149,31.1605C50.2382,30.4334,49.7215,29.3103,48.7639,29.3103Z"/>
</svg>
