<svg width="689" height="206" viewBox="0 0 689 206" fill="none" xmlns="http://www.w3.org/2000/svg">
<rect width="688.843" height="205.301" transform="translate(0 0.0599365)" fill="#F14317"/>
<path d="M141.66 84.1179L160.253 65.5254H197.438L216.03 84.1179V102.71H197.438V84.1179H160.253V102.71H141.66L141.66 84.1179Z" fill="white"/>
<path d="M160.253 121.303V102.71H197.438V121.303H160.253Z" fill="white"/>
<path d="M160.253 121.303H141.66V139.896H160.253V121.303Z" fill="white"/>
<path d="M197.438 121.303V139.896H216.03V121.303H197.438Z" fill="white"/>
<path d="M523.483 134.217C520.089 134.217 516.9 133.603 513.916 132.374C510.99 131.145 508.444 129.477 506.279 127.371C504.114 125.206 502.417 122.689 501.188 119.822C499.959 116.896 499.345 113.794 499.345 110.517C499.345 107.24 499.959 104.168 501.188 101.301C502.417 98.375 504.114 95.8587 506.279 93.7521C508.444 91.5869 510.99 89.8899 513.916 88.661C516.9 87.4321 520.089 86.8177 523.483 86.8177C526.994 86.8177 530.184 87.4321 533.051 88.661C535.977 89.8899 538.493 91.5869 540.6 93.7521C542.706 95.9172 544.316 98.4335 545.428 101.301C546.598 104.168 547.183 107.24 547.183 110.517V113.151H512.072C512.306 114.555 512.745 115.901 513.389 117.189C514.091 118.476 514.94 119.617 515.934 120.612C516.988 121.548 518.158 122.309 519.446 122.894C520.733 123.421 522.079 123.684 523.483 123.684C525.473 123.684 527.082 123.421 528.311 122.894C529.598 122.309 530.652 121.694 531.471 121.051C532.349 120.29 533.051 119.412 533.578 118.417H546.744C545.808 121.343 544.345 123.977 542.355 126.317C541.478 127.312 540.454 128.278 539.283 129.214C538.113 130.15 536.767 130.999 535.245 131.76C533.724 132.52 531.968 133.105 529.979 133.515C528.048 133.983 525.882 134.217 523.483 134.217ZM534.017 105.69C533.782 104.578 533.373 103.525 532.788 102.53C532.202 101.535 531.442 100.657 530.505 99.8964C529.628 99.1357 528.574 98.5213 527.345 98.0531C526.175 97.585 524.888 97.3509 523.483 97.3509C520.616 97.3509 518.217 98.1994 516.286 99.8964C514.413 101.535 513.155 103.466 512.511 105.69H534.017Z" fill="white"/>
<path d="M466.428 134.217C463.561 134.217 460.869 133.661 458.353 132.55C455.895 131.438 453.73 129.858 451.857 127.81C449.985 125.761 448.492 123.274 447.381 120.349C446.327 117.423 445.801 114.146 445.801 110.517C445.801 106.889 446.327 103.612 447.381 100.686C448.492 97.7605 449.985 95.2735 451.857 93.2254C453.73 91.1773 455.895 89.5973 458.353 88.4854C460.869 87.3736 463.561 86.8177 466.428 86.8177C468.886 86.8177 470.963 87.198 472.66 87.9588C474.416 88.661 475.879 89.451 477.049 90.3287C478.395 91.3821 479.536 92.5524 480.472 93.8398H480.911V71.4567H493.2V132.901H480.911V127.195H480.472C479.536 128.483 478.395 129.653 477.049 130.706C475.879 131.584 474.416 132.374 472.66 133.076C470.963 133.837 468.886 134.217 466.428 134.217ZM469.5 123.684C472.836 123.684 475.557 122.543 477.664 120.261C479.829 117.979 480.911 114.731 480.911 110.517C480.911 106.304 479.829 103.056 477.664 100.774C475.557 98.492 472.836 97.3509 469.5 97.3509C466.399 97.3509 463.795 98.492 461.688 100.774C459.582 103.056 458.528 106.304 458.528 110.517C458.528 114.731 459.582 117.979 461.688 120.261C463.795 122.543 466.399 123.684 469.5 123.684Z" fill="white"/>
<path d="M412.445 134.217C409.578 134.217 406.886 133.661 404.37 132.55C401.912 131.438 399.747 129.858 397.874 127.81C396.002 125.761 394.509 123.274 393.398 120.349C392.344 117.423 391.818 114.146 391.818 110.517C391.818 106.889 392.344 103.612 393.398 100.686C394.509 97.7605 396.002 95.2735 397.874 93.2254C399.747 91.1773 401.912 89.5973 404.37 88.4854C406.886 87.3736 409.578 86.8177 412.445 86.8177C414.903 86.8177 416.98 87.198 418.677 87.9588C420.433 88.661 421.896 89.451 423.066 90.3287C424.412 91.3821 425.553 92.5524 426.49 93.8398H426.928V88.1343H439.217V132.901H426.928V127.195H426.49C425.553 128.483 424.412 129.653 423.066 130.706C421.896 131.584 420.433 132.374 418.677 133.076C416.98 133.837 414.903 134.217 412.445 134.217ZM415.517 123.684C418.853 123.684 421.574 122.543 423.681 120.261C425.846 117.979 426.928 114.731 426.928 110.517C426.928 106.304 425.846 103.056 423.681 100.774C421.574 98.492 418.853 97.3509 415.517 97.3509C412.416 97.3509 409.812 98.492 407.705 100.774C405.599 103.056 404.545 106.304 404.545 110.517C404.545 114.731 405.599 117.979 407.705 120.261C409.812 122.543 412.416 123.684 415.517 123.684Z" fill="white"/>
<path d="M348.858 71.4567H361.147V104.812H366.414L378.264 88.1343H391.869L377.386 108.762L393.186 132.901H379.141L367.73 115.345H361.147V132.901H348.858V71.4567Z" fill="white"/>
<path d="M314.162 88.1343H326.451V94.7176H326.89C327.417 93.3132 328.207 92.0843 329.26 91.031C330.138 90.0947 331.308 89.2462 332.771 88.4854C334.234 87.6662 336.077 87.2565 338.301 87.2565H343.568V99.1065H336.984C333.649 99.1065 331.045 100.013 329.172 101.828C327.358 103.642 326.451 106.099 326.451 109.201V132.901H314.162V88.1343Z" fill="white"/>
<path d="M265.857 71.4567H293.507L309.746 132.901H296.141L292.629 119.295H266.735L263.224 132.901H249.619L265.857 71.4567ZM289.557 107.006L283.413 83.7455H275.952L269.807 107.006H289.557Z" fill="white"/>
</svg>
