<svg width="689" height="206" viewBox="0 0 689 206" fill="none" xmlns="http://www.w3.org/2000/svg">
<rect width="688.843" height="205.301" fill="#351791"/>
<path d="M141.66 84.0581L160.253 65.4656H197.438L216.03 84.0581V102.651H197.438V84.0581H160.253V102.651H141.66L141.66 84.0581Z" fill="white"/>
<path d="M160.253 121.243V102.651H197.438V121.243H160.253Z" fill="white"/>
<path d="M160.253 121.243H141.66V139.836H160.253V121.243Z" fill="white"/>
<path d="M197.438 121.243V139.836H216.03V121.243H197.438Z" fill="white"/>
<path d="M523.483 134.158C520.089 134.158 516.9 133.543 513.916 132.314C510.99 131.085 508.444 129.418 506.279 127.311C504.114 125.146 502.417 122.63 501.188 119.762C499.959 116.836 499.345 113.735 499.345 110.458C499.345 107.181 499.959 104.109 501.188 101.241C502.417 98.3153 504.114 95.799 506.279 93.6924C508.444 91.5272 510.99 89.8302 513.916 88.6013C516.9 87.3724 520.089 86.758 523.483 86.758C526.994 86.758 530.184 87.3724 533.051 88.6013C535.977 89.8302 538.493 91.5272 540.6 93.6924C542.706 95.8575 544.316 98.3738 545.428 101.241C546.598 104.109 547.183 107.181 547.183 110.458V113.091H512.072C512.306 114.496 512.745 115.841 513.389 117.129C514.091 118.416 514.94 119.557 515.934 120.552C516.988 121.488 518.158 122.249 519.446 122.834C520.733 123.361 522.079 123.624 523.483 123.624C525.473 123.624 527.082 123.361 528.311 122.834C529.598 122.249 530.652 121.635 531.471 120.991C532.349 120.23 533.051 119.353 533.578 118.358H546.744C545.808 121.284 544.345 123.917 542.355 126.258C541.478 127.252 540.454 128.218 539.283 129.154C538.113 130.091 536.767 130.939 535.245 131.7C533.724 132.461 531.968 133.046 529.979 133.455C528.048 133.924 525.882 134.158 523.483 134.158ZM534.017 105.63C533.782 104.518 533.373 103.465 532.788 102.47C532.202 101.475 531.442 100.597 530.505 99.8368C529.628 99.076 528.574 98.4616 527.345 97.9934C526.175 97.5253 524.888 97.2912 523.483 97.2912C520.616 97.2912 518.217 98.1397 516.286 99.8368C514.413 101.475 513.155 103.406 512.511 105.63H534.017Z" fill="white"/>
<path d="M466.428 134.158C463.561 134.158 460.869 133.602 458.353 132.49C455.895 131.378 453.73 129.798 451.857 127.75C449.985 125.702 448.492 123.215 447.381 120.289C446.327 117.363 445.801 114.086 445.801 110.458C445.801 106.83 446.327 103.553 447.381 100.627C448.492 97.7008 449.985 95.2138 451.857 93.1657C453.73 91.1176 455.895 89.5376 458.353 88.4257C460.869 87.3139 463.561 86.758 466.428 86.758C468.886 86.758 470.963 87.1383 472.66 87.8991C474.416 88.6013 475.879 89.3913 477.049 90.2691C478.395 91.3224 479.536 92.4927 480.472 93.7801H480.911V71.397H493.2V132.841H480.911V127.135H480.472C479.536 128.423 478.395 129.593 477.049 130.647C475.879 131.524 474.416 132.314 472.66 133.017C470.963 133.777 468.886 134.158 466.428 134.158ZM469.5 123.624C472.836 123.624 475.557 122.483 477.664 120.201C479.829 117.919 480.911 114.671 480.911 110.458C480.911 106.244 479.829 102.997 477.664 100.715C475.557 98.4323 472.836 97.2912 469.5 97.2912C466.399 97.2912 463.795 98.4323 461.688 100.715C459.582 102.997 458.528 106.244 458.528 110.458C458.528 114.671 459.582 117.919 461.688 120.201C463.795 122.483 466.399 123.624 469.5 123.624Z" fill="white"/>
<path d="M412.445 134.158C409.578 134.158 406.886 133.602 404.37 132.49C401.912 131.378 399.747 129.798 397.874 127.75C396.002 125.702 394.509 123.215 393.398 120.289C392.344 117.363 391.818 114.086 391.818 110.458C391.818 106.83 392.344 103.553 393.398 100.627C394.509 97.7008 396.002 95.2138 397.874 93.1657C399.747 91.1176 401.912 89.5376 404.37 88.4257C406.886 87.3139 409.578 86.758 412.445 86.758C414.903 86.758 416.98 87.1383 418.677 87.8991C420.433 88.6013 421.896 89.3913 423.066 90.2691C424.412 91.3224 425.553 92.4927 426.49 93.7801H426.928V88.0746H439.217V132.841H426.928V127.135H426.49C425.553 128.423 424.412 129.593 423.066 130.647C421.896 131.524 420.433 132.314 418.677 133.017C416.98 133.777 414.903 134.158 412.445 134.158ZM415.517 123.624C418.853 123.624 421.574 122.483 423.681 120.201C425.846 117.919 426.928 114.671 426.928 110.458C426.928 106.244 425.846 102.997 423.681 100.715C421.574 98.4323 418.853 97.2912 415.517 97.2912C412.416 97.2912 409.812 98.4323 407.705 100.715C405.599 102.997 404.545 106.244 404.545 110.458C404.545 114.671 405.599 117.919 407.705 120.201C409.812 122.483 412.416 123.624 415.517 123.624Z" fill="white"/>
<path d="M348.858 71.397H361.147V104.752H366.414L378.264 88.0746H391.869L377.386 108.702L393.186 132.841H379.141L367.73 115.286H361.147V132.841H348.858V71.397Z" fill="white"/>
<path d="M314.162 88.0746H326.451V94.6579H326.89C327.417 93.2535 328.207 92.0246 329.26 90.9713C330.138 90.035 331.308 89.1865 332.771 88.4257C334.234 87.6065 336.077 87.1969 338.301 87.1969H343.568V99.0468H336.984C333.649 99.0468 331.045 99.9538 329.172 101.768C327.358 103.582 326.451 106.04 326.451 109.141V132.841H314.162V88.0746Z" fill="white"/>
<path d="M265.857 71.397H293.507L309.746 132.841H296.141L292.629 119.236H266.735L263.224 132.841H249.619L265.857 71.397ZM289.557 106.947L283.413 83.6858H275.952L269.807 106.947H289.557Z" fill="white"/>
</svg>
