<svg width="689" height="206" viewBox="0 0 689 206" fill="none" xmlns="http://www.w3.org/2000/svg">
<rect width="688.843" height="205.301" transform="translate(0 0.0299072)" fill="#010101"/>
<path d="M141.66 84.0879L160.253 65.4954H197.438L216.03 84.0879V102.68H197.438V84.0879H160.253V102.68H141.66L141.66 84.0879Z" fill="white"/>
<path d="M160.253 121.273V102.68H197.438V121.273H160.253Z" fill="white"/>
<path d="M160.253 121.273H141.66V139.865H160.253V121.273Z" fill="white"/>
<path d="M197.438 121.273V139.865H216.03V121.273H197.438Z" fill="white"/>
<path d="M523.483 134.187C520.089 134.187 516.9 133.573 513.916 132.344C510.99 131.115 508.444 129.447 506.279 127.341C504.114 125.175 502.417 122.659 501.188 119.792C499.959 116.866 499.345 113.764 499.345 110.487C499.345 107.21 499.959 104.138 501.188 101.271C502.417 98.345 504.114 95.8287 506.279 93.722C508.444 91.5569 510.99 89.8598 513.916 88.631C516.9 87.4021 520.089 86.7876 523.483 86.7876C526.994 86.7876 530.184 87.4021 533.051 88.631C535.977 89.8598 538.493 91.5569 540.6 93.722C542.706 95.8872 544.316 98.4035 545.428 101.271C546.598 104.138 547.183 107.21 547.183 110.487V113.121H512.072C512.306 114.525 512.745 115.871 513.389 117.159C514.091 118.446 514.94 119.587 515.934 120.582C516.988 121.518 518.158 122.279 519.446 122.864C520.733 123.391 522.079 123.654 523.483 123.654C525.473 123.654 527.082 123.391 528.311 122.864C529.598 122.279 530.652 121.664 531.471 121.021C532.349 120.26 533.051 119.382 533.578 118.387H546.744C545.808 121.313 544.345 123.947 542.355 126.287C541.478 127.282 540.454 128.248 539.283 129.184C538.113 130.12 536.767 130.969 535.245 131.73C533.724 132.49 531.968 133.075 529.979 133.485C528.048 133.953 525.882 134.187 523.483 134.187ZM534.017 105.66C533.782 104.548 533.373 103.495 532.788 102.5C532.202 101.505 531.442 100.627 530.505 99.8664C529.628 99.1057 528.574 98.4912 527.345 98.0231C526.175 97.555 524.888 97.3209 523.483 97.3209C520.616 97.3209 518.217 98.1694 516.286 99.8664C514.413 101.505 513.155 103.436 512.511 105.66H534.017Z" fill="white"/>
<path d="M466.428 134.187C463.561 134.187 460.869 133.631 458.353 132.52C455.895 131.408 453.73 129.828 451.857 127.78C449.985 125.731 448.492 123.244 447.381 120.318C446.327 117.393 445.801 114.116 445.801 110.487C445.801 106.859 446.327 103.582 447.381 100.656C448.492 97.7305 449.985 95.2435 451.857 93.1954C453.73 91.1472 455.895 89.5672 458.353 88.4554C460.869 87.3436 463.561 86.7876 466.428 86.7876C468.886 86.7876 470.963 87.168 472.66 87.9287C474.416 88.631 475.879 89.4209 477.049 90.2987C478.395 91.352 479.536 92.5224 480.472 93.8098H480.911V71.4266H493.2V132.871H480.911V127.165H480.472C479.536 128.453 478.395 129.623 477.049 130.676C475.879 131.554 474.416 132.344 472.66 133.046C470.963 133.807 468.886 134.187 466.428 134.187ZM469.5 123.654C472.836 123.654 475.557 122.513 477.664 120.231C479.829 117.949 480.911 114.701 480.911 110.487C480.911 106.274 479.829 103.026 477.664 100.744C475.557 98.462 472.836 97.3209 469.5 97.3209C466.399 97.3209 463.795 98.462 461.688 100.744C459.582 103.026 458.528 106.274 458.528 110.487C458.528 114.701 459.582 117.949 461.688 120.231C463.795 122.513 466.399 123.654 469.5 123.654Z" fill="white"/>
<path d="M412.445 134.187C409.578 134.187 406.886 133.631 404.37 132.52C401.912 131.408 399.747 129.828 397.874 127.78C396.002 125.731 394.509 123.244 393.398 120.318C392.344 117.393 391.818 114.116 391.818 110.487C391.818 106.859 392.344 103.582 393.398 100.656C394.509 97.7305 396.002 95.2435 397.874 93.1954C399.747 91.1472 401.912 89.5672 404.37 88.4554C406.886 87.3436 409.578 86.7876 412.445 86.7876C414.903 86.7876 416.98 87.168 418.677 87.9287C420.433 88.631 421.896 89.4209 423.066 90.2987C424.412 91.352 425.553 92.5224 426.49 93.8098H426.928V88.1043H439.217V132.871H426.928V127.165H426.49C425.553 128.453 424.412 129.623 423.066 130.676C421.896 131.554 420.433 132.344 418.677 133.046C416.98 133.807 414.903 134.187 412.445 134.187ZM415.517 123.654C418.853 123.654 421.574 122.513 423.681 120.231C425.846 117.949 426.928 114.701 426.928 110.487C426.928 106.274 425.846 103.026 423.681 100.744C421.574 98.462 418.853 97.3209 415.517 97.3209C412.416 97.3209 409.812 98.462 407.705 100.744C405.599 103.026 404.545 106.274 404.545 110.487C404.545 114.701 405.599 117.949 407.705 120.231C409.812 122.513 412.416 123.654 415.517 123.654Z" fill="white"/>
<path d="M348.858 71.4266H361.147V104.782H366.414L378.264 88.1043H391.869L377.386 108.732L393.186 132.871H379.141L367.73 115.315H361.147V132.871H348.858V71.4266Z" fill="white"/>
<path d="M314.162 88.1043H326.451V94.6876H326.89C327.417 93.2831 328.207 92.0543 329.26 91.0009C330.138 90.0646 331.308 89.2161 332.771 88.4554C334.234 87.6361 336.077 87.2265 338.301 87.2265H343.568V99.0764H336.984C333.649 99.0764 331.045 99.9835 329.172 101.798C327.358 103.612 326.451 106.069 326.451 109.171V132.871H314.162V88.1043Z" fill="white"/>
<path d="M265.857 71.4266H293.507L309.746 132.871H296.141L292.629 119.265H266.735L263.224 132.871H249.619L265.857 71.4266ZM289.557 106.976L283.413 83.7154H275.952L269.807 106.976H289.557Z" fill="white"/>
</svg>
