<?xml version="1.0" encoding="UTF-8"?>
<!-- Generator: visioncortex VTracer 0.6.5 -->
<svg version="1.1" xmlns="http://www.w3.org/2000/svg" width="512" height="512">
<path d="M0 0 C168.96 0 337.92 0 512 0 C512 168.96 512 337.92 512 512 C343.04 512 174.08 512 0 512 C0 343.04 0 174.08 0 0 Z " fill="#FEFEFD" transform="translate(0,0)"/>
<path d="M0 0 C0.86 0 1.71 0 2.59 0 C50.9 0.13 50.9 0.13 60.8 8.18 C63.21 11.2 62.79 13.56 62.5 17.31 C63.18 17.54 63.87 17.76 64.57 17.99 C68.27 19.66 71.16 21.91 74.31 24.44 C74.62 24.69 74.62 24.69 76.2 25.94 C88.25 35.69 97.37 47.08 104.94 60.56 C105.35 61.29 105.76 62.03 106.19 62.78 C109.3 68.5 112.5 74.69 112.5 81.31 C108.87 80.65 105.24 79.99 101.5 79.31 C101.89 80 102.27 80.69 102.67 81.4 C107.92 90.87 112.05 99.48 114.08 110.17 C114.37 111.66 114.69 113.14 115.02 114.62 C118.67 131.15 118.91 147.59 118.94 164.44 C118.94 164.99 118.94 164.99 118.96 167.79 C119 180.66 118.52 192.77 115.5 205.31 C115.19 206.69 114.87 208.06 114.56 209.44 C111.53 222.5 107.61 235.56 101.77 247.66 C100.67 249.96 99.65 252.27 98.64 254.61 C96.66 259.08 94.37 263.3 91.88 267.5 C91.44 268.23 91.01 268.96 90.56 269.71 C84.44 279.89 77.7 289.38 69.58 298.08 C67.67 300.13 65.86 302.23 64.06 304.38 C60.66 308.28 56.9 311.7 53 315.11 C51.48 316.45 49.98 317.82 48.53 319.24 C35.87 331.39 19.43 339.37 3.5 346.31 C3.11 346.48 3.11 346.48 1.13 347.36 C-1.16 348.36 -3.45 349.34 -5.75 350.31 C-6.43 350.6 -7.11 350.89 -7.81 351.19 C-12.09 352.96 -15.93 353.84 -20.5 354.31 C-19.17 351.55 -17.71 348.98 -16.04 346.41 C-15.57 345.69 -15.1 344.96 -14.61 344.21 C-14.36 343.84 -14.36 343.84 -13.12 341.94 C-12.64 341.19 -12.16 340.45 -11.66 339.69 C-8.97 335.54 -6.25 331.42 -3.5 327.31 C-5.91 329.69 -8.29 332.07 -10.54 334.6 C-24.69 350.02 -44.88 359.01 -65.5 361.31 C-67.71 360.84 -67.71 360.84 -69.5 360.31 C-69.11 359.83 -69.11 359.83 -67.12 357.42 C-61.06 349.98 -55.39 342.59 -50.5 334.31 C-51.07 334.87 -51.64 335.43 -52.23 336 C-62.09 345.28 -72.85 351.57 -85.5 356.31 C-85.83 359.28 -86.16 362.25 -86.5 365.31 C-98.71 365.31 -110.92 365.31 -123.5 365.31 C-123.5 348.48 -123.5 331.65 -123.5 314.31 C-131.75 314.31 -140 314.31 -148.5 314.31 C-148.5 331.14 -148.5 347.97 -148.5 365.31 C-160.38 365.31 -172.26 365.31 -184.5 365.31 C-184.73 359.94 -184.93 354.58 -185.05 349.2 C-185.1 347.38 -185.17 345.55 -185.25 343.73 C-185.96 328.59 -185.96 328.59 -182.35 322.96 C-179.86 320.48 -177.32 318.41 -174.5 316.31 C-173.28 315.01 -172.08 313.68 -170.94 312.31 C-168.44 309.4 -165.9 306.53 -163.31 303.69 C-154.6 294.01 -146.21 284.15 -138.36 273.76 C-136.5 271.31 -136.5 271.31 -135.5 270.31 C-132.65 270.2 -129.81 270.15 -126.96 270.14 C-125.16 270.11 -123.37 270.09 -121.57 270.06 C-118.74 270.03 -115.92 270 -113.09 269.99 C-96 269.89 -79.87 268.83 -66.63 256.59 C-59.26 248.55 -57.09 239.84 -57.22 229.12 C-57.95 221.72 -61.98 215.18 -67.5 210.31 C-70.74 208.12 -74.06 206.17 -77.5 204.31 C-76.08 201.1 -74.38 198.94 -71.91 196.46 C-71.17 195.72 -70.44 194.98 -69.68 194.22 C-68.89 193.43 -68.1 192.64 -67.28 191.83 C-66.47 191.01 -65.65 190.2 -64.82 189.36 C-63.1 187.64 -61.37 185.92 -59.65 184.2 C-57 181.57 -54.37 178.92 -51.73 176.27 C-50.06 174.6 -48.39 172.93 -46.72 171.27 C-45.93 170.47 -45.13 169.67 -44.32 168.85 C-43.95 168.49 -43.95 168.49 -42.09 166.65 C-41.44 166 -40.8 165.36 -40.13 164.69 C-38.5 163.31 -38.5 163.31 -36.5 163.31 C-36.17 162.32 -35.84 161.33 -35.5 160.31 C-34.21 158.94 -32.88 157.6 -31.5 156.31 C-32.25 156.18 -33 156.05 -33.77 155.91 C-34.75 155.73 -35.74 155.56 -36.75 155.38 C-37.72 155.2 -38.7 155.03 -39.7 154.85 C-42.5 154.31 -42.5 154.31 -44.36 153.79 C-46.8 153.25 -49.04 153.15 -51.54 153.11 C-52.54 153.09 -53.55 153.07 -54.58 153.05 C-55.65 153.03 -56.72 153.01 -57.83 153 C-58.93 152.98 -60.04 152.95 -61.17 152.93 C-64.7 152.87 -68.22 152.81 -71.75 152.75 C-74.14 152.71 -76.53 152.66 -78.92 152.62 C-84.78 152.51 -90.64 152.41 -96.5 152.31 C-96.5 151.65 -96.5 150.99 -96.5 150.31 C-95.84 150.31 -95.18 150.31 -94.5 150.31 C-94.4 149.98 -94.4 149.98 -93.89 148.32 C-91.94 144.1 -89.1 140.79 -86.19 137.19 C-75.34 123.44 -65 110.12 -59.5 93.31 C-68.07 94 -68.07 94 -71.69 97.5 C-72.34 98.13 -73 98.76 -73.68 99.41 C-77.52 103.42 -80.67 106.95 -82.5 112.31 C-83.15 113.65 -83.81 114.99 -84.5 116.31 C-85.16 116.31 -85.82 116.31 -86.5 116.31 C-86.74 117.01 -86.98 117.71 -87.23 118.43 C-88.7 121.77 -90.65 124.53 -92.81 127.44 C-97.66 134.09 -102.32 140.85 -106.94 147.65 C-107.46 148.41 -107.98 149.18 -108.52 149.96 C-108.97 150.64 -109.43 151.31 -109.9 152 C-112.06 155.13 -114.28 158.22 -116.5 161.31 C-115.78 161.32 -115.06 161.33 -114.31 161.34 C-107.51 161.44 -100.72 161.54 -93.92 161.65 C-90.42 161.71 -86.93 161.76 -83.43 161.81 C-79.41 161.87 -75.4 161.93 -71.38 162 C-70.12 162.01 -68.87 162.03 -67.57 162.05 C-66.41 162.07 -65.25 162.09 -64.05 162.11 C-63.03 162.12 -62 162.14 -60.94 162.15 C-58.5 162.31 -58.5 162.31 -56.5 163.31 C-57.96 166.7 -59.84 168.89 -62.46 171.46 C-63.24 172.24 -64.02 173.02 -64.83 173.82 C-65.65 174.62 -66.47 175.42 -67.31 176.25 C-68.12 177.05 -68.93 177.85 -69.76 178.67 C-72 180.89 -74.25 183.1 -76.5 185.31 C-85.39 194.11 -93.84 203.2 -101.47 213.12 C-104.6 217.2 -107.85 221.15 -111.19 225.06 C-115.04 229.57 -118.79 234.14 -122.48 238.79 C-125.6 242.68 -128.8 246.49 -132 250.32 C-134.32 253.09 -136.6 255.88 -138.88 258.69 C-142.37 262.98 -145.95 267.18 -149.56 271.38 C-154.34 276.92 -158.97 282.56 -163.5 288.31 C-168.34 294.45 -173.3 300.47 -178.36 306.42 C-182.07 310.79 -185.71 315.2 -189.32 319.64 C-190.78 321.43 -192.24 323.21 -193.71 324.98 C-200.36 333.04 -206.77 341.27 -212.99 349.66 C-213.78 350.72 -214.56 351.78 -215.38 352.88 C-216.07 353.83 -216.77 354.78 -217.49 355.75 C-219.36 358.13 -221.31 360.23 -223.5 362.31 C-222.15 358.76 -220.58 355.44 -218.78 352.1 C-218.24 351.11 -217.71 350.12 -217.16 349.1 C-216.88 348.58 -216.88 348.58 -215.44 345.94 C-215.14 345.4 -215.14 345.4 -213.66 342.67 C-210.5 336.87 -207.27 331.13 -203.81 325.5 C-200.08 319.42 -196.73 313.17 -193.43 306.84 C-190.26 300.73 -187 294.67 -183.69 288.62 C-183.19 287.72 -182.69 286.81 -182.18 285.87 C-181.15 283.99 -180.13 282.11 -179.1 280.23 C-164.58 253.7 -164.58 253.7 -159.46 243.26 C-157.64 239.55 -155.75 235.88 -153.82 232.23 C-153.34 231.33 -152.86 230.44 -152.37 229.51 C-151.46 227.79 -150.54 226.08 -149.62 224.37 C-145.43 216.48 -142.12 208.59 -138.5 200.31 C-159.95 200.31 -181.4 200.31 -203.5 200.31 C-202.05 197.41 -200.75 195.12 -198.88 192.55 C-198.36 191.83 -197.85 191.11 -197.31 190.37 C-196.75 189.61 -196.2 188.85 -195.62 188.06 C-195.05 187.27 -194.47 186.47 -193.88 185.66 C-189.53 179.68 -185.11 173.76 -180.67 167.86 C-177.31 163.4 -174.01 158.91 -170.74 154.4 C-161.93 142.27 -152.98 130.24 -143.97 118.26 C-141.47 114.95 -138.99 111.63 -136.5 108.31 C-135.5 106.98 -134.5 105.65 -133.5 104.31 C-133 103.65 -132.51 102.99 -132 102.31 C-130.5 100.31 -129 98.31 -127.5 96.31 C-127 95.65 -126.51 94.99 -126 94.31 C-125 92.98 -124 91.65 -123 90.32 C-120.48 86.95 -117.95 83.58 -115.43 80.21 C-108.07 70.37 -100.63 60.61 -93.08 50.93 C-92.78 50.54 -92.78 50.54 -91.27 48.6 C-90.05 47.04 -88.84 45.48 -87.62 43.92 C-84.2 39.53 -80.85 35.11 -77.56 30.62 C-65.86 15.1 -48.46 6.18 -29.5 2.31 C-28.78 2.14 -28.07 1.97 -27.33 1.8 C-18.26 -0.15 -9.22 -0.04 0 0 Z " fill="#050F12" transform="translate(323.5,91.6875)"/>
<path d="M0 0 C12.21 0 24.42 0 37 0 C37 16.17 37 32.34 37 49 C45.25 49 53.5 49 62 49 C62 32.83 62 16.66 62 0 C74.54 0 87.08 0 100 0 C100.11 6.89 100.21 13.77 100.27 20.66 C100.3 23 100.33 25.35 100.38 27.69 C100.44 31.06 100.47 34.42 100.49 37.79 C100.51 38.84 100.54 39.88 100.57 40.96 C100.57 48.28 100.57 48.28 97.63 51.99 C96.76 52.65 95.89 53.32 95 54 C93.6 55.78 93.6 55.78 92.49 57.43 C92.07 58.05 91.64 58.67 91.21 59.32 C90.99 59.65 90.99 59.65 89.88 61.31 C88.91 62.73 87.95 64.16 86.98 65.58 C86.49 66.31 86 67.03 85.5 67.78 C83.06 71.39 80.59 74.98 78.12 78.56 C77.91 78.88 77.91 78.88 76.79 80.51 C76.37 81.12 75.94 81.74 75.51 82.38 C75.14 82.91 74.78 83.44 74.4 83.99 C73.94 84.65 73.48 85.32 73 86 C72.69 86.58 72.39 87.16 72.07 87.76 C70.4 90.62 69.2 92.64 65.93 93.61 C63.37 93.81 60.89 93.79 58.32 93.68 C57.4 93.67 56.47 93.66 55.52 93.65 C52.57 93.61 49.63 93.53 46.69 93.44 C44.69 93.4 42.69 93.37 40.69 93.34 C35.79 93.26 30.9 93.14 26 93 C26.01 94.04 26.01 95.07 26.02 96.14 C26.03 100.07 26.05 104 26.05 107.93 C26.06 109.61 26.07 111.3 26.08 112.98 C26.12 121.65 26.1 130.31 25.67 138.97 C25.64 139.6 25.64 139.6 25.49 142.8 C24.84 147.04 23.35 148.86 20.28 151.71 C17.13 154.88 14.72 158.45 12.19 162.12 C11.14 163.63 10.09 165.13 9.04 166.64 C8.53 167.38 8.01 168.11 7.48 168.88 C5.36 171.91 3.22 174.93 1.06 177.94 C0.66 178.5 0.26 179.05 -0.15 179.63 C-6.92 189.09 -13.75 198.51 -20.58 207.94 C-21.16 208.74 -21.75 209.55 -22.35 210.38 C-23.46 211.92 -24.57 213.45 -25.69 214.99 C-27.96 218.13 -30.2 221.27 -32.31 224.52 C-32.87 225.34 -33.42 226.16 -34 227 C-34.33 227 -34.66 227 -35 227 C-35 226.39 -35 225.78 -35.01 225.15 C-35.07 210.28 -35.14 195.4 -35.24 180.53 C-35.28 173.33 -35.32 166.14 -35.35 158.95 C-35.37 152.68 -35.4 146.4 -35.45 140.13 C-35.47 136.81 -35.49 133.49 -35.5 130.18 C-35.51 126.46 -35.54 122.75 -35.57 119.04 C-35.57 117.95 -35.56 116.86 -35.56 115.74 C-35.64 109.54 -36.02 103.57 -39 98 C-46.08 91.73 -56.56 92.76 -65.44 92.44 C-69.25 92.29 -73.07 92.15 -77 92 C-77 77.81 -77 63.62 -77 49 C-51.59 49 -26.18 49 0 49 C0 32.83 0 16.66 0 0 Z " fill="#045E22" transform="translate(138,67)"/>
<path d="M0 0 C1.32 0 2.64 0 4 0 C3.25 4.75 3.25 4.75 1 7 C1.33 7.22 1.33 7.22 3.02 8.36 C20.76 20.75 32.53 36.02 38 57 C38.09 57.34 38.09 57.34 38.55 59.07 C43.21 77.89 40.39 100.97 31 118 C28.57 121.57 25.9 124.8 23 128 C22.36 128.71 21.72 129.42 21.06 130.15 C16.22 135.25 10.93 139.25 5 143 C4.44 143.36 3.88 143.73 3.3 144.1 C-14.16 155.22 -31.47 158 -52 158 C-52 175.16 -52 192.32 -52 210 C-64.21 210 -76.42 210 -89 210 C-89 193.17 -89 176.34 -89 159 C-97.25 159 -105.5 159 -114 159 C-114 175.83 -114 192.66 -114 210 C-125.88 210 -137.76 210 -150 210 C-150.23 204.62 -150.43 199.26 -150.55 193.89 C-150.6 192.06 -150.67 190.24 -150.75 188.42 C-151.46 173.28 -151.46 173.28 -147.85 167.65 C-145.36 165.17 -142.82 163.1 -140 161 C-138.78 159.7 -137.58 158.37 -136.44 157 C-133.94 154.08 -131.4 151.22 -128.81 148.38 C-120.1 138.7 -111.71 128.84 -103.86 118.45 C-102 116 -102 116 -101 115 C-98.15 114.89 -95.31 114.84 -92.46 114.82 C-90.66 114.8 -88.87 114.78 -87.07 114.75 C-84.24 114.72 -81.42 114.69 -78.59 114.67 C-61.5 114.58 -45.37 113.51 -32.13 101.27 C-24.76 93.24 -22.59 84.53 -22.72 73.81 C-23.45 66.41 -27.48 59.87 -33 55 C-36.24 52.81 -39.56 50.86 -43 49 C-41.58 45.79 -39.88 43.63 -37.41 41.15 C-36.67 40.41 -35.94 39.67 -35.18 38.91 C-34.39 38.12 -33.6 37.33 -32.78 36.52 C-31.97 35.7 -31.15 34.88 -30.32 34.04 C-28.6 32.32 -26.87 30.61 -25.15 28.89 C-22.5 26.25 -19.87 23.61 -17.23 20.96 C-15.56 19.29 -13.89 17.62 -12.22 15.95 C-11.43 15.16 -10.63 14.36 -9.82 13.54 C-9.45 13.17 -9.45 13.17 -7.59 11.33 C-6.94 10.69 -6.3 10.04 -5.63 9.38 C-4 8 -4 8 -2 8 C-1.67 7.01 -1.34 6.02 -1 5 C0.29 3.63 1.62 2.29 3 1 C2.01 0.67 1.02 0.34 0 0 Z " fill="#025D21" transform="translate(289,247)"/>
<path d="M0 0 C-2.53 2.8 -4.2 4.46 -8 5 C-8 5.66 -8 6.32 -8 7 C-7.33 7.11 -6.65 7.22 -5.96 7.33 C8.42 10.58 18.04 18.59 28 29 C28.85 29.86 29.71 30.72 30.59 31.6 C47 48.82 47 48.82 47 56 C42.44 54.41 38.69 52.01 34.69 49.38 C34.04 48.95 33.4 48.53 32.73 48.1 C31.15 47.07 29.58 46.04 28 45 C29.13 47.38 30.37 49.6 31.73 51.86 C40.08 65.66 44.48 80.33 48 96 C48.1 96.43 48.1 96.43 48.6 98.59 C49.06 101.37 49.1 104 49.06 106.81 C49.05 107.79 49.04 108.76 49.04 109.77 C49.03 110.14 49.03 110.14 49 112 C44.13 110.54 39.84 108.52 35.38 106.12 C35.05 105.96 35.05 105.96 33.39 105.1 C29.66 103.11 26.94 101.08 24 98 C23.34 98 22.68 98 22 98 C21.69 98.97 21.37 99.93 21.05 100.93 C14.28 121.58 14.28 121.58 10 128 C5.91 127.41 2.95 126.05 -0.62 124 C-3.45 122.39 -5.92 121.03 -9 120 C-9.27 120.88 -9.54 121.77 -9.81 122.68 C-12.63 131.32 -16.14 137.92 -22 145 C-22.61 145.74 -23.22 146.47 -23.85 147.23 C-25.21 148.84 -26.6 150.43 -28 152 C-30.42 149.58 -31.55 147.14 -33.06 144.06 C-33.59 143 -34.12 141.94 -34.66 140.85 C-36 138 -36 138 -37 135 C-37.66 135 -38.32 135 -39 135 C-39.25 135.72 -39.51 136.44 -39.77 137.19 C-43.01 144.58 -48.97 151.08 -56 155 C-61.48 154.85 -65.85 149.1 -69.4 145.37 C-73.26 140.84 -73.31 136.83 -73 131 C-77.62 131 -82.24 131 -87 131 C-86.01 127.03 -85.14 125.67 -82.69 122.56 C-73.42 109.36 -74.21 94.55 -74 79 C-73.01 78.94 -72.03 78.88 -71.01 78.82 C-69.73 78.73 -68.45 78.65 -67.12 78.56 C-65.85 78.48 -64.57 78.4 -63.26 78.32 C-60 78 -60 78 -58 77 C-61.63 75.35 -65.26 73.7 -69 72 C-69 71.34 -69 70.68 -69 70 C-64.05 68.02 -59.1 66.04 -54 64 C-61.87 62.56 -61.87 62.56 -64.35 62.12 C-69.78 61.11 -69.78 61.11 -72 60 C-72 59.01 -72 58.02 -72 57 C-73.32 56.67 -74.64 56.34 -76 56 C-75.69 54.12 -75.69 54.12 -75 52 C-71.74 49.83 -70.01 49.6 -66.19 49.12 C-59.95 48.15 -56.36 46.36 -51.88 41.88 C-48.61 36.87 -46.54 31.31 -45.19 25.5 C-44 23 -44 23 -40.38 21.62 C-39.26 21.42 -38.15 21.21 -37 21 C-48.17 15.42 -70.19 19.76 -82 23 C-82.33 23.16 -82.33 23.16 -84 24 C-95 24.51 -106.03 23.7 -117 23 C-117.46 16.65 -117.46 16.65 -115.45 13.81 C-82.03 -13.69 -39.48 -9.16 0 0 Z " fill="#FCFBFB" transform="translate(375,106)"/>
<path d="M0 0 C0.33 0 0.66 0 1 0 C1.01 0.8 1.03 1.6 1.04 2.43 C1.35 9.72 2.35 16.41 4.25 23.44 C4.44 24.18 4.63 24.93 4.83 25.69 C6.13 30.26 7.9 33.71 10.83 37.45 C12.96 40.27 15 43.4 15 47 C16.32 47 17.64 47 19 47 C20.56 45.39 20.56 45.39 22 43.25 C24.13 40.2 26.25 37.54 29 35 C28.37 37.93 27.41 40.36 26 43 C25.34 43 24.68 43 24 43 C23.76 43.7 23.52 44.4 23.27 45.12 C21.8 48.45 19.85 51.22 17.69 54.12 C12.84 60.77 8.18 67.54 3.56 74.34 C3.04 75.1 2.52 75.87 1.98 76.65 C1.53 77.32 1.07 77.99 0.6 78.68 C-1.56 81.81 -3.78 84.91 -6 88 C-5.28 88.01 -4.56 88.02 -3.81 88.03 C2.99 88.13 9.78 88.23 16.58 88.34 C20.08 88.39 23.57 88.45 27.07 88.5 C31.09 88.55 35.1 88.62 39.12 88.68 C40.38 88.7 41.63 88.72 42.93 88.73 C43.51 88.74 43.51 88.74 46.45 88.79 C47.47 88.81 48.5 88.83 49.56 88.84 C52 89 52 89 54 90 C52.54 93.38 50.66 95.57 48.04 98.15 C47.26 98.93 46.48 99.71 45.67 100.51 C44.85 101.31 44.03 102.11 43.19 102.94 C42.38 103.74 41.57 104.53 40.74 105.36 C38.5 107.58 36.25 109.79 34 112 C25.11 120.8 16.66 129.89 9.03 139.81 C5.9 143.88 2.65 147.84 -0.69 151.75 C-4.54 156.26 -8.29 160.83 -11.98 165.48 C-15.1 169.37 -18.3 173.18 -21.5 177 C-23.82 179.78 -26.1 182.57 -28.38 185.38 C-31.87 189.66 -35.45 193.87 -39.06 198.06 C-43.84 203.61 -48.47 209.25 -53 215 C-57.84 221.13 -62.8 227.16 -67.86 233.11 C-71.57 237.47 -75.21 241.89 -78.82 246.33 C-80.28 248.11 -81.74 249.9 -83.21 251.67 C-89.86 259.73 -96.27 267.96 -102.49 276.35 C-103.28 277.41 -104.06 278.47 -104.88 279.56 C-105.57 280.51 -106.27 281.46 -106.99 282.44 C-108.86 284.82 -110.81 286.92 -113 289 C-111.65 285.45 -110.08 282.13 -108.28 278.79 C-107.74 277.8 -107.21 276.81 -106.66 275.79 C-106.38 275.27 -106.38 275.27 -104.94 272.62 C-104.64 272.09 -104.64 272.09 -103.16 269.35 C-100 263.55 -96.77 257.82 -93.31 252.19 C-89.58 246.1 -86.23 239.86 -82.93 233.53 C-79.76 227.42 -76.5 221.35 -73.19 215.31 C-72.69 214.4 -72.19 213.49 -71.68 212.56 C-70.65 210.68 -69.63 208.8 -68.6 206.92 C-54.08 180.38 -54.08 180.38 -48.96 169.94 C-47.14 166.24 -45.25 162.57 -43.32 158.92 C-42.84 158.02 -42.36 157.12 -41.87 156.2 C-40.96 154.48 -40.04 152.77 -39.12 151.06 C-34.93 143.17 -31.62 135.27 -28 127 C-49.45 127 -70.9 127 -93 127 C-91.55 124.1 -90.25 121.81 -88.38 119.23 C-87.86 118.52 -87.35 117.8 -86.81 117.06 C-86.25 116.3 -85.7 115.54 -85.12 114.75 C-84.55 113.96 -83.97 113.16 -83.38 112.34 C-79.03 106.37 -74.61 100.45 -70.17 94.54 C-66.81 90.09 -63.51 85.6 -60.24 81.09 C-51.43 68.96 -42.48 56.93 -33.47 44.95 C-30.48 40.97 -27.49 36.99 -24.51 33.01 C-21.96 29.61 -19.41 26.22 -16.86 22.82 C-15.82 21.45 -14.79 20.07 -13.75 18.69 C-13.25 18.03 -12.76 17.36 -12.24 16.68 C-8.57 11.79 -4.97 6.84 -1.43 1.84 C-1.19 1.54 -1.19 1.54 0 0 Z " fill="#FD8410" transform="translate(213,165)"/>
<path d="M0 0 C8.71 1.69 14.6 9.53 20 16 C20.8 16.93 21.61 17.86 22.44 18.81 C26.81 24.94 25.24 33.84 25.25 41.06 C25.25 41.83 25.25 42.6 25.26 43.39 C25.26 55.22 24.41 66.4 22 78 C21.64 80.27 21.28 82.54 20.94 84.81 C20.29 88.69 19.43 92.32 18 96 C17.34 96 16.68 96 16 96 C15.97 94.79 15.95 93.58 15.92 92.33 C15.54 79.86 13.8 68.14 11 56 C10.74 54.85 10.47 53.7 10.2 52.51 C9.47 49.34 8.74 46.17 8 43 C7.96 44.04 7.91 45.07 7.86 46.14 C7.69 50.07 7.5 54 7.31 57.93 C7.23 59.61 7.15 61.3 7.08 62.98 C6.45 77.53 4.83 91.57 0.31 105.5 C0.06 106.29 -0.19 107.08 -0.45 107.89 C-3.17 116.02 -6.88 123.5 -11 131 C-11.57 132.06 -12.13 133.11 -12.71 134.2 C-18.44 144.5 -25.71 153.71 -33.62 162.41 C-35 164 -35 164 -37 167 C-37.66 167 -38.32 167 -39 167 C-38.84 166.44 -38.68 165.88 -38.52 165.3 C-36.75 158.91 -35.07 152.49 -33.44 146.06 C-33.23 145.25 -33.02 144.44 -32.8 143.61 C-32.16 141.08 -31.57 138.55 -31 136 C-30.81 135.16 -30.61 134.31 -30.42 133.44 C-28.41 123.33 -28.61 113.08 -28.62 102.81 C-28.62 101.84 -28.62 100.86 -28.62 99.86 C-28.64 84.56 -29.56 69.96 -33 55 C-33.27 53.83 -33.53 52.66 -33.81 51.46 C-34.53 48.31 -35.26 45.15 -36 42 C-36 42.58 -35.99 43.16 -35.99 43.76 C-35.94 49.88 -35.91 55.99 -35.89 62.11 C-35.88 64.39 -35.87 66.66 -35.85 68.93 C-35.65 95.39 -37.22 117.88 -55 139 C-55.45 139.59 -55.89 140.18 -56.35 140.79 C-60.88 146.59 -66.89 150.97 -73 155 C-73.66 155 -74.32 155 -75 155 C-73.87 151.2 -72.39 147.78 -70.62 144.25 C-61.34 123.61 -60.48 97.29 -68 76 C-68.41 74.8 -68.82 73.6 -69.24 72.36 C-70.9 67.78 -72.47 63.44 -75.38 59.5 C-77 57 -77 57 -76.86 54.83 C-75.7 51 -73.87 47.68 -71.94 44.19 C-71.56 43.49 -71.18 42.8 -70.79 42.09 C-69.87 40.39 -68.94 38.69 -68 37 C-67.34 37 -66.68 37 -66 37 C-64.99 38.77 -63.99 40.54 -63 42.31 C-62.44 43.3 -61.89 44.28 -61.31 45.3 C-60 48 -60 48 -60 51 C-59.01 51 -58.02 51 -57 51 C-57 50.34 -57 49.68 -57 49 C-55.6 47.7 -55.6 47.7 -53.62 46.12 C-45.35 39.08 -38.71 30.2 -33 21 C-29.06 21.58 -26.87 23.53 -23.88 26.06 C-19.21 30 -19.21 30 -17 30 C-15.86 28.43 -15.86 28.43 -14.61 26.23 C-14.15 25.43 -13.69 24.63 -13.22 23.8 C-12.73 22.94 -12.25 22.08 -11.75 21.19 C-11.26 20.32 -10.77 19.46 -10.26 18.57 C-6.77 12.42 -3.32 6.24 0 0 Z " fill="#E76D06" transform="translate(403,218)"/>
<path d="M0 0 C21.78 0 43.56 0 66 0 C64.36 4.11 62.5 7.84 60.38 11.69 C57.48 17.03 54.85 22.42 52.44 28 C48.11 37.97 43.34 47.73 38.59 57.5 C37.94 58.83 37.29 60.16 36.64 61.49 C36.33 62.14 36.01 62.78 35.69 63.45 C32.63 69.73 29.65 76.05 26.7 82.38 C25.42 85.13 24.12 87.8 22.54 90.39 C21 93 21 93 19.85 95.64 C18.49 98.54 17.22 100.69 15 103 C10.64 104.39 6.48 104.17 1.95 103.98 C0.69 103.96 -0.57 103.95 -1.86 103.93 C-5.19 103.89 -8.51 103.8 -11.84 103.69 C-15.23 103.58 -18.63 103.54 -22.03 103.49 C-28.69 103.39 -35.34 103.19 -42 103 C-42 88.48 -42 73.96 -42 59 C-29.06 58.75 -29.06 58.75 -25.04 58.7 C-18.03 58.5 -11.98 57.91 -6 54 C-0.27 47.56 -0.84 39.52 -0.68 31.35 C-0.66 30.55 -0.65 29.75 -0.63 28.93 C-0.56 25.97 -0.5 23.02 -0.44 20.06 C-0.29 13.44 -0.15 6.82 0 0 Z " fill="#035D21" transform="translate(103,303)"/>
<path d="M0 0 C0.33 0 0.66 0 1 0 C1 1.65 1 3.3 1 5 C5.46 5.08 9.92 5.13 14.39 5.16 C15.9 5.18 17.41 5.2 18.92 5.23 C28.76 5.39 37.43 4.62 47 2 C50.8 1.09 54.31 0.87 58.22 0.87 C59.4 0.87 60.58 0.86 61.79 0.86 C62.4 0.87 62.4 0.87 65.5 0.88 C66.72 0.87 67.95 0.87 69.21 0.86 C70.39 0.86 71.57 0.87 72.78 0.87 C73.85 0.87 74.93 0.87 76.03 0.87 C78.8 0.99 81.31 1.37 84 2 C81 4 81 4 77.56 4.31 C74 6 74 6 72.8 8.81 C72.13 11.13 71.5 13.46 70.89 15.8 C69.09 22.28 65.41 26.18 60 30 C56.38 31.32 53.07 31.99 49.25 32.5 C46 33 46 33 43 35 C42.67 35.99 42.34 36.98 42 38 C42.66 38.16 42.66 38.16 46 39 C46 39.99 46 40.98 46 42 C52.27 42.99 58.54 43.98 65 45 C61.32 48.68 61.32 48.68 58 49 C57.34 48.34 56.68 47.68 56 47 C48.91 45.86 41.86 45.85 34.69 45.88 C34.16 45.87 34.16 45.87 31.5 45.86 C14.8 45.88 -1.78 46.84 -14.26 59.25 C-19.51 64.97 -19.51 64.97 -21.04 68.15 C-22 70 -22 70 -25 72 C-25.33 72.99 -25.66 73.98 -26 75 C-26.99 74.67 -27.98 74.34 -29 74 C-33.28 61.98 -34.18 47.21 -28.85 35.46 C-23.59 25.13 -15.85 15 -6.38 8.19 C-5.81 7.77 -5.24 7.35 -4.65 6.92 C-3 6 -3 6 0 6 C0 4.02 0 2.04 0 0 Z " fill="#FC8513" transform="translate(257,124)"/>
<path d="M0 0 C0.33 0 0.66 0 1 0 C2.75 7.27 3.3 14.14 3.27 21.61 C3.27 22.15 3.27 22.15 3.27 24.89 C3.27 27.16 3.27 29.44 3.26 31.72 C3.25 35.16 3.26 38.6 3.27 42.04 C3.29 67.41 0.97 88.84 -16 109 C-16.45 109.59 -16.89 110.18 -17.35 110.79 C-21.88 116.59 -27.89 120.97 -34 125 C-34.66 125 -35.32 125 -36 125 C-34.87 121.2 -33.39 117.78 -31.62 114.25 C-22.34 93.61 -21.48 67.29 -29 46 C-29.41 44.8 -29.82 43.6 -30.24 42.36 C-31.9 37.78 -33.47 33.44 -36.38 29.5 C-38 27 -38 27 -37.86 24.83 C-36.7 21 -34.87 17.68 -32.94 14.19 C-32.56 13.49 -32.18 12.8 -31.79 12.09 C-30.87 10.39 -29.94 8.69 -29 7 C-28.34 7 -27.68 7 -27 7 C-25.99 8.77 -24.99 10.54 -24 12.31 C-23.44 13.3 -22.89 14.28 -22.31 15.3 C-21 18 -21 18 -21 21 C-20.01 21 -19.02 21 -18 21 C-18 20.34 -18 19.68 -18 19 C-16.6 17.7 -16.6 17.7 -14.62 16.12 C-10.27 12.46 -6.79 8.33 -3.24 3.91 C-2.18 2.59 -1.09 1.29 0 0 Z " fill="#9B1A02" transform="translate(364,248)"/>
<path d="M0 0 C0.6 0 0.6 0 3.62 0 C8.61 0.03 13.25 0.07 18.12 1.19 C15.12 3.19 15.12 3.19 11.69 3.5 C8.12 5.19 8.12 5.19 6.92 8 C6.26 10.32 5.62 12.65 5.01 14.98 C3.18 21.59 -0.62 25.19 -5.88 29.19 C-10.79 31.65 -18.49 30.97 -23.88 30.19 C-29.12 28.08 -32.62 25.42 -34.88 20.19 C-35.54 20.19 -36.19 20.19 -36.88 20.19 C-37.39 19.59 -37.91 18.99 -38.44 18.38 C-41.83 15.33 -45.54 14.41 -49.88 13.19 C-49.88 12.53 -49.88 11.87 -49.88 11.19 C-33.47 3.79 -18.13 -0.19 0 0 Z " fill="#0E1312" transform="translate(322.875,124.8125)"/>
<path d="M0 0 C0.9 -0.01 1.79 -0.01 2.72 -0.02 C7.53 0.04 11.48 0.45 16 2.31 C15.34 2.64 14.68 2.97 14 3.31 C14 3.97 14 4.63 14 5.31 C14.85 5.58 15.69 5.85 16.56 6.12 C20.14 7.36 23.54 8.79 27 10.31 C21.68 13.73 15.05 12.42 9 12.31 C9 20.56 9 28.81 9 37.31 C8.67 37.31 8.34 37.31 8 37.31 C8 29.06 8 20.81 8 12.31 C4.39 12.19 0.78 12.06 -2.94 11.94 C-13.04 11.55 -22.99 10.71 -33 9.31 C-33 8.65 -33 7.99 -33 7.31 C-22.59 1.28 -11.82 0.05 0 0 Z " fill="#FB830F" transform="translate(292,172.6875)"/>
<path d="M0 0 C3.3 0 6.6 0 10 0 C10.49 9.16 10.49 9.16 8.25 13 C4.2 16.6 1.52 17.41 -4.04 17.25 C-7.84 16.76 -10.09 14.84 -12.81 12.31 C-14.6 8.82 -14.19 5.89 -14 2 C-11.36 1.67 -8.72 1.34 -6 1 C-5.67 3.31 -5.34 5.62 -5 8 C-3.35 8 -1.7 8 0 8 C0.66 6.02 1.32 4.04 2 2 C1.34 2 0.68 2 0 2 C0 1.34 0 0.68 0 0 Z " fill="#E98E0D" transform="translate(310,132)"/>
<path d="M0 0 C0.33 0.66 0.66 1.32 1 2 C2.85 2.41 2.85 2.41 5.06 2.62 C6.36 2.75 7.66 2.87 9 3 C7.98 6.63 6.3 8.93 3.81 11.66 C0.18 15.75 -3.15 20.01 -6.44 24.38 C-10.07 29.17 -13.72 33.95 -17.5 38.62 C-20.49 42.32 -23.29 46.1 -26 50 C-26 46.22 -24.52 43.84 -22.75 40.62 C-22.58 40.3 -22.58 40.3 -21.69 38.67 C-18 31.9 -14.15 25.21 -10.31 18.53 C-6.79 12.4 -3.33 6.24 0 0 Z " fill="#FB8519" transform="translate(127,404)"/>
<path d="M0 0 C0.66 0.33 1.32 0.66 2 1 C-0.22 3.91 -1.93 5.95 -5 8 C-5.33 8.5 -5.33 8.5 -7 11 C-9.38 13.61 -10.61 14.87 -14 16 C-14 16.99 -14 17.98 -14 19 C-13.01 19.33 -12.02 19.66 -11 20 C-11.66 20 -12.32 20 -13 20 C-13.14 20.3 -13.14 20.3 -13.88 21.81 C-15 24 -15 24 -17 27 C-18.65 26.67 -20.3 26.34 -22 26 C-22.33 27.16 -22.33 27.16 -24 33 C-24.66 33 -25.32 33 -26 33 C-26.33 41.25 -26.66 49.5 -27 58 C-30.48 51.04 -30.11 41.45 -27.81 33.98 C-22.13 20.1 -12.3 8.44 0 0 Z " fill="#D77C1C" transform="translate(254,130)"/>
<path d="M0 0 C0.9 -0.01 1.79 -0.01 2.72 -0.02 C7.53 0.04 11.48 0.45 16 2.31 C15.34 2.64 14.68 2.97 14 3.31 C13.67 3.97 13.34 4.63 13 5.31 C13 4.65 13 3.99 13 3.31 C12.42 3.51 11.84 3.7 11.24 3.9 C9.63 4.44 8.01 4.98 6.39 5.51 C4.46 6.16 2.54 6.83 0.62 7.5 C-2 8.31 -2 8.31 -5 8.31 C-4.34 6.66 -3.68 5.01 -3 3.31 C-4.32 4.3 -5.64 5.29 -7 6.31 C-7.33 5.32 -7.66 4.33 -8 3.31 C-15.54 2.82 -21.06 4.41 -28 7.31 C-27.01 7.97 -26.02 8.63 -25 9.31 C-27.64 9.31 -30.28 9.31 -33 9.31 C-33 8.65 -33 7.99 -33 7.31 C-22.59 1.28 -11.82 0.05 0 0 Z M-10 6.31 C-7 7.31 -7 7.31 -7 7.31 Z " fill="#E17C19" transform="translate(292,172.6875)"/>
<path d="M0 0 C3.92 -0.06 7.83 -0.09 11.75 -0.12 C12.84 -0.14 13.93 -0.16 15.06 -0.18 C22.57 -0.22 29.63 0.52 37 2 C35 5 35 5 32.69 5.55 C31.8 5.61 30.91 5.68 30 5.75 C29.11 5.83 28.23 5.9 27.31 5.98 C25 6 25 6 23 5 C21.26 4.85 19.52 4.75 17.77 4.68 C16.74 4.64 15.71 4.6 14.65 4.56 C13.57 4.52 12.49 4.48 11.38 4.44 C10.29 4.39 9.2 4.35 8.08 4.31 C5.39 4.2 2.69 4.1 0 4 C-0.33 3.34 -0.66 2.68 -1 2 C-0.67 1.34 -0.34 0.68 0 0 Z " fill="#13100F" transform="translate(279,169)"/>
<path d="M0 0 C1.32 0 2.64 0 4 0 C3.58 4.85 1.33 6.8 -2 10 C-3.34 11.34 -4.68 12.69 -6.01 14.04 C-10.15 18.22 -14.3 22.39 -18.45 26.56 C-20.24 28.36 -22.03 30.16 -23.81 31.96 C-26.39 34.57 -28.98 37.17 -31.57 39.77 C-32.37 40.58 -33.17 41.39 -33.99 42.22 C-34.74 42.97 -35.48 43.71 -36.25 44.48 C-36.9 45.14 -37.56 45.79 -38.23 46.47 C-40 48 -40 48 -43 49 C-41.58 45.79 -39.88 43.63 -37.41 41.15 C-36.67 40.41 -35.94 39.67 -35.18 38.91 C-34.39 38.12 -33.6 37.33 -32.78 36.52 C-31.97 35.7 -31.15 34.88 -30.32 34.04 C-28.6 32.32 -26.87 30.61 -25.15 28.89 C-22.5 26.25 -19.87 23.61 -17.23 20.96 C-15.56 19.29 -13.89 17.62 -12.22 15.95 C-11.82 15.55 -11.82 15.55 -9.82 13.54 C-9.45 13.17 -9.45 13.17 -7.59 11.33 C-6.94 10.69 -6.3 10.04 -5.63 9.38 C-4 8 -4 8 -2 8 C-1.67 7.01 -1.34 6.02 -1 5 C0.29 3.63 1.62 2.29 3 1 C2.01 0.67 1.02 0.34 0 0 Z " fill="#2E653C" transform="translate(289,247)"/>
<path d="M0 0 C0 0.66 0 1.32 0 2 C0.78 2.14 1.57 2.29 2.38 2.44 C5 3 5 3 7 4 C6.67 5.32 6.34 6.64 6 8 C-2.05 8.15 -9.98 7.71 -18 7 C-18 6.01 -18 5.02 -18 4 C-16.8 3.9 -15.61 3.79 -14.38 3.69 C-9.08 3.05 -5.33 0 0 0 Z " fill="#FC820A" transform="translate(305,176)"/>
<path d="M0 0 C2.31 0.66 4.62 1.32 7 2 C1.68 5.41 -4.95 4.11 -11 4 C-11 12.25 -11 20.5 -11 29 C-11.33 29 -11.66 29 -12 29 C-12 20.75 -12 12.5 -12 4 C-23.56 3.56 -23.56 3.56 -27.17 3.43 C-32.51 3.22 -37.72 2.9 -43 2 C-43 1.67 -43 1.34 -43 1 C-33.61 0.91 -24.35 0.93 -14.99 1.78 C-10.33 2.12 -5.67 2.08 -1 2 C-0.67 1.34 -0.34 0.68 0 0 Z " fill="#C07530" transform="translate(312,181)"/>
<path d="M0 0 C2.63 2.63 2.86 4.77 3.69 8.38 C3.96 9.52 4.23 10.66 4.51 11.84 C4.96 14.73 4.99 16.3 4 19 C3.67 18.67 3.34 18.34 3 18 C2.67 28.23 2.34 38.46 2 49 C1.67 49 1.34 49 1 49 C0.36 32.66 -0.17 16.35 0 0 Z " fill="#30130E" transform="translate(366,258)"/>
<path d="M0 0 C3.3 0 6.6 0 10 0 C10.25 9.62 10.25 9.62 8 13 C6.35 13 4.7 13 3 13 C3 9.7 3 6.4 3 3 C2.01 2.67 1.02 2.34 0 2 C0 1.34 0 0.68 0 0 Z " fill="#F9A523" transform="translate(310,132)"/>
<path d="M0 0 C-2.13 2.45 -3.71 3.68 -7 4 C-7.66 3.34 -8.32 2.68 -9 2 C-11.8 1.59 -11.8 1.59 -15.32 1.37 C-15.95 1.33 -15.95 1.33 -19.13 1.11 C-20.46 1.03 -21.79 0.95 -23.12 0.88 C-24.46 0.79 -25.8 0.7 -27.14 0.61 C-30.43 0.4 -33.71 0.2 -37 0 C-37 -0.33 -37 -0.66 -37 -1 C-33.71 -1.2 -30.42 -1.38 -27.12 -1.56 C-26.21 -1.62 -25.29 -1.67 -24.34 -1.73 C-16.06 -2.17 -8.16 -1.5 0 0 Z " fill="#CE7624" transform="translate(322,169)"/>
<path d="M0 0 C0.66 0.33 1.32 0.66 2 1 C2 3.97 2 6.94 2 10 C2.99 10.33 3.98 10.66 5 11 C1.23 14.94 1.23 14.94 -1.95 15.1 C-3.96 15.07 -5.98 15.03 -8 15 C-8 14.67 -8 14.34 -8 14 C-5.36 13.34 -2.72 12.68 0 12 C-1.98 11.01 -3.96 10.02 -6 9 C-6 8.34 -6 7.68 -6 7 C-5.2 6.77 -4.39 6.55 -3.56 6.31 C-2.72 5.88 -1.87 5.45 -1 5 C-0.19 2.38 -0.19 2.38 0 0 Z " fill="#DC8811" transform="translate(312,134)"/>
<path d="M0 0 C0.33 0.66 0.66 1.32 1 2 C0.8 2.29 0.8 2.29 -0.24 3.76 C-4.79 10.34 -4.79 10.34 -6.12 14.44 C-7 17 -7 17 -9 18.19 C-9.66 18.46 -10.32 18.72 -11 19 C-11.66 19.99 -12.32 20.98 -13 22 C-13.66 22 -14.32 22 -15 22 C-13.73 18.48 -12.26 15.74 -9.96 12.79 C-9.38 12.04 -8.8 11.29 -8.2 10.52 C-7.9 10.13 -7.9 10.13 -6.38 8.19 C-5.76 7.4 -5.15 6.61 -4.52 5.8 C-3.02 3.86 -1.51 1.93 0 0 Z " fill="#FB8926" transform="translate(161,235)"/>
<path d="M0 0 C-2.88 2.88 -5.56 2.76 -9.51 3.11 C-12 3 -12 3 -15.12 1.06 C-15.74 0.38 -16.36 -0.3 -17 -1 C-11.25 -2.48 -5.04 -3.36 0 0 Z " fill="#211D18" transform="translate(316,172)"/>
<path d="M0 0 C-1 3 -1 3 -3.12 4.56 C-7.29 8.1 -9.99 12.47 -13 17 C-13.44 17.65 -13.88 18.31 -14.34 18.98 C-15.23 20.32 -16.12 21.66 -17 23 C-18 20 -18 20 -16.96 17.73 C-5.9 0 -5.9 0 0 0 Z " fill="#673F06" transform="translate(246,136)"/>
<path d="M0 0 C0.66 0.33 1.32 0.66 2 1 C-0.22 3.91 -1.93 5.95 -5 8 C-5.33 8.5 -5.33 8.5 -7 11 C-8.31 12.35 -9.64 13.69 -11 15 C-12.32 14.34 -13.64 13.68 -15 13 C-14.11 12.28 -13.23 11.56 -12.31 10.81 C-10.21 9.07 -8.31 7.31 -6.38 5.38 C-4.34 3.34 -2.34 1.65 0 0 Z " fill="#EC891D" transform="translate(254,130)"/>
<path d="M0 0 C3.37 -0.06 6.75 -0.09 10.12 -0.12 C11.08 -0.14 12.03 -0.16 13.01 -0.18 C18.09 -0.21 22.24 -0.03 27 2 C26.67 2.16 26.67 2.16 25 3 C24.67 3.66 24.34 4.32 24 5 C24 4.34 24 3.68 24 3 C21.03 3.66 18.06 4.32 15 5 C15.33 4.34 15.66 3.68 16 3 C10.72 2.34 5.44 1.68 0 1 C0 0.67 0 0.34 0 0 Z " fill="#C7701D" transform="translate(281,173)"/>
<path d="M0 0 C2.31 0.33 4.62 0.66 7 1 C7 1.99 7 2.98 7 4 C7.66 4 8.32 4 9 4 C9 4.99 9 5.98 9 7 C5.88 6.51 3 6 0 5 C0 3.35 0 1.7 0 0 Z M9 2 C9.99 2.33 10.98 2.66 12 3 C11.01 3.33 10.02 3.66 9 4 C9 3.34 9 2.68 9 2 Z " fill="#EA811E" transform="translate(254,148)"/>
<path d="M0 0 C0.33 0 0.66 0 1 0 C1.6 3.32 1.38 5.39 -0.42 8.26 C-3.39 12.09 -6.53 15.61 -10 19 C-8.4 14.61 -6.22 10.71 -3.88 6.69 C-3.5 6.04 -3.13 5.4 -2.75 4.73 C-1.83 3.15 -0.92 1.58 0 0 Z " fill="#F88B31" transform="translate(110,435)"/>
<path d="M0 0 C0.33 0.66 0.66 1.32 1 2 C2.05 2.12 3.1 2.25 4.19 2.38 C8.62 3.1 10.48 4.34 14 7 C13.67 7.66 13.34 8.32 13 9 C11.12 8.69 11.12 8.69 9 8 C8.34 7.01 7.68 6.02 7 5 C6.01 5.33 5.02 5.66 4 6 C3.31 8.06 3.31 8.06 3 10 C2.34 9.67 1.68 9.34 1 9 C0.59 6.93 0.59 6.93 0.38 4.44 C0.3 3.61 0.23 2.78 0.15 1.93 C0.1 1.3 0.05 0.66 0 0 Z " fill="#F8841B" transform="translate(272,136)"/>
<path d="M0 0 C0.33 0 0.66 0 1 0 C1.39 1.62 1.76 3.25 2.12 4.88 C2.33 5.78 2.54 6.68 2.76 7.62 C2.84 8.4 2.92 9.19 3 10 C2.34 10.66 1.68 11.32 1 12 C0.34 11.67 -0.32 11.34 -1 11 C-1 9.68 -1 8.36 -1 7 C-2.65 7.33 -4.3 7.66 -6 8 C-5.02 6.66 -4.04 5.33 -3.06 4 C-2.52 3.26 -1.97 2.51 -1.41 1.75 C-0.94 1.17 -0.48 0.59 0 0 Z " fill="#851A05" transform="translate(364,248)"/>
<path d="M0 0 C2 3 2 3 2 5 C1.01 5 0.02 5 -1 5 C-1.08 5.87 -1.16 6.73 -1.25 7.62 C-2.11 11.51 -3.55 13.89 -6 17 C-6.66 17 -7.32 17 -8 17 C-6.33 10.84 -3.12 5.52 0 0 Z " fill="#FA8E36" transform="translate(175,314)"/>
<path d="M0 0 C0.33 0 0.66 0 1 0 C1 2.31 1 4.62 1 7 C1.66 7 2.32 7 3 7 C1.63 9.95 0.12 12.52 -2 15 C-2.66 15 -3.32 15 -4 15 C-3.8 14.25 -3.59 13.5 -3.38 12.73 C-3.11 11.75 -2.84 10.76 -2.56 9.75 C-2.3 8.78 -2.03 7.8 -1.75 6.8 C-1.14 4.54 -0.56 2.27 0 0 Z " fill="#C66C19" transform="translate(368,370)"/>
<path d="M0 0 C1.32 1.32 2.64 2.64 4 4 C3.81 7 3.81 7 3 10 C2.91 10.39 2.91 10.39 2.44 12.38 C2.29 12.91 2.15 13.45 2 14 C1.34 14 0.68 14 0 14 C0 9.38 0 4.76 0 0 Z " fill="#A85D17" transform="translate(419,300)"/>
<path d="M0 0 C0.9 0.01 1.8 0.02 2.73 0.03 C3.42 0.04 4.1 0.05 4.81 0.06 C1.88 2.57 -0.1 3.47 -3.94 3.75 C-4.74 3.82 -5.54 3.88 -6.36 3.95 C-6.96 3.99 -7.57 4.02 -8.19 4.06 C-8.19 3.07 -8.19 2.08 -8.19 1.06 C-5.17 0.06 -3.15 -0.04 0 0 Z " fill="#F28520" transform="translate(282.1875,129.9375)"/>
<path d="M0 0 C0 0.33 0 0.66 0 1 C-0.97 0.98 -1.94 0.96 -2.94 0.94 C-8.76 1.68 -12.31 6.85 -16 11 C-16.66 10.67 -17.32 10.34 -18 10 C-12.68 2.84 -8.98 -0.77 0 0 Z " fill="#D7D7D7" transform="translate(264,185)"/>
<path d="M0 0 C0.99 0.33 1.98 0.66 3 1 C5.23 1.22 7.46 1.41 9.69 1.56 C10.87 1.65 12.05 1.73 13.26 1.82 C13.71 1.85 13.71 1.85 16 2 C16 2.33 16 2.66 16 3 C15.2 3.06 14.41 3.12 13.59 3.18 C3.06 4.02 3.06 4.02 -2 5 C-2 4.01 -2 3.02 -2 2 C-1.34 2 -0.68 2 0 2 C0 1.34 0 0.68 0 0 Z " fill="#DC7B1A" transform="translate(263,167)"/>
<path d="M0 0 C0.33 0.16 0.33 0.16 2 1 C2 2.98 2 4.96 2 7 C2.66 7.33 3.32 7.66 4 8 C4 8.99 4 9.98 4 11 C4.62 10.79 5.24 10.59 5.88 10.38 C6.23 10.31 6.23 10.31 8 10 C8.66 10.66 9.32 11.32 10 12 C9.34 12 8.68 12 8 12 C8 12.66 8 13.32 8 14 C5.29 13.12 3.32 12.28 1.19 10.38 C-0.58 6.84 -0.2 3.93 0 0 Z " fill="#D98918" transform="translate(296,134)"/>
<path d="M0 0 C1 3 1 3 -0.31 5.69 C-0.87 6.45 -1.43 7.21 -2 8 C-2.66 8 -3.32 8 -4 8 C-4.66 9.65 -5.32 11.3 -6 13 C-6.99 12.67 -7.98 12.34 -9 12 C-6 8 -3 4 0 0 Z " fill="#D58032" transform="translate(241,200)"/>
<path d="M0 0 C0.66 0.33 1.32 0.66 2 1 C-0.31 4.63 -2.62 8.26 -5 12 C-6.32 11.34 -7.64 10.68 -9 10 C-8.76 9.76 -8.76 9.76 -7.54 8.57 C-6.91 7.95 -6.28 7.33 -5.62 6.69 C-5.31 6.38 -5.31 6.38 -3.73 4.82 C-2 3 -2 3 0 0 Z " fill="#BDBEBE" transform="translate(319,418)"/>
<path d="M0 0 C-2.13 2.45 -3.71 3.68 -7 4 C-7.66 3.34 -8.32 2.68 -9 2 C-11.62 1.38 -11.62 1.38 -14 1 C-14 0.67 -14 0.34 -14 0 C-8.98 -1.13 -5.02 -0.78 0 0 Z " fill="#E78A39" transform="translate(322,169)"/>
<path d="M0 0 C0.66 0.66 1.32 1.32 2 2 C-0.97 4.97 -3.94 7.94 -7 11 C-7.66 10.67 -8.32 10.34 -9 10 C-6.03 6.7 -3.06 3.4 0 0 Z " fill="#296939" transform="translate(165,390)"/>
<path d="M0 0 C0.99 0 1.98 0 3 0 C2.67 3.3 2.34 6.6 2 10 C1.01 10.33 0.02 10.66 -1 11 C-0.67 7.37 -0.34 3.74 0 0 Z " fill="#FC9C10" transform="translate(314,134)"/>
<path d="M0 0 C3.3 0 6.6 0 10 0 C10.37 9.55 10.37 9.55 8.49 11.82 C8.24 12.02 8.24 12.02 7 13 C7.14 12.32 7.29 11.64 7.44 10.94 C8.07 7.64 8.54 4.33 9 1 C7.51 1.16 7.51 1.16 0 2 C0 1.34 0 0.68 0 0 Z " fill="#B87A0D" transform="translate(310,132)"/>
<path d="M0 0 C3.99 0.61 6.74 2.71 10 5 C9.67 5.16 9.67 5.16 8 6 C7.01 5.67 6.02 5.34 5 5 C5 4.34 5 3.68 5 3 C2.69 3.66 0.38 4.32 -2 5 C-1.34 3.35 -0.68 1.7 0 0 Z " fill="#CF6814" transform="translate(403,218)"/>
<path d="M0 0 C0.66 0.33 1.32 0.66 2 1 C2 2.98 2 4.96 2 7 C-1.09 8.76 -2.23 9 -6 9 C-6 8.34 -6 7.68 -6 7 C-5.6 6.89 -5.6 6.89 -3.56 6.31 C-2.72 5.88 -1.87 5.45 -1 5 C-0.19 2.38 -0.19 2.38 0 0 Z " fill="#C17810" transform="translate(312,134)"/>
<path d="M0 0 C0.33 0 0.66 0 1 0 C1.03 2.06 1.05 4.12 1.06 6.19 C1.07 7.34 1.09 8.48 1.1 9.67 C1.01 12.59 0.68 15.16 0 18 C-2.61 14.17 -1.86 11.17 -1.12 6.75 C-0.92 5.49 -0.72 4.22 -0.51 2.92 C-0.34 1.96 -0.17 0.99 0 0 Z " fill="#C06216" transform="translate(408,285)"/>
<path d="M0 0 C3.96 0 7.92 0 12 0 C10.68 1.65 9.36 3.3 8 5 C7.67 4.01 7.34 3.02 7 2 C4.69 1.67 2.38 1.34 0 1 C0 0.67 0 0.34 0 0 Z M5 5 C8 6 8 6 8 6 Z " fill="#F5851A" transform="translate(277,174)"/>
<path d="M0 0 C0.33 1.32 0.66 2.64 1 4 C0.34 4 -0.32 4 -1 4 C-1.06 4.6 -1.12 5.2 -1.19 5.81 C-2.32 8.87 -4.17 9.55 -7 11 C-5.22 6.96 -2.6 3.54 0 0 Z " fill="#F68D31" transform="translate(213,165)"/>
<path d="M0 0 C0.33 0.66 0.66 1.32 1 2 C0.67 2.66 0.34 3.32 0 4 C1.65 4 3.3 4 5 4 C2.24 6.76 -0.21 6.58 -4 7 C-2.8 4.51 -1.55 2.32 0 0 Z " fill="#4B4C4E" transform="translate(307,439)"/>
<path d="M0 0 C0.7 0.19 1.4 0.37 2.12 0.56 C5.34 1.05 7.84 0.66 11 0 C7.73 2.18 4.62 3.5 1 5 C0.84 4.18 0.84 4.18 0 0 Z " fill="#EE851C" transform="translate(248,172)"/>
<path d="M0 0 C0.65 1.73 0.65 1.73 1 4 C0 6.14 0 6.14 -1.44 8.25 C-1.91 8.96 -2.38 9.66 -2.87 10.39 C-3.24 10.92 -3.62 11.45 -4 12 C-5 9 -5 9 -4 6.74 C-3.53 5.94 -3.05 5.14 -2.56 4.31 C-2.09 3.5 -1.62 2.7 -1.13 1.86 C-0.76 1.25 -0.38 0.63 0 0 Z " fill="#513206" transform="translate(233,147)"/>
<path d="M0 0 C4.16 -0.08 7.95 0.02 12 1 C8.81 3.13 6.73 3.5 3 4 C3 3.01 3 2.02 3 1 C2.01 0.67 1.02 0.34 0 0 Z " fill="#333537" transform="translate(329,125)"/>
<path d="M0 0 C0 4.11 -1.42 5.87 -4 9 C-6.75 9.38 -6.75 9.38 -9 9 C-6 6 -3 3 0 0 Z " fill="#BFC0C0" transform="translate(273,425)"/>
<path d="M0 0 C0.66 0.33 1.32 0.66 2 1 C0.02 4.96 -1.96 8.92 -4 13 C-4.66 11.68 -5.32 10.36 -6 9 C-5.57 8.63 -5.13 8.26 -4.69 7.88 C-2.54 5.49 -1.35 2.9 0 0 Z " fill="#DD7216" transform="translate(396,336)"/>
<path d="M0 0 C0.99 0.33 1.98 0.66 3 1 C4.18 3.94 4.03 4.9 3 8 C2.01 7.67 1.02 7.34 0 7 C0 4.69 0 2.38 0 0 Z " fill="#CC751B" transform="translate(228,191)"/>
<path d="M0 0 C1.32 0.33 2.64 0.66 4 1 C2.84 1.99 2.84 1.99 -3 7 C-3.33 6.01 -3.66 5.02 -4 4 C-2.68 3.34 -1.36 2.68 0 2 C0 1.34 0 0.68 0 0 Z " fill="#E8801C" transform="translate(241,180)"/>
<path d="M0 0 C3.91 1.16 6.87 2.36 10 5 C9.67 5.66 9.34 6.32 9 7 C7.12 6.69 7.12 6.69 5 6 C4.34 5.01 3.68 4.02 3 3 C0.88 1.81 0.88 1.81 -1 1 C-0.67 0.67 -0.34 0.34 0 0 Z " fill="#D5791E" transform="translate(276,138)"/>
<path d="M0 0 C0 1.65 0 3.3 0 5 C-2.31 4.67 -4.62 4.34 -7 4 C-7 3.34 -7 2.68 -7 2 C-2.25 0 -2.25 0 0 0 Z " fill="#342113" transform="translate(280,134)"/>
<path d="M0 0 C0.33 0.66 0.66 1.32 1 2 C-0.49 2.16 -0.49 2.16 -8 3 C-8 2.34 -8 1.68 -8 1 C-5.29 -0.35 -2.99 -0.07 0 0 Z " fill="#FA9915" transform="translate(312,145)"/>
<path d="M0 0 C0.66 0.99 1.32 1.98 2 3 C0.02 5.64 -1.96 8.28 -4 11 C-4 7.8 -3.45 6.58 -2 3.81 C-1.63 3.1 -1.26 2.38 -0.88 1.64 C-0.73 1.37 -0.73 1.37 0 0 Z " fill="#F3975F" transform="translate(105,443)"/>
<path d="M0 0 C3.96 0.33 7.92 0.66 12 1 C12 1.33 12 1.66 12 2 C8.27 2.57 4.79 3 1 3 C0.67 2.01 0.34 1.02 0 0 Z " fill="#CD792B" transform="translate(298,154)"/>
<path d="M0 0 C0.66 0.33 1.32 0.66 2 1 C0.68 2.65 -0.64 4.3 -2 6 C-3.32 5.34 -4.64 4.68 -6 4 C-4.02 2.68 -2.04 1.36 0 0 Z " fill="#DD821E" transform="translate(254,130)"/>
<path d="M0 0 C2.74 3.2 4.63 6 6 10 C5.34 10 4.68 10 4 10 C3.67 9.01 3.34 8.02 3 7 C2.48 6.53 1.97 6.05 1.44 5.56 C0 4 0 4 0 0 Z " fill="#C96E17" transform="translate(220,198)"/>
<path d="M0 0 C0.33 0 0.66 0 1 0 C1 1.65 1 3.3 1 5 C0.34 5 -0.32 5 -1 5 C-1 6.98 -1 8.96 -1 11 C-1.33 11 -1.66 11 -2 11 C-2.05 9.54 -2.09 8.08 -2.12 6.62 C-2.14 6.22 -2.14 6.22 -2.2 4.16 C-2 2 -2 2 0 0 Z " fill="#EF8216" transform="translate(229,180)"/>
<path d="M0 0 C0.33 0 0.66 0 1 0 C0.67 2.31 0.34 4.62 0 7 C-0.66 7 -1.32 7 -2 7 C-2.33 7.99 -2.66 8.98 -3 10 C-2.25 3.38 -2.25 3.38 0 0 Z " fill="#DC7F1A" transform="translate(230,156)"/>
<path d="M0 0 C0.82 0.16 0.82 0.16 5 1 C5 1.99 5 2.98 5 4 C3.35 3.67 1.7 3.34 0 3 C0 2.01 0 1.02 0 0 Z " fill="#43290C" transform="translate(255,148)"/>
<path d="M0 0 C0.33 0.66 0.66 1.32 1 2 C-0.81 5 -0.81 5 -3 8 C-3.99 8 -4.98 8 -6 8 C-4.02 5.36 -2.04 2.72 0 0 Z " fill="#FA8E34" transform="translate(161,235)"/>
<path d="M0 0 C0.99 0.33 1.98 0.66 3 1 C2.34 3.31 1.68 5.62 1 8 C-1 6 -1 6 -1.19 3.44 C-1 1 -1 1 0 0 Z " fill="#FB8006" transform="translate(296,155)"/>
</svg>
