<?xml version="1.0" encoding="UTF-8"?>
<!-- Generator: visioncortex VTracer 0.6.5 -->
<svg version="1.1" xmlns="http://www.w3.org/2000/svg" width="512" height="512">
<path d="M0 0 C168.96 0 337.92 0 512 0 C512 168.96 512 337.92 512 512 C343.04 512 174.08 512 0 512 C0 343.04 0 174.08 0 0 Z " fill="#000000" transform="translate(0,0)"/>
<path d="M0 0 C0.79 -0.02 1.59 -0.03 2.41 -0.05 C3.26 -0.05 4.11 -0.06 4.99 -0.06 C5.43 -0.07 5.43 -0.07 7.67 -0.09 C9.54 -0.11 11.42 -0.12 13.29 -0.12 C16.14 -0.13 18.98 -0.18 21.83 -0.23 C23.65 -0.24 25.48 -0.25 27.3 -0.25 C27.72 -0.26 27.72 -0.26 29.85 -0.31 C35.48 -0.27 38.68 0.92 43.11 4.43 C43.4 4.57 43.4 4.57 44.91 5.31 C47.33 4.43 49.01 3.23 51.09 1.71 C55.1 -0.28 58.66 -0.14 63.08 -0.13 C63.53 -0.13 63.53 -0.13 65.76 -0.14 C67.63 -0.15 69.5 -0.15 71.36 -0.14 C74.2 -0.13 77.04 -0.16 79.88 -0.19 C81.7 -0.19 83.52 -0.19 85.33 -0.19 C85.75 -0.2 85.75 -0.2 87.88 -0.22 C95.02 -0.14 100.11 1.73 105.38 6.59 C107.39 10.17 107.37 12.7 107.3 16.79 C107.29 17.5 107.29 18.2 107.28 18.93 C107.26 21.16 107.21 23.39 107.16 25.62 C107.14 27.14 107.12 28.66 107.1 30.18 C107.06 33.89 106.99 37.6 106.91 41.31 C107.58 40.9 108.26 40.49 108.95 40.07 C109.84 39.53 110.73 38.99 111.65 38.44 C112.53 37.9 113.41 37.37 114.31 36.82 C118.07 34.63 121.86 32.88 125.91 31.31 C126.43 31.1 126.43 31.1 129.07 30.06 C153.83 21 180.63 22.13 206.45 25.04 C208.76 25.29 211.07 25.5 213.38 25.71 C224.2 26.74 235.44 28.93 243.59 36.65 C244.99 38.41 245.7 39.98 246.53 42.06 C248.95 47.57 254.04 50.5 258.73 53.95 C276.17 66.88 289.13 88.98 295.91 109.31 C296.05 110.95 296.13 112.6 296.16 114.24 C296.18 115.1 296.21 115.95 296.24 116.83 C295.91 119.31 295.91 119.31 294.27 121.06 C292.63 123.77 292.88 124.34 293.57 127.35 C294.01 129 294.45 130.65 294.91 132.31 C295.33 134.12 295.73 135.94 296.13 137.77 C296.34 138.72 296.55 139.68 296.76 140.66 C308.13 193.69 301.82 248.49 275.1 296.24 C274.66 297.03 274.22 297.82 273.77 298.63 C270.47 304.45 266.98 310 262.91 315.31 C262.6 315.71 262.6 315.71 261.02 317.78 C254.79 325.73 248.07 333.18 240.91 340.31 C240.1 341.15 239.3 341.98 238.47 342.85 C220.43 361.47 196.71 375.76 171.91 383.31 C170.24 383.86 168.57 384.43 166.91 384.99 C162.74 386.41 159.02 387.45 154.6 387.43 C153.88 387.43 153.16 387.44 152.42 387.44 C149.91 387.31 149.91 387.31 146.63 386.62 C141.95 386.23 138.97 387.39 134.72 389.18 C129.08 391.46 124.26 393.39 118.14 393.52 C117.23 393.55 116.32 393.57 115.39 393.6 C113.49 393.66 111.6 393.7 109.71 393.74 C109.25 393.75 109.25 393.75 106.95 393.83 C106.13 393.85 105.3 393.87 104.45 393.89 C101.91 394.31 101.91 394.31 99.19 395.81 C94.82 397.8 91.1 397.76 86.35 397.74 C85.44 397.75 84.53 397.75 83.59 397.76 C81.67 397.76 79.76 397.76 77.84 397.75 C74.92 397.74 72 397.77 69.07 397.8 C67.21 397.81 65.34 397.81 63.47 397.8 C62.6 397.81 61.73 397.82 60.84 397.84 C55.26 397.77 52.49 396.71 47.91 393.31 C43.91 393.31 43.91 393.31 40.76 395.27 C36.34 397.93 32.31 397.89 27.25 397.84 C26.34 397.84 25.43 397.85 24.5 397.85 C22.59 397.85 20.68 397.84 18.77 397.83 C15.85 397.81 12.94 397.83 10.02 397.85 C8.16 397.85 6.3 397.85 4.44 397.84 C3.57 397.85 2.7 397.85 1.81 397.86 C-3.64 397.78 -6.77 396.93 -11.09 393.31 C-15.18 388.55 -15.82 384.36 -16.09 378.31 C-16.68 379.03 -17.27 379.76 -17.88 380.5 C-19.51 382.49 -21.14 384.48 -22.77 386.47 C-24.08 388.06 -25.37 389.67 -26.63 391.3 C-29.15 394.56 -31.04 396.36 -35.09 397.31 C-39.83 397.76 -42.08 397.81 -46.34 395.68 C-50.67 391.95 -52.81 389.22 -53.66 383.48 C-53.53 376.27 -49.15 370.27 -45.59 364.24 C-44.87 362.99 -44.14 361.73 -43.42 360.46 C-41.67 357.4 -39.88 354.35 -38.09 351.31 C-39.27 351.3 -40.45 351.29 -41.67 351.28 C-46.06 351.24 -50.46 351.17 -54.85 351.1 C-56.75 351.07 -58.65 351.05 -60.55 351.04 C-63.28 351.01 -66.02 350.97 -68.75 350.92 C-69.18 350.92 -69.18 350.92 -71.31 350.91 C-76.68 350.78 -79.95 350.03 -84.09 346.31 C-88.6 340.43 -88.72 335.22 -88.73 327.97 C-88.74 326.89 -88.75 325.8 -88.76 324.69 C-88.78 322.41 -88.78 320.13 -88.78 317.86 C-88.78 314.38 -88.84 310.91 -88.9 307.44 C-88.91 305.22 -88.91 303 -88.92 300.78 C-88.93 300.26 -88.93 300.26 -88.99 297.66 C-88.9 290.96 -87.51 287.54 -82.79 282.75 C-73.57 274.91 -62.67 279.76 -49.09 279.31 C-49.09 225.85 -49.09 172.39 -49.09 117.31 C-52.87 116.55 -55.84 116.18 -59.62 116.13 C-60.66 116.11 -61.7 116.08 -62.77 116.06 C-64.94 116.02 -67.11 115.98 -69.28 115.96 C-75.51 115.8 -79.33 115.45 -84.09 111.31 C-84.69 110.79 -85.29 110.28 -85.9 109.74 C-88.23 106.92 -88.24 103.98 -88.33 100.49 C-88.36 99.51 -88.38 98.53 -88.41 97.52 C-88.49 93.05 -88.56 88.58 -88.61 84.1 C-88.64 81.75 -88.69 79.39 -88.75 77.03 C-88.84 73.63 -88.88 70.23 -88.91 66.82 C-88.95 65.77 -88.98 64.73 -89.02 63.65 C-89 56.49 -89 56.49 -86.36 53.07 C-81.39 48.59 -77.77 47.18 -71.06 47.19 C-69.82 47.19 -68.58 47.19 -67.3 47.19 C-65.94 47.2 -64.59 47.2 -63.24 47.21 C-61.85 47.21 -60.46 47.21 -59.08 47.21 C-55.43 47.22 -51.79 47.23 -48.14 47.24 C-44.42 47.25 -40.7 47.25 -36.98 47.26 C-29.69 47.27 -22.39 47.29 -15.09 47.31 C-15.13 46.23 -15.16 45.15 -15.2 44.04 C-15.33 40 -15.41 35.97 -15.48 31.94 C-15.51 30.2 -15.56 28.46 -15.62 26.72 C-16.18 10.4 -16.18 10.4 -11.81 5.24 C-8.27 2.01 -4.84 0.07 0 0 Z " fill="#060F13" transform="translate(155.0908203125,56.693603515625)"/>
<path d="M0 0 C0.79 -0.02 1.59 -0.03 2.41 -0.05 C3.26 -0.05 4.11 -0.06 4.99 -0.06 C5.43 -0.07 5.43 -0.07 7.67 -0.09 C9.54 -0.11 11.42 -0.12 13.29 -0.12 C16.14 -0.13 18.98 -0.18 21.83 -0.23 C23.65 -0.24 25.48 -0.25 27.3 -0.25 C27.72 -0.26 27.72 -0.26 29.85 -0.31 C35.48 -0.27 38.68 0.92 43.11 4.43 C43.4 4.57 43.4 4.57 44.91 5.31 C47.33 4.43 49.01 3.23 51.09 1.71 C55.1 -0.28 58.66 -0.14 63.08 -0.13 C63.53 -0.13 63.53 -0.13 65.76 -0.14 C67.63 -0.15 69.5 -0.15 71.36 -0.14 C74.2 -0.13 77.04 -0.16 79.88 -0.19 C81.7 -0.19 83.52 -0.19 85.33 -0.19 C85.75 -0.2 85.75 -0.2 87.88 -0.22 C95.02 -0.14 100.11 1.73 105.38 6.59 C107.39 10.17 107.37 12.7 107.3 16.79 C107.29 17.5 107.29 18.2 107.28 18.93 C107.26 21.16 107.21 23.39 107.16 25.62 C107.14 27.14 107.12 28.66 107.1 30.18 C107.06 33.89 106.99 37.6 106.91 41.31 C107.58 40.9 108.26 40.49 108.95 40.07 C109.84 39.53 110.73 38.99 111.65 38.44 C112.53 37.9 113.41 37.37 114.31 36.82 C118.07 34.63 121.86 32.88 125.91 31.31 C126.43 31.1 126.43 31.1 129.07 30.06 C153.83 21 180.63 22.13 206.45 25.04 C208.76 25.29 211.07 25.5 213.38 25.71 C224.2 26.74 235.44 28.93 243.59 36.65 C244.99 38.41 245.7 39.98 246.53 42.06 C248.95 47.57 254.04 50.5 258.73 53.95 C276.17 66.88 289.13 88.98 295.91 109.31 C296.05 110.95 296.13 112.6 296.16 114.24 C296.18 115.1 296.21 115.95 296.24 116.83 C295.91 119.31 295.91 119.31 294.27 121.06 C292.63 123.77 292.88 124.34 293.57 127.35 C294.01 129 294.45 130.65 294.91 132.31 C295.33 134.12 295.73 135.94 296.13 137.77 C296.34 138.72 296.55 139.68 296.76 140.66 C308.13 193.69 301.82 248.49 275.1 296.24 C274.66 297.03 274.22 297.82 273.77 298.63 C270.47 304.45 266.98 310 262.91 315.31 C262.6 315.71 262.6 315.71 261.02 317.78 C254.79 325.73 248.07 333.18 240.91 340.31 C240.1 341.15 239.3 341.98 238.47 342.85 C220.43 361.47 196.71 375.76 171.91 383.31 C170.24 383.86 168.57 384.43 166.91 384.99 C162.74 386.41 159.02 387.45 154.6 387.43 C153.88 387.43 153.16 387.44 152.42 387.44 C149.91 387.31 149.91 387.31 146.63 386.62 C141.95 386.23 138.97 387.39 134.72 389.18 C129.08 391.46 124.26 393.39 118.14 393.52 C117.23 393.55 116.32 393.57 115.39 393.6 C113.49 393.66 111.6 393.7 109.71 393.74 C109.25 393.75 109.25 393.75 106.95 393.83 C106.13 393.85 105.3 393.87 104.45 393.89 C101.91 394.31 101.91 394.31 99.19 395.81 C94.82 397.8 91.1 397.76 86.35 397.74 C85.44 397.75 84.53 397.75 83.59 397.76 C81.67 397.76 79.76 397.76 77.84 397.75 C74.92 397.74 72 397.77 69.07 397.8 C67.21 397.81 65.34 397.81 63.47 397.8 C62.6 397.81 61.73 397.82 60.84 397.84 C55.26 397.77 52.49 396.71 47.91 393.31 C43.91 393.31 43.91 393.31 40.76 395.27 C36.34 397.93 32.31 397.89 27.25 397.84 C26.34 397.84 25.43 397.85 24.5 397.85 C22.59 397.85 20.68 397.84 18.77 397.83 C15.85 397.81 12.94 397.83 10.02 397.85 C8.16 397.85 6.3 397.85 4.44 397.84 C3.57 397.85 2.7 397.85 1.81 397.86 C-3.64 397.78 -6.77 396.93 -11.09 393.31 C-15.18 388.55 -15.82 384.36 -16.09 378.31 C-16.68 379.03 -17.27 379.76 -17.88 380.5 C-19.51 382.49 -21.14 384.48 -22.77 386.47 C-24.08 388.06 -25.37 389.67 -26.63 391.3 C-29.15 394.56 -31.04 396.36 -35.09 397.31 C-39.83 397.76 -42.08 397.81 -46.34 395.68 C-50.67 391.95 -52.81 389.22 -53.66 383.48 C-53.53 376.27 -49.15 370.27 -45.59 364.24 C-44.87 362.99 -44.14 361.73 -43.42 360.46 C-41.67 357.4 -39.88 354.35 -38.09 351.31 C-39.27 351.3 -40.45 351.29 -41.67 351.28 C-46.06 351.24 -50.46 351.17 -54.85 351.1 C-56.75 351.07 -58.65 351.05 -60.55 351.04 C-63.28 351.01 -66.02 350.97 -68.75 350.92 C-69.18 350.92 -69.18 350.92 -71.31 350.91 C-76.68 350.78 -79.95 350.03 -84.09 346.31 C-88.6 340.43 -88.72 335.22 -88.73 327.97 C-88.74 326.89 -88.75 325.8 -88.76 324.69 C-88.78 322.41 -88.78 320.13 -88.78 317.86 C-88.78 314.38 -88.84 310.91 -88.9 307.44 C-88.91 305.22 -88.91 303 -88.92 300.78 C-88.93 300.26 -88.93 300.26 -88.99 297.66 C-88.9 290.96 -87.51 287.54 -82.79 282.75 C-73.57 274.91 -62.67 279.76 -49.09 279.31 C-49.09 225.85 -49.09 172.39 -49.09 117.31 C-52.87 116.55 -55.84 116.18 -59.62 116.13 C-60.66 116.11 -61.7 116.08 -62.77 116.06 C-64.94 116.02 -67.11 115.98 -69.28 115.96 C-75.51 115.8 -79.33 115.45 -84.09 111.31 C-84.69 110.79 -85.29 110.28 -85.9 109.74 C-88.23 106.92 -88.24 103.98 -88.33 100.49 C-88.36 99.51 -88.38 98.53 -88.41 97.52 C-88.49 93.05 -88.56 88.58 -88.61 84.1 C-88.64 81.75 -88.69 79.39 -88.75 77.03 C-88.84 73.63 -88.88 70.23 -88.91 66.82 C-88.95 65.77 -88.98 64.73 -89.02 63.65 C-89 56.49 -89 56.49 -86.36 53.07 C-81.39 48.59 -77.77 47.18 -71.06 47.19 C-69.82 47.19 -68.58 47.19 -67.3 47.19 C-65.94 47.2 -64.59 47.2 -63.24 47.21 C-61.85 47.21 -60.46 47.21 -59.08 47.21 C-55.43 47.22 -51.79 47.23 -48.14 47.24 C-44.42 47.25 -40.7 47.25 -36.98 47.26 C-29.69 47.27 -22.39 47.29 -15.09 47.31 C-15.13 46.23 -15.16 45.15 -15.2 44.04 C-15.33 40 -15.41 35.97 -15.48 31.94 C-15.51 30.2 -15.56 28.46 -15.62 26.72 C-16.18 10.4 -16.18 10.4 -11.81 5.24 C-8.27 2.01 -4.84 0.07 0 0 Z M131.6 44.56 C130.85 44.86 130.1 45.16 129.32 45.47 C123.05 48.08 117.38 51.26 111.91 55.31 C111.28 55.75 110.65 56.2 110.01 56.66 C104.8 60.7 101.22 66.02 97.38 71.31 C94.38 75.39 91.29 79.41 88.22 83.43 C87.53 84.34 86.84 85.24 86.13 86.18 C82.27 91.24 78.38 96.27 74.46 101.28 C68.71 108.61 63.15 116.05 57.73 123.63 C53.55 129.46 49.23 135.16 44.86 140.84 C40.18 146.92 35.62 153.09 31.08 159.28 C27.32 164.4 23.54 169.49 19.72 174.56 C15.05 180.77 10.43 187.03 5.84 193.31 C3.69 196.25 1.52 199.19 -0.65 202.12 C-18.09 225.72 -18.09 225.72 -18.09 227.31 C2.37 227.31 22.83 227.31 43.91 227.31 C41.6 231.93 39.29 236.55 36.91 241.31 C35.46 244.36 34.02 247.42 32.6 250.49 C28.48 259.25 24.06 267.8 19.49 276.33 C17.64 279.82 15.79 283.31 13.95 286.81 C6.89 300.21 -0.25 313.54 -7.76 326.69 C-10.68 331.79 -13.53 336.92 -16.28 342.12 C-19.17 347.58 -22.1 353.02 -25.09 358.43 C-25.3 358.81 -25.3 358.81 -26.36 360.72 C-29.63 366.59 -33.13 372.27 -36.79 377.9 C-37 378.3 -37 378.3 -38.09 380.31 C-37.76 380.97 -37.43 381.63 -37.09 382.31 C-36.35 381.31 -35.61 380.32 -34.85 379.3 C-25.87 367.26 -16.69 355.41 -7.13 343.82 C-5.26 341.51 -3.45 339.17 -1.65 336.81 C0.96 333.41 3.75 330.26 6.66 327.12 C10.96 322.45 14.91 317.59 18.8 312.58 C22.6 307.68 26.53 302.92 30.51 298.17 C32.83 295.4 35.12 292.61 37.41 289.81 C41.39 284.93 45.41 280.1 49.44 275.28 C52.53 271.56 55.58 267.82 58.64 264.08 C61 261.2 63.39 258.35 65.78 255.49 C68.91 251.76 71.95 247.99 74.92 244.14 C80.06 237.48 85.5 231.25 91.28 225.15 C93.91 222.31 93.91 222.31 96.04 219.62 C97.72 217.54 99.33 215.98 101.41 214.31 C105.28 211.01 108.72 207.42 112.16 203.68 C112.41 203.41 112.41 203.41 113.7 202.01 C116.56 198.87 119.29 195.66 121.91 192.31 C115.61 191.18 109.45 191.18 103.07 191.21 C102.51 191.21 102.51 191.21 99.67 191.21 C96.1 191.22 92.54 191.23 88.97 191.24 C86.55 191.25 84.12 191.25 81.7 191.26 C75.77 191.27 69.84 191.29 63.91 191.31 C68.13 184.93 72.36 178.57 76.85 172.37 C80.94 166.68 84.95 160.94 88.92 155.17 C90.57 152.79 92.26 150.45 93.97 148.12 C95.91 145.31 95.91 145.31 95.91 143.31 C96.57 143.31 97.23 143.31 97.91 143.31 C98.15 142.6 98.38 141.89 98.62 141.17 C101.12 135.61 105.3 131.22 109.91 127.31 C113.25 126.13 115.31 126.13 118.91 126.31 C118.48 127.13 118.04 127.96 117.6 128.81 C115.91 132.31 115.91 132.31 114.72 135.99 C112.81 141.16 109.53 145.2 106.23 149.55 C103.57 153.1 101 156.71 98.41 160.31 C92.23 168.89 92.23 168.89 89.3 172.84 C88.57 173.82 87.84 174.8 87.1 175.81 C86.47 176.64 85.85 177.48 85.2 178.34 C83.91 180.31 83.91 180.31 83.91 182.31 C84.19 182.31 84.19 182.31 85.63 182.33 C91.59 182.42 97.54 182.52 103.5 182.62 C105.71 182.66 107.93 182.7 110.15 182.73 C113.35 182.77 116.55 182.83 119.75 182.89 C120.73 182.9 121.71 182.92 122.72 182.93 C127.97 183.04 132.76 183.52 137.84 184.88 C140.24 185.37 142.47 185.37 144.91 185.31 C140.42 190.54 135.79 195.57 130.91 200.44 C130.27 201.08 129.63 201.72 128.97 202.38 C127.63 203.72 126.29 205.06 124.95 206.4 C122.91 208.43 120.88 210.47 118.85 212.51 C117.53 213.82 116.22 215.13 114.91 216.44 C114.31 217.04 113.71 217.64 113.1 218.26 C109.19 222.14 105.13 225.76 100.91 229.31 C101.91 232.31 101.91 232.31 103.76 233.45 C104.15 233.63 104.15 233.63 106.1 234.56 C112.18 237.79 116.97 242.51 119.43 249.11 C121.92 260.58 119.18 269.44 113.16 279.12 C104.47 287.57 92.7 293.43 80.47 293.43 C78.93 293.4 77.39 293.35 75.85 293.3 C74.15 293.28 72.45 293.26 70.74 293.25 C68.1 293.23 65.47 293.18 62.83 293.08 C47.33 292.55 47.33 292.55 42.62 296.86 C40 299.76 37.97 302.99 35.91 306.31 C34.43 308.18 32.94 310.04 31.41 311.87 C30.68 312.76 29.95 313.66 29.2 314.58 C25.99 318.4 22.62 322.08 19.25 325.76 C16.73 328.5 14.27 331.28 11.88 334.14 C9.91 336.31 9.91 336.31 7.4 338.45 C2.1 343.29 -0.61 346.72 -1.04 353.88 C-1.09 357.93 -0.93 361.95 -0.72 365.99 C-0.67 367.68 -0.62 369.36 -0.58 371.05 C-0.48 375.14 -0.28 379.21 -0.09 383.31 C11.13 383.31 22.35 383.31 33.91 383.31 C33.91 367.47 33.91 351.63 33.91 335.31 C41.83 335.31 49.75 335.31 57.91 335.31 C57.91 351.15 57.91 366.99 57.91 383.31 C69.46 383.31 81.01 383.31 92.91 383.31 C93.24 380.67 93.57 378.03 93.91 375.31 C94.5 375.1 95.1 374.89 95.71 374.68 C106.83 370.54 115.86 363.86 124.91 356.31 C123.62 359.03 122.19 361.44 120.41 363.87 C119.94 364.52 119.46 365.17 118.97 365.84 C118.48 366.51 117.98 367.18 117.47 367.87 C116.98 368.54 116.49 369.21 115.99 369.91 C112.25 374.98 112.25 374.98 110.24 376.9 C108.91 378.31 108.91 378.31 108.91 380.31 C114.21 380.53 118.8 379.83 123.85 378.31 C124.21 378.2 124.21 378.2 126.07 377.64 C142.31 372.51 156.26 363.74 167.91 351.31 C168.57 350.65 169.23 349.99 169.91 349.31 C168.35 351.85 166.79 354.39 165.22 356.93 C164.79 357.64 164.35 358.36 163.9 359.09 C161.8 362.48 159.69 365.68 157.08 368.7 C154.91 371.31 154.91 371.31 154.91 373.31 C177.49 368.1 198.63 357.42 216.91 343.31 C217.76 342.65 218.61 342 219.48 341.33 C222.13 339.13 224.5 336.77 226.91 334.31 C227.91 333.32 228.92 332.34 229.92 331.36 C242.08 319.46 251.72 306.59 260.91 292.31 C261.23 291.81 261.23 291.81 262.87 289.28 C265.71 284.72 267.95 280.16 269.85 275.13 C270.89 272.37 272 269.65 273.12 266.92 C278.23 254.44 282.16 241.51 284.91 228.31 C285.09 227.45 285.27 226.59 285.46 225.7 C287.27 215.8 287.25 205.92 287.22 195.88 C287.22 192.91 287.25 189.93 287.27 186.96 C287.32 171.86 287.15 155.64 281.91 141.31 C281.68 139.85 281.47 138.39 281.28 136.93 C279.84 129.13 275.59 122.24 271.91 115.31 C271.58 114.65 271.25 113.99 270.91 113.31 C274.54 113.97 278.17 114.63 281.91 115.31 C278.3 102.66 271.96 90.68 263.91 80.31 C263.58 79.87 263.58 79.87 261.93 77.64 C254.75 68.36 245.91 60.47 235.91 54.31 C235.25 54.31 234.59 54.31 233.91 54.31 C234.03 53.23 234.16 52.16 234.28 51.06 C233.91 47.31 233.91 47.31 231.72 45.06 C216.33 36.76 194.54 38.12 177.54 38.01 C175.94 38 174.33 37.98 172.73 37.96 C158.54 37.82 144.85 39.08 131.6 44.56 Z " fill="#F8F8F7" transform="translate(155.0908203125,56.693603515625)"/>
<path d="M0 0 C11.55 0 23.1 0 35 0 C35 15.51 35 31.02 35 47 C42.92 47 50.84 47 59 47 C59 31.49 59 15.98 59 0 C70.55 0 82.1 0 94 0 C94.16 6.55 94.3 13.09 94.38 19.64 C94.42 21.87 94.47 24.09 94.53 26.32 C94.61 29.52 94.65 32.73 94.68 35.94 C94.72 36.92 94.76 37.91 94.79 38.93 C94.8 44.27 94.26 47.31 90.67 51.38 C89.45 52.6 88.23 53.8 87 55 C85.81 56.62 84.66 58.27 83.57 59.95 C83 60.82 82.43 61.69 81.85 62.58 C81.28 63.46 80.71 64.34 80.12 65.25 C78.4 67.91 76.66 70.56 74.86 73.17 C73 76 73 76 71.26 79.32 C66.59 87.24 66.59 87.24 61.94 88.61 C55.95 89.49 49.96 89.09 43.94 88.75 C42.1 88.69 40.26 88.63 38.42 88.59 C33.94 88.45 29.47 88.25 25 88 C25.01 88.98 25.01 89.96 25.02 90.97 C25.03 94.69 25.05 98.41 25.05 102.13 C25.06 103.72 25.07 105.32 25.08 106.91 C25.1 111.54 25.09 116.16 25.02 120.78 C25.01 122.24 25 123.69 25.01 125.14 C25.06 137.62 25.06 137.62 20.87 142.32 C20.24 142.92 19.61 143.52 18.96 144.13 C16.81 146.18 15.22 148.33 13.54 150.77 C12.97 151.59 12.4 152.41 11.81 153.26 C11.24 154.1 10.66 154.94 10.06 155.81 C8.83 157.59 7.6 159.37 6.37 161.14 C5.79 161.98 5.21 162.83 4.6 163.69 C1.48 168.18 -1.76 172.59 -5 177 C-10.58 184.63 -16.05 192.33 -21.46 200.09 C-23.09 202.44 -24.73 204.78 -26.38 207.12 C-26.91 207.9 -27.45 208.67 -28 209.46 C-28.5 210.18 -29.01 210.9 -29.52 211.63 C-29.98 212.28 -30.43 212.93 -30.9 213.6 C-31.26 214.06 -31.62 214.52 -32 215 C-32.33 215 -32.66 215 -33 215 C-33 214.42 -33 213.84 -33.01 213.24 C-33.07 199.1 -33.14 184.96 -33.24 170.82 C-33.28 163.99 -33.32 157.15 -33.35 150.31 C-33.37 143.71 -33.41 137.11 -33.46 130.51 C-33.48 127.99 -33.49 125.47 -33.5 122.96 C-33.51 119.43 -33.54 115.9 -33.57 112.37 C-33.57 111.34 -33.56 110.3 -33.56 109.23 C-33.64 103.14 -34.36 98.52 -37 93 C-43.91 86.87 -53.18 87.77 -61.94 87.44 C-63.76 87.37 -63.76 87.37 -73 87 C-73 73.8 -73 60.6 -73 47 C-48.91 47 -24.82 47 0 47 C0 31.49 0 15.98 0 0 Z " fill="#035E21" transform="translate(154,71)"/>
<path d="M0 0 C19.26 12.39 31.51 28.03 37.24 50.36 C40.46 65.75 39.68 80.09 35 95 C34.71 95.94 34.42 96.87 34.12 97.84 C27.47 116.67 9.88 129.28 -7.45 137.67 C-18.23 142.28 -28.34 144.19 -40 144.06 C-40.77 144.06 -41.55 144.05 -42.35 144.05 C-44.23 144.04 -46.12 144.02 -48 144 C-47.96 145.2 -47.93 146.4 -47.89 147.64 C-47.76 152.12 -47.64 156.6 -47.52 161.08 C-47.46 163.01 -47.41 164.95 -47.35 166.88 C-47.27 169.67 -47.19 172.46 -47.12 175.25 C-47.09 176.11 -47.07 176.96 -47.04 177.84 C-47.02 178.66 -47 179.48 -46.98 180.33 C-46.96 181.04 -46.94 181.75 -46.92 182.48 C-47.03 186 -47.56 189.5 -48 193 C-59.55 193 -71.1 193 -83 193 C-83 177.16 -83 161.32 -83 145 C-90.92 145 -98.84 145 -107 145 C-107 160.84 -107 176.68 -107 193 C-118.22 193 -129.44 193 -141 193 C-141.28 188.1 -141.52 183.23 -141.66 178.33 C-141.72 176.68 -141.8 175.02 -141.91 173.36 C-142.43 164.9 -142.71 158 -136.91 151.34 C-134.86 149.25 -132.74 147.28 -130.53 145.37 C-128.1 143.2 -125.99 140.8 -123.81 138.38 C-123.01 137.49 -122.2 136.6 -121.37 135.69 C-118.19 132.08 -115.17 128.36 -112.16 124.62 C-109.57 121.48 -106.87 118.46 -104.12 115.46 C-102 113 -102 113 -100.88 110.75 C-99.17 107.77 -97.8 106.04 -95 104 C-88.8 102.39 -82.09 102.97 -75.75 103.12 C-72.29 103.17 -68.82 103.19 -65.36 103.2 C-64.53 103.2 -63.7 103.2 -62.85 103.2 C-50.05 103.11 -38.06 98.44 -28.5 89.78 C-22.27 82.39 -20.57 74.04 -20.66 64.65 C-21.31 57.65 -24.19 52.33 -29.38 47.62 C-32.72 45.04 -36.27 42.98 -40 41 C-38.45 37.12 -36.05 35.05 -32.94 32.31 C-25.59 25.73 -18.65 18.74 -11.69 11.75 C-11.11 11.17 -10.54 10.6 -9.94 10 C-6.63 6.67 -3.31 3.34 0 0 Z " fill="#015D20" transform="translate(296,247)"/>
<path d="M0 0 C0.72 -0.01 1.43 -0.01 2.17 -0.02 C17.19 -0.07 32.17 1.6 46.5 6.38 C46.5 7.03 46.5 7.69 46.5 8.38 C40.75 11.38 40.75 11.38 38.5 11.38 C38.5 12.03 38.5 12.69 38.5 13.38 C39 13.42 39 13.42 41.54 13.66 C58.47 16.14 72.44 32.42 82.27 45.15 C85.22 49.13 88.06 53.06 90.5 57.38 C90.17 58.37 89.84 59.35 89.5 60.38 C88.79 59.92 88.07 59.46 87.34 58.98 C82.13 55.65 76.91 52.38 71.5 49.38 C71.95 49.97 72.39 50.56 72.86 51.18 C77.32 57.3 80.67 63.35 83.5 70.38 C83.92 71.37 84.34 72.36 84.78 73.38 C89.52 85.36 92.76 99.43 92.5 112.38 C87.92 110.96 83.66 109.14 79.38 107 C78.77 106.71 78.16 106.42 77.54 106.12 C73.87 104.3 71.31 102.31 68.5 99.38 C67.51 99.05 66.52 98.72 65.5 98.38 C65.38 99.38 65.27 100.38 65.14 101.41 C63.85 110.4 60.5 119.78 55.5 127.38 C50.6 126.85 47.32 125.37 43.12 122.81 C42.07 122.17 41.01 121.53 39.91 120.87 C39.12 120.38 38.32 119.88 37.5 119.38 C37.33 119.93 37.16 120.49 36.98 121.06 C33.47 132.13 27.95 140.54 20.5 149.38 C19.84 149.71 19.18 150.03 18.5 150.38 C17.33 148.09 16.16 145.79 15 143.5 C14.67 142.85 14.33 142.2 13.99 141.53 C11.5 136.6 11.5 136.6 11.5 134.38 C10.84 134.38 10.18 134.38 9.5 134.38 C9.24 134.94 8.97 135.51 8.7 136.1 C5.39 142.38 -0.12 149.96 -6.5 153.38 C-11.48 153.34 -15.01 148.58 -18.33 145.32 C-21.57 141.93 -23.31 139.45 -23.75 134.62 C-23.67 133.22 -23.58 131.82 -23.5 130.38 C-27.79 130.38 -32.08 130.38 -36.5 130.38 C-35.5 126.38 -35.5 126.38 -33.69 124.19 C-26.47 114.91 -25.2 104.31 -24.88 92.94 C-24.84 91.82 -24.8 90.71 -24.76 89.56 C-24.66 86.83 -24.58 84.11 -24.5 81.38 C-23.5 81.31 -22.5 81.25 -21.47 81.19 C-20.18 81.11 -18.89 81.02 -17.56 80.94 C-16.27 80.86 -14.99 80.78 -13.66 80.69 C-10.5 80.38 -10.5 80.38 -9.5 79.38 C-12.8 77.72 -16.1 76.07 -19.5 74.38 C-18.04 71.46 -16 71.06 -13.06 69.75 C-12.57 69.53 -12.57 69.53 -10.07 68.4 C-7.5 67.38 -7.5 67.38 -5.5 67.38 C-5.5 66.72 -5.5 66.06 -5.5 65.38 C-6.63 65.42 -7.77 65.46 -8.94 65.5 C-13.64 65.52 -17.96 64.55 -22.5 63.38 C-22.5 62.38 -22.5 61.4 -22.5 60.38 C-23.49 60.05 -24.48 59.72 -25.5 59.38 C-25.5 58.06 -25.5 56.74 -25.5 55.38 C-24.51 55.38 -23.52 55.38 -22.5 55.38 C-22.5 54.72 -22.5 54.06 -22.5 53.38 C-21.64 53.3 -20.79 53.23 -19.9 53.15 C-8.29 51.81 -8.29 51.81 -3.93 47.42 C0.02 41.78 2.34 35.12 3.5 28.38 C5.81 27.72 8.12 27.06 10.5 26.38 C-0.02 22.87 -14.53 24.41 -25.06 27.38 C-38.02 30.99 -52.17 29.71 -65.5 29.38 C-65.63 23.59 -64.88 21.62 -60.95 17.46 C-54.02 11.55 -45.62 7.19 -36.79 4.96 C-34.46 4.36 -32.26 3.58 -30 2.75 C-20.45 -0.42 -9.96 0.06 0 0 Z " fill="#FCFBFB" transform="translate(332.5,101.625)"/>
<path d="M0 0 C0.33 0 0.66 0 1 0 C1.1 1.15 1.2 2.3 1.3 3.48 C2.78 19.44 6.31 32.06 16 45 C16.66 45.33 17.32 45.66 18 46 C18.21 45.32 18.41 44.64 18.62 43.94 C20.83 39.23 24.35 35.65 28 32 C28 33.32 28 34.64 28 36 C27.34 36 26.68 36 26 36 C25.73 36.56 25.47 37.11 25.2 37.68 C21.35 45.14 16.36 51.95 11.39 58.69 C5.36 66.95 -0.33 75.49 -6 84 C-5.69 84 -5.69 84 -4.11 83.99 C2.39 83.97 8.9 83.96 15.41 83.95 C17.83 83.94 20.26 83.93 22.68 83.92 C26.17 83.91 29.67 83.91 33.16 83.9 C34.24 83.9 35.32 83.89 36.43 83.89 C41.73 83.89 46.78 84.07 52 85 C47.47 90.37 42.76 95.52 37.94 100.62 C37.24 101.36 36.55 102.1 35.83 102.86 C31.62 107.32 27.38 111.74 22.93 115.96 C17.28 121.39 12.53 127.26 7.76 133.45 C4.42 137.77 0.91 141.95 -2.6 146.14 C-4.92 148.91 -7.22 151.7 -9.5 154.5 C-13.48 159.37 -17.5 164.21 -21.54 169.04 C-23.85 171.82 -26.15 174.63 -28.44 177.44 C-31.66 181.39 -34.94 185.3 -38.25 189.19 C-42.49 194.17 -46.64 199.22 -50.75 204.31 C-54.53 208.99 -58.35 213.61 -62.34 218.11 C-68.37 225 -74 232.24 -79.63 239.46 C-82.67 243.34 -85.77 247.17 -88.9 250.98 C-95.29 258.75 -101.27 266.72 -107 275 C-107 270.75 -104.87 267.84 -102.81 264.25 C-102.37 263.46 -101.92 262.67 -101.46 261.85 C-99.98 259.23 -98.49 256.61 -97 254 C-94.91 250.33 -92.83 246.67 -90.75 243 C-90.21 242.04 -89.66 241.08 -89.1 240.1 C-83.73 230.59 -78.56 220.97 -73.4 211.34 C-70.78 206.45 -68.13 201.58 -65.46 196.72 C-59.23 185.39 -53.26 173.94 -47.33 162.44 C-44.86 157.65 -42.35 152.87 -39.82 148.11 C-35.25 139.53 -31.02 130.85 -27 122 C-26.67 121.34 -26.34 120.68 -26 120 C-46.46 120 -66.92 120 -88 120 C-83.5 112.13 -83.5 112.13 -81.44 109.45 C-80.98 108.84 -80.52 108.24 -80.04 107.61 C-79.55 106.98 -79.07 106.34 -78.56 105.69 C-74.08 99.79 -69.69 93.83 -65.38 87.81 C-60.91 81.6 -56.35 75.5 -51.65 69.46 C-47.78 64.45 -44.06 59.32 -40.31 54.22 C-36.57 49.12 -32.8 44.05 -29 39 C-24.57 33.11 -20.18 27.19 -15.81 21.25 C-13.54 18.17 -11.27 15.08 -9 12 C-8.51 11.34 -8.02 10.68 -7.52 9.99 C-6.25 8.26 -4.97 6.54 -3.69 4.81 C-2.99 3.87 -2.29 2.93 -1.57 1.96 C-1.05 1.31 -0.54 0.67 0 0 Z " fill="#FD8410" transform="translate(225,164)"/>
<path d="M0 0 C7.62 1.7 13.38 7.7 17.72 13.96 C28.32 30.8 25.24 54.32 21 73 C20.64 74.68 20.27 76.36 19.91 78.04 C18.97 82.37 17.99 86.69 17 91 C16.34 91 15.68 91 15 91 C14.99 89.92 14.97 88.84 14.96 87.72 C14.52 71.1 11.14 55.06 7 39 C7 39.86 6.99 40.73 6.99 41.62 C6.86 56.69 6.61 71.54 3.69 86.38 C3.49 87.39 3.29 88.41 3.08 89.46 C1.02 99.08 -2.28 108.13 -6.75 116.88 C-6.92 117.21 -6.92 117.21 -7.8 118.93 C-15.41 133.7 -25.05 146.57 -36 159 C-37.35 154.96 -36.21 153.22 -34.75 149.25 C-32.07 141.63 -30.28 133.98 -29 126 C-28.92 125.49 -28.92 125.49 -28.49 122.94 C-27.14 114.34 -26.61 105.95 -26.62 97.25 C-26.62 96.59 -26.62 95.93 -26.62 95.25 C-26.66 77.42 -29.48 60.23 -34 43 C-33.98 44.17 -33.97 45.35 -33.95 46.55 C-33.9 51 -33.86 55.45 -33.84 59.9 C-33.82 61.81 -33.8 63.72 -33.77 65.62 C-33.4 93.55 -37.26 116.7 -57.21 137.29 C-68.23 148 -68.23 148 -72 148 C-70.69 143.79 -69.05 139.99 -67.06 136.06 C-58.02 116.32 -57.83 90.11 -65.17 69.75 C-66.94 65.3 -68.85 61.12 -71.38 57.06 C-73 54 -73 54 -72.86 51.77 C-71.71 48.08 -69.91 44.99 -67.94 41.69 C-67.56 41.04 -67.18 40.4 -66.79 39.73 C-65.87 38.15 -64.94 36.58 -64 35 C-63.34 35 -62.68 35 -62 35 C-61.16 36.6 -60.33 38.21 -59.5 39.81 C-59.27 40.26 -59.27 40.26 -58.09 42.52 C-57 45 -57 45 -57 48 C-45.95 41.84 -38.93 31.24 -32 21 C-27.67 21.49 -25.1 22.27 -21.75 25.06 C-18.18 28 -18.18 28 -16 28 C-14.84 26.4 -14.84 26.4 -13.57 24.16 C-13.11 23.34 -12.64 22.53 -12.16 21.69 C-11.67 20.82 -11.19 19.95 -10.69 19.06 C-10.21 18.23 -9.74 17.4 -9.25 16.54 C-6.13 11.05 -3.06 5.53 0 0 Z " fill="#E76D06" transform="translate(405,214)"/>
<path d="M0 0 C20.46 0 40.92 0 62 0 C59.36 5.28 56.72 10.56 54 16 C51.76 21.4 51.76 21.4 50.87 23.74 C46.21 35.85 40.37 47.48 34.21 58.88 C31.57 63.77 29.1 68.75 26.65 73.74 C24.91 77.26 23.03 80.64 21 84 C20.76 84.57 20.76 84.57 19.56 87.44 C19.3 88.03 19.3 88.03 18 91 C17.55 92.05 17.11 93.1 16.65 94.19 C13.59 97.44 12.95 97.45 8.68 97.68 C6.46 97.68 4.24 97.65 2.02 97.59 C0.84 97.58 -0.33 97.57 -1.53 97.56 C-5.27 97.53 -9.01 97.45 -12.75 97.38 C-15.29 97.34 -17.82 97.32 -20.36 97.29 C-26.57 97.23 -32.78 97.11 -39 97 C-39 83.47 -39 69.94 -39 56 C-27 55.75 -27 55.75 -23.27 55.7 C-16.44 55.49 -11.79 54.7 -6 51 C-0.63 44.66 -0.84 37.79 -0.68 29.88 C-0.66 29.12 -0.65 28.36 -0.63 27.58 C-0.56 24.76 -0.5 21.94 -0.44 19.12 C-0.29 12.81 -0.15 6.5 0 0 Z " fill="#015C20" transform="translate(121,295)"/>
<path d="M0 0 C-3.44 2.3 -5.94 2.54 -10 3 C-10.03 3.56 -10.03 3.56 -10.19 6.38 C-11.23 14.44 -15.05 20.91 -21.35 25.94 C-24.61 28.04 -27.43 28.11 -31.19 28.06 C-32.09 28.05 -32.99 28.04 -33.92 28.04 C-34.61 28.02 -35.29 28.01 -36 28 C-36 28.66 -36 29.32 -36 30 C-36.99 30 -37.98 30 -39 30 C-38.62 31.94 -38.62 31.94 -38 34 C-37.34 34.33 -36.68 34.66 -36 35 C-36 35.99 -36 36.98 -36 38 C-30.39 38.66 -24.78 39.32 -19 40 C-19 40.66 -19 41.32 -19 42 C-22.01 42.93 -22.87 43.04 -26 42 C-28.99 41.89 -31.96 41.84 -34.95 41.83 C-35.39 41.83 -35.39 41.83 -37.63 41.82 C-39.5 41.82 -41.37 41.81 -43.25 41.81 C-46.09 41.81 -48.94 41.79 -51.78 41.78 C-53.61 41.77 -55.43 41.77 -57.26 41.77 C-57.68 41.77 -57.68 41.77 -59.81 41.75 C-68.33 41.78 -75.63 43.46 -83.25 47.25 C-84.41 47.81 -85.57 48.37 -86.77 48.95 C-90.45 51.28 -92.31 53.62 -95 57 C-95.66 57 -96.32 57 -97 57 C-97.15 57.39 -97.15 57.39 -97.94 59.38 C-99 62 -99 62 -100 64 C-100.99 64 -101.98 64 -103 64 C-103.66 65.65 -104.32 67.3 -105 69 C-109.97 59.87 -110.32 47.19 -109 37 C-107.82 33.26 -106.19 30.24 -104 27 C-103.4 25.99 -102.8 24.98 -102.19 23.94 C-95.87 15.46 -88.86 7.26 -79 3 C-75.76 2.72 -75.76 2.72 -72.27 2.85 C-70.98 2.88 -69.69 2.91 -68.37 2.94 C-67.69 2.96 -67.02 2.98 -66.33 3 C-47.63 3.54 -47.63 3.54 -38.56 1 C-26.51 -2.38 -12.26 -2.56 0 0 Z " fill="#FB8513" transform="translate(346,127)"/>
<path d="M0 0 C0.33 0 0.66 0 1 0 C3.38 10.31 3.34 20.56 3.32 31.09 C3.31 34.03 3.34 36.98 3.36 39.92 C3.45 67.06 -0.9 89.36 -20.21 109.29 C-31.23 120 -31.23 120 -35 120 C-33.69 115.79 -32.05 111.99 -30.06 108.06 C-21.02 88.32 -20.83 62.11 -28.17 41.75 C-29.94 37.3 -31.85 33.12 -34.38 29.06 C-36 26 -36 26 -35.86 23.77 C-34.71 20.08 -32.91 16.99 -30.94 13.69 C-30.56 13.04 -30.18 12.4 -29.79 11.73 C-28.87 10.15 -27.94 8.58 -27 7 C-26.34 7 -25.68 7 -25 7 C-24.16 8.6 -23.33 10.21 -22.5 11.81 C-22.04 12.71 -21.57 13.6 -21.09 14.52 C-20 17 -20 17 -20 20 C-11.58 15.37 -5.31 7.88 0 0 Z " fill="#9B1A02" transform="translate(368,242)"/>
<path d="M0 0 C-3.44 2.3 -5.94 2.54 -10 3 C-10.03 3.56 -10.03 3.56 -10.19 6.38 C-11.23 14.44 -15.05 20.91 -21.35 25.94 C-26.06 28.96 -31.64 28.4 -37 28 C-43.06 26.25 -47.74 22.59 -52 18 C-52 17.34 -52 16.68 -52 16 C-52.68 15.73 -53.36 15.46 -54.06 15.19 C-57.4 13.84 -60.7 12.42 -64 11 C-58 3.47 -41.27 0.35 -32.32 -0.8 C-21.86 -1.71 -10.32 -2.19 0 0 Z " fill="#111413" transform="translate(346,127)"/>
<path d="M0 0 C5.33 2.04 9.77 4.15 13 9 C13.68 14.47 13.75 19.42 11.38 24.44 C5.05 31.26 -1.62 35.89 -11 37 C-14.13 37.11 -17.25 37.09 -20.38 37.06 C-20.79 37.06 -20.79 37.06 -22.89 37.05 C-24.93 37.04 -26.96 37.02 -29 37 C-27.28 32.77 -24.29 29.69 -21.31 26.31 C-17.3 21.69 -13.38 17.04 -9.67 12.18 C-6.51 8.06 -3.25 4.04 0 0 Z " fill="#080808" transform="translate(248,300)"/>
<path d="M0 0 C0.51 0 0.51 0 3.12 0.02 C8.76 0.07 14.23 0.42 19.81 1.25 C18.82 1.91 17.83 2.57 16.81 3.25 C20.44 5.23 24.07 7.21 27.81 9.25 C24.76 11.29 24.17 11.5 20.74 11.48 C19.94 11.48 19.13 11.48 18.3 11.48 C17.44 11.46 16.58 11.45 15.69 11.44 C14.79 11.43 13.9 11.42 12.98 11.41 C-0.87 11.24 -14.47 10.15 -28.19 8.25 C-28.19 7.59 -28.19 6.93 -28.19 6.25 C-20.37 0.05 -9.51 -0.19 0 0 Z " fill="#F68418" transform="translate(297.1875,171.75)"/>
<path d="M0 0 C-2.28 2.28 -4.13 2.97 -7.12 4.12 C-8.04 4.48 -8.95 4.83 -9.88 5.2 C-10.58 5.46 -11.28 5.73 -12 6 C-10.35 6.66 -8.7 7.32 -7 8 C-7.99 8.66 -8.98 9.32 -10 10 C-10.69 12.12 -10.69 12.12 -11 14 C-12.88 14 -14.75 13.98 -16.62 13.94 C-19 14 -19 14 -20 15 C-19.01 15 -18.02 15 -17 15 C-17 16.65 -17 18.3 -17 20 C-17.39 19.9 -17.39 19.9 -19.38 19.38 C-19.81 19.31 -19.81 19.31 -22 19 C-22.66 19.66 -23.32 20.32 -24 21 C-26.71 22.35 -28.29 23.11 -31.31 22.62 C-31.59 22.52 -31.59 22.52 -33 22 C-31.74 18.12 -30.58 16.06 -27 14 C-26.01 14 -25.02 14 -24 14 C-24.66 13.67 -25.32 13.34 -26 13 C-26.62 10.94 -26.62 10.94 -27 9 C-25.35 8.01 -23.7 7.02 -22 6 C-21.67 6.66 -21.34 7.32 -21 8 C-20.34 7.67 -19.68 7.34 -19 7 C-19.33 8.32 -19.66 9.64 -20 11 C-19.34 11 -18.68 11 -18 11 C-18.02 10.07 -18.04 9.14 -18.06 8.19 C-18 5 -18 5 -17 2 C-20.63 1.67 -24.26 1.34 -28 1 C-28 0.67 -28 0.34 -28 0 C-18.85 -2.03 -9.23 -1.14 0 0 Z " fill="#FE8513" transform="translate(295,131)"/>
<path d="M0 0 C3.3 0 6.6 0 10 0 C10.56 5.53 9.64 8.25 6.39 12.52 C3.78 15.31 2.04 16 -1.75 16.5 C-6.09 16.37 -8.61 14.81 -11.72 11.87 C-13.97 8.58 -13.47 5.86 -13 2 C-11.85 1.84 -11.85 1.84 -6 1 C-5.67 2.98 -5.34 4.96 -5 7 C-2.69 7 -0.38 7 2 7 C1.34 4.69 0.68 2.38 0 0 Z " fill="#DA850F" transform="translate(317,133)"/>
<path d="M0 0 C1.21 4.38 1.22 6.98 -1 11 C0.32 11 1.64 11 3 11 C2.69 14.38 2.69 14.38 2 18 C1.01 18.66 0.02 19.32 -1 20 C-0.67 20.66 -0.34 21.32 0 22 C0.99 22 1.98 22 3 22 C3 22.66 3 23.32 3 24 C4.65 23.67 6.3 23.34 8 23 C7.69 24.63 7.38 26.25 7.06 27.88 C6.89 28.78 6.71 29.68 6.54 30.62 C6 33 6 33 5 35 C4.01 35 3.02 35 2 35 C1.67 35.82 1.67 35.82 0 40 C-5.11 30.61 -4.89 18.42 -4 8 C-3 4.81 -1.9 2.78 0 0 Z " fill="#F8810A" transform="translate(241,156)"/>
<path d="M0 0 C3 0 3 0 6 1 C5.6 6.09 2.8 9.13 -0.38 12.88 C-5.26 18.79 -9.89 24.83 -14.35 31.08 C-16.68 34.33 -19.07 37.27 -22 40 C-20.43 35.72 -18.32 31.82 -16.06 27.88 C-15.67 27.2 -15.29 26.52 -14.89 25.81 C-14.05 24.34 -13.2 22.86 -12.36 21.39 C-10.91 18.84 -9.49 16.29 -8.07 13.73 C-7.09 11.98 -6.11 10.24 -5.12 8.5 C-4.66 7.66 -4.2 6.81 -3.72 5.94 C-3.28 5.17 -2.84 4.39 -2.38 3.59 C-1.99 2.9 -1.61 2.21 -1.21 1.49 C-0.81 1 -0.41 0.51 0 0 Z " fill="#FA8517" transform="translate(139,399)"/>
<path d="M0 0 C0.99 0 1.98 0 3 0 C3.33 0.99 3.66 1.98 4 3 C4.87 3.1 5.73 3.21 6.62 3.31 C10.17 4.03 12.84 5.27 16 7 C12.84 9.1 12.05 9.26 8.44 9.27 C8 9.27 8 9.27 5.77 9.27 C4.86 9.27 3.94 9.26 3 9.25 C2.08 9.26 1.17 9.27 0.23 9.27 C-0.65 9.27 -1.53 9.27 -2.44 9.27 C-2.84 9.26 -2.84 9.26 -4.87 9.26 C-7 9 -7 9 -10 7 C-11.66 6.62 -13.32 6.27 -15 6 C-14.67 5.34 -14.34 4.68 -14 4 C-11.79 3.55 -11.79 3.55 -9.06 3.31 C-8.17 3.23 -7.27 3.14 -6.35 3.05 C-4 3 -4 3 -2 4 C-1.34 2.68 -0.68 1.36 0 0 Z " fill="#F9810B" transform="translate(309,174)"/>
<path d="M0 0 C0.89 -0 1.79 -0 2.71 -0 C4.59 -0 6.47 -0 8.36 0 C11.24 0.01 14.12 0 17.01 -0 C18.84 -0 20.67 -0 22.5 0 C23.36 -0 24.23 -0 25.11 -0.01 C25.51 -0 25.51 -0 27.54 0 C28.25 0 28.95 0.01 29.67 0.01 C31.55 0.13 31.55 0.13 34.55 1.13 C34.55 1.79 34.55 2.45 34.55 3.13 C30.49 5.08 27.42 5.31 22.94 5.11 C22.31 5.08 22.31 5.08 19.16 4.95 C17.86 4.89 16.57 4.82 15.24 4.76 C13.93 4.7 12.61 4.64 11.26 4.59 C8.02 4.44 4.79 4.29 1.55 4.13 C1.55 3.8 1.55 3.47 1.55 3.13 C3.53 2.97 3.53 2.97 13.55 2.13 C2.82 2.02 -7.75 2.17 -18.45 3.13 C-12.86 -0.59 -6.5 -0.02 0 0 Z " fill="#322212" transform="translate(288.44921875,167.8671875)"/>
<path d="M0 0 C0.66 0.66 1.32 1.32 2 2 C2.66 1.67 3.32 1.34 4 1 C3.67 3.64 3.34 6.28 3 9 C3.99 9 4.98 9 6 9 C6 10.65 6 12.3 6 14 C5.22 13.79 4.43 13.59 3.62 13.38 C2.76 13.25 1.89 13.13 1 13 C0.34 13.66 -0.32 14.32 -1 15 C-3.71 16.35 -5.29 17.11 -8.31 16.62 C-8.59 16.52 -8.59 16.52 -10 16 C-8.74 12.12 -7.58 10.06 -4 8 C-3.01 8 -2.02 8 -1 8 C-1.66 7.67 -2.32 7.34 -3 7 C-3.62 4.94 -3.62 4.94 -4 3 C-2.68 2.01 -1.36 1.02 0 0 Z " fill="#F88214" transform="translate(272,137)"/>
<path d="M0 0 C1.21 4.38 1.22 6.98 -1 11 C0.32 11 1.64 11 3 11 C2.69 14.38 2.69 14.38 2 18 C1.01 18.66 0.02 19.32 -1 20 C-1.69 23.12 -1.69 23.12 -2 26 C-2.66 25.67 -3.32 25.34 -4 25 C-4.74 6.96 -4.74 6.96 0 0 Z " fill="#FD8815" transform="translate(241,156)"/>
<path d="M0 0 C0.33 0.66 0.66 1.32 1 2 C0.34 2 -0.32 2 -1 2 C-1 2.99 -1 3.98 -1 5 C-1.66 5 -2.32 5 -3 5 C-3.33 5.99 -3.66 6.98 -4 8 C-5.55 10.52 -6.35 11.78 -9.19 12.75 C-9.49 12.79 -9.49 12.79 -11 13 C-11 14.65 -11 16.3 -11 18 C-11.64 18.27 -12.28 18.54 -12.94 18.81 C-15 20 -15 20 -16 23 C-16.99 23 -17.98 23 -19 23 C-16.39 13.18 -7.7 6.19 0 0 Z " fill="#F28D1F" transform="translate(261,133)"/>
<path d="M0 0 C3.3 0 6.6 0 10 0 C10.57 5.6 9.59 8.31 6.29 12.62 C4.05 15.01 2.86 15.01 -0.5 15.19 C-4 15 -4 15 -6 13 C-5.34 13 -4.68 13 -4 13 C-4 12.34 -4 11.68 -4 11 C-1.69 10.34 0.62 9.68 3 9 C3.33 9.66 3.66 10.32 4 11 C4.33 10.01 4.66 9.02 5 8 C5.99 8 6.98 8 8 8 C8 5.69 8 3.38 8 1 C6.35 1 4.7 1 3 1 C3 2.65 3 4.3 3 6 C2 4 1 2 0 0 Z " fill="#DB8A10" transform="translate(317,133)"/>
<path d="M0 0 C1.32 0.33 2.64 0.66 4 1 C2.52 5.44 0.07 8.77 -2.81 12.38 C-3.71 13.52 -4.61 14.67 -5.51 15.82 C-5.94 16.36 -6.37 16.91 -6.81 17.47 C-8.97 20.25 -10.99 23.12 -13 26 C-13 22.74 -12.48 21.71 -10.92 18.95 C-10.48 18.17 -10.04 17.39 -9.59 16.58 C-9.13 15.77 -8.66 14.96 -8.19 14.12 C-7.74 13.32 -7.28 12.52 -6.82 11.69 C-4.6 7.76 -2.35 3.85 0 0 Z " fill="#F98622" transform="translate(131,413)"/>
<path d="M0 0 C0.33 0.99 0.66 1.98 1 3 C0.01 3 -0.98 3 -2 3 C-2.33 3.99 -2.66 4.98 -3 6 C-4.26 6.02 -5.52 6.04 -6.81 6.06 C-7.52 6.07 -8.23 6.09 -8.96 6.1 C-11 6 -11 6 -14 5 C-14 3.68 -14 2.36 -14 1 C-9.28 0.35 -4.78 -0.12 0 0 Z " fill="#FD840C" transform="translate(292,174)"/>
<path d="M0 0 C2.33 3.5 4.3 6.88 3.69 11.19 C3.46 11.79 3.23 12.38 3 13 C1.92 16.24 1.89 18.58 1.9 21.98 C1.91 23.14 1.91 24.31 1.91 25.51 C1.92 26.72 1.93 27.94 1.94 29.19 C1.94 30.41 1.95 31.64 1.95 32.9 C1.96 35.94 1.98 38.97 2 42 C1.67 42 1.34 42 1 42 C0.37 27.99 -0.17 14.02 0 0 Z " fill="#230F0E" transform="translate(370,254)"/>
<path d="M0 0 C0.33 1.32 0.66 2.64 1 4 C0.34 4 -0.32 4 -1 4 C-1.26 4.54 -1.52 5.09 -1.79 5.65 C-3.21 8.4 -4.79 11 -6.44 13.62 C-6.74 14.11 -6.74 14.11 -8.25 16.54 C-10 19 -10 19 -13 21 C-13.33 18.69 -13.66 16.38 -14 14 C-13.01 13.67 -12.02 13.34 -11 13 C-10.34 13.33 -9.68 13.66 -9 14 C-8.79 13.32 -8.59 12.64 -8.38 11.94 C-6.81 8.59 -4.81 6.27 -2.34 3.55 C-1 2 -1 2 0 0 Z " fill="#E07E25" transform="translate(252,196)"/>
<path d="M0 0 C0 1.32 0 2.64 0 4 C5.28 4.66 10.56 5.32 16 6 C16 6.33 16 6.66 16 7 C7.54 7.3 -0.64 6.15 -9 5 C-9 4.34 -9 3.68 -9 3 C-5.63 0.57 -4.27 0 0 0 Z " fill="#C6701C" transform="translate(278,175)"/>
<path d="M0 0 C-1.08 3.25 -1.73 3.83 -4.31 5.88 C-10.14 10.73 -13.47 16.37 -17 23 C-18 20 -18 20 -17 17.77 C-5.99 0 -5.99 0 0 0 Z " fill="#583708" transform="translate(257,136)"/>
<path d="M0 0 C1.3 2.59 1.34 4.12 1 7 C-1.35 9.94 -3.69 11.34 -7 13 C-7.33 13.5 -7.33 13.5 -9 16 C-9.66 15.67 -10.32 15.34 -11 15 C-7.37 10.05 -3.74 5.1 0 0 Z " fill="#FB8923" transform="translate(150,265)"/>
<path d="M0 0 C1.65 0 3.3 0 5 0 C5 2.31 5 4.62 5 7 C4.01 7 3.02 7 2 7 C2.33 7.99 2.66 8.98 3 10 C2.01 10.33 1.02 10.66 0 11 C-0.84 6.98 -1.05 3.98 0 0 Z " fill="#FB9F19" transform="translate(320,134)"/>
<path d="M0 0 C1.21 4.38 1.22 6.98 -1 11 C-1.66 11 -2.32 11 -3 11 C-3 15.62 -3 20.24 -3 25 C-3.33 25 -3.66 25 -4 25 C-4.74 6.96 -4.74 6.96 0 0 Z " fill="#D47A1B" transform="translate(241,156)"/>
<path d="M0 0 C-2.28 2.28 -4.13 2.97 -7.12 4.12 C-8.04 4.48 -8.95 4.83 -9.88 5.2 C-10.58 5.46 -11.28 5.73 -12 6 C-11.18 6.33 -11.18 6.33 -7 8 C-10.01 8.93 -10.87 9.04 -14 8 C-14 6.35 -14 4.7 -14 3 C-4.59 -0.44 -4.59 -0.44 0 0 Z " fill="#E07D1F" transform="translate(295,131)"/>
<path d="M0 0 C2.31 0 4.62 0 7 0 C5.61 4.43 3.39 6.87 0 10 C0 6.7 0 3.4 0 0 Z " fill="#151515" transform="translate(193,173)"/>
<path d="M0 0 C1.07 0 2.13 0.01 3.23 0.01 C3.78 0.01 3.78 0.01 6.57 0.04 C7.7 0.04 8.82 0.04 9.97 0.05 C12.74 0.06 15.5 0.08 18.26 0.1 C18.26 0.43 18.26 0.76 18.26 1.1 C17.95 1.11 17.95 1.11 16.37 1.17 C13.54 1.29 10.71 1.41 7.89 1.54 C7.39 1.55 7.39 1.55 4.9 1.65 C4.43 1.68 4.43 1.68 2.05 1.78 C1.18 1.82 0.31 1.85 -0.58 1.89 C-2.74 2.1 -2.74 2.1 -4.74 3.1 C-7.41 3.23 -10.06 3.14 -12.74 3.1 C-9.21 -0.43 -4.78 -0.03 0 0 Z " fill="#D07922" transform="translate(290.73828125,171.90234375)"/>
<path d="M0 0 C0 0.33 0 0.66 0 1 C-1.44 1.17 -2.87 1.33 -4.31 1.5 C-5.11 1.59 -5.91 1.69 -6.74 1.78 C-10.45 2.14 -13.99 1.85 -17.69 1.5 C-18.68 1.41 -19.68 1.31 -20.7 1.22 C-21.46 1.15 -22.22 1.07 -23 1 C-23 0.67 -23 0.34 -23 0 C-15.55 -1.66 -7.44 -1.72 0 0 Z " fill="#F88120" transform="translate(290,131)"/>
<path d="M0 0 C0.68 0.72 1.36 1.44 2.06 2.19 C6.1 6.22 10.76 9.69 16 12 C14.02 12 12.04 12 10 12 C10 11.34 10 10.68 10 10 C9.01 9.84 9.01 9.84 4 9 C3.67 9.99 3.34 10.98 3 12 C2 9 2 9 3 6 C2.01 5.34 1.02 4.68 0 4 C0 2.68 0 1.36 0 0 Z " fill="#E8801C" transform="translate(293,143)"/>
<path d="M0 0 C0.33 0.99 0.66 1.98 1 3 C0.1 4.72 0.1 4.72 -1.31 6.57 C-1.81 7.24 -2.31 7.91 -2.82 8.6 C-3.36 9.29 -3.89 9.98 -4.44 10.69 C-4.97 11.39 -5.5 12.09 -6.04 12.81 C-7.35 14.55 -8.67 16.28 -10 18 C-10 13.94 -8.11 11.28 -6.12 7.88 C-5.76 7.23 -5.4 6.58 -5.02 5.92 C-2.26 1.13 -2.26 1.13 0 0 Z " fill="#F69044" transform="translate(128,421)"/>
<path d="M0 0 C1.98 0 3.96 0 6 0 C5.81 2.88 5.81 2.88 5 6 C2.44 7.38 2.44 7.38 0 8 C0 5.36 0 2.72 0 0 Z " fill="#EC900A" transform="translate(304,135)"/>
<path d="M0 0 C0.99 0.16 0.99 0.16 6 1 C5.71 1.03 5.71 1.03 4.25 1.19 C1.11 2.32 -0.09 4.34 -2 7 C-1.67 7.66 -1.34 8.32 -1 9 C-1.94 11.62 -1.94 11.62 -3 14 C-3.33 14 -3.66 14 -4 14 C-4.43 7.74 -3.93 4.91 0 0 Z " fill="#D25F0C" transform="translate(373,235)"/>
<path d="M0 0 C1.65 0 3.3 0 5 0 C5 1.65 5 3.3 5 5 C1.87 6.04 1.01 5.93 -2 5 C-1.34 3.35 -0.68 1.7 0 0 Z " fill="#975515" transform="translate(264,148)"/>
<path d="M0 0 C0.66 0.33 1.32 0.66 2 1 C-0.14 2.98 -0.14 2.98 -11 13 C-11.66 12.67 -12.32 12.34 -13 12 C-9.23 7.05 -5.09 3.56 0 0 Z " fill="#2B2F31" transform="translate(271,109)"/>
<path d="M0 0 C3.26 0.02 3.26 0.02 7.12 0.38 C8.41 0.49 9.69 0.6 11.01 0.71 C12 0.81 12.98 0.9 14 1 C14 1.66 14 2.32 14 3 C10.35 4.27 7.51 3.76 3.75 3.06 C2.67 2.87 1.59 2.67 0.48 2.47 C-0.34 2.32 -1.16 2.16 -2 2 C-1.34 1.34 -0.68 0.68 0 0 Z " fill="#F58C32" transform="translate(313,166)"/>
<path d="M0 0 C0.99 0 1.98 0 3 0 C3.33 0.66 3.66 1.32 4 2 C6.06 3.12 6.06 3.12 8 4 C8 4.33 8 4.66 8 5 C8.99 5.16 8.99 5.16 14 6 C14 6.33 14 6.66 14 7 C6.23 7.67 6.23 7.67 2.5 4.62 C0 2 0 2 0 0 Z " fill="#D1851C" transform="translate(305,142)"/>
<path d="M0 0 C0.33 0.99 0.66 1.98 1 3 C-2.63 6.63 -6.26 10.26 -10 14 C-10.66 13.67 -11.32 13.34 -12 13 C-11.55 12.56 -11.11 12.13 -10.64 11.68 C-6.85 7.95 -3.34 4.14 0 0 Z " fill="#1A5F2B" transform="translate(176,381)"/>
<path d="M0 0 C5.75 1.75 5.75 1.75 8 4 C4.44 5.19 1.56 5.1 -2.19 5.06 C-3.46 5.05 -4.73 5.04 -6.04 5.04 C-6.53 5.03 -6.53 5.03 -9 5 C-9 4.67 -9 4.34 -9 4 C-7.19 3.84 -7.19 3.84 2 3 C1.34 2.67 0.68 2.34 0 2 C0 1.34 0 0.68 0 0 Z " fill="#FA892A" transform="translate(317,178)"/>
<path d="M0 0 C0.33 0 0.66 0 1 0 C1 1.98 1 3.96 1 6 C1.66 6.33 2.32 6.66 3 7 C1.35 8.98 -0.3 10.96 -2 13 C-3.18 9.45 -2.7 8.3 -1.56 4.81 C-1.28 3.91 -0.99 3.01 -0.69 2.08 C-0.46 1.39 -0.24 0.71 0 0 Z " fill="#B6651B" transform="translate(371,360)"/>
<path d="M0 0 C3.3 0.33 6.6 0.66 10 1 C10 1.33 10 1.66 10 2 C9.01 2.11 9.01 2.11 4.04 2.68 C2 3 2 3 -1 4 C-3.04 3.88 -3.04 3.88 -5.19 3.56 C-6.45 3.38 -7.7 3.19 -9 3 C-9 2.67 -9 2.34 -9 2 C-6.03 2 -3.06 2 0 2 C0 1.34 0 0.68 0 0 Z " fill="#2D2A26" transform="translate(275,180)"/>
<path d="M0 0 C0.66 0 1.32 0 2 0 C2.98 3.05 2.98 4.95 2 8 C2.66 8.33 3.32 8.66 4 9 C3.67 10.65 3.34 12.3 3 14 C1.21 10.88 0.66 8.32 0.38 4.75 C0.3 3.86 0.23 2.97 0.15 2.05 C0.1 1.37 0.05 0.7 0 0 Z " fill="#E07F1E" transform="translate(238,182)"/>
<path d="M0 0 C2.74 2.74 3.16 5.26 4 9 C3.62 11.44 3.62 11.44 3 13 C3 12.01 3 11.02 3 10 C2.34 10 1.68 10 1 10 C-0.61 6.79 -0.06 3.56 0 0 Z " fill="#231610" transform="translate(412,255)"/>
<path d="M0 0 C-1.1 3.3 -1.95 4.05 -4.56 6.19 C-5.2 6.72 -5.84 7.25 -6.5 7.79 C-7 8.19 -7.49 8.59 -8 9 C-8.66 8.67 -9.32 8.34 -10 8 C-3.95 0 -3.95 0 0 0 Z " fill="#6C4105" transform="translate(257,136)"/>
<path d="M0 0 C1 3 1 3 0.33 4.97 C-0.03 5.66 -0.38 6.35 -0.75 7.06 C-0.92 7.41 -0.92 7.41 -1.8 9.16 C-3 11 -3 11 -6 13 C-4.59 8.17 -2.57 4.28 0 0 Z " fill="#F9892E" transform="translate(152,375)"/>
<path d="M0 0 C0.33 0.66 0.66 1.32 1 2 C1.66 2.33 2.32 2.66 3 3 C1.72 4.71 0.38 6.37 -1 8 C-1.66 8 -2.32 8 -3 8 C-3.33 8.66 -3.66 9.32 -4 10 C-3.67 8.35 -3.34 6.7 -3 5 C-2.34 5 -1.68 5 -1 5 C-0.67 3.35 -0.34 1.7 0 0 Z " fill="#EF831D" transform="translate(252,176)"/>
<path d="M0 0 C2.31 0 4.62 0 7 0 C7 0.66 7 1.32 7 2 C6.01 2.33 5.02 2.66 4 3 C3.67 3.5 3.67 3.5 2 6 C1.34 5.34 0.68 4.68 0 4 C0 2.68 0 1.36 0 0 Z " fill="#F97F0E" transform="translate(303,155)"/>
<path d="M0 0 C3.63 0.33 7.26 0.66 11 1 C7.81 3.13 5.73 3.5 2 4 C1.34 2.68 0.68 1.36 0 0 Z " fill="#282B2D" transform="translate(335,126)"/>
<path d="M0 0 C3.3 0.33 6.6 0.66 10 1 C5.78 3.11 3.6 3.18 -1 3 C-0.67 2.01 -0.34 1.02 0 0 Z " fill="#777879" transform="translate(265,434)"/>
<path d="M0 0 C0.33 0 0.66 0 1 0 C1.25 2.31 1.25 2.31 1 5 C-1 6.81 -1 6.81 -3 8 C-3.66 7.67 -4.32 7.34 -5 7 C-4.19 5.83 -3.38 4.66 -2.56 3.5 C-2.11 2.85 -1.66 2.2 -1.19 1.53 C-0.8 1.03 -0.41 0.52 0 0 Z " fill="#FB8F32" transform="translate(163,247)"/>
<path d="M0 0 C0.33 0.66 0.66 1.32 1 2 C0.34 2 -0.32 2 -1 2 C-1 2.99 -1 3.98 -1 5 C-1.66 5 -2.32 5 -3 5 C-3.33 5.99 -3.66 6.98 -4 8 C-4.99 7.34 -5.98 6.68 -7 6 C-4.69 4.02 -2.38 2.04 0 0 Z " fill="#E88824" transform="translate(261,133)"/>
<path d="M0 0 C0 3.91 -1.51 5.12 -4 8 C-4.99 7.34 -5.98 6.68 -7 6 C-4.69 4.02 -2.38 2.04 0 0 Z " fill="#C2C3C3" transform="translate(281,411)"/>
<path d="M0 0 C0.33 0.99 0.66 1.98 1 3 C1.66 3.33 2.32 3.66 3 4 C-0.75 7 -0.75 7 -3 7 C-1.12 1.12 -1.12 1.12 0 0 Z " fill="#7D1806" transform="translate(336,355)"/>
<path d="M0 0 C0.99 0.33 1.98 0.66 3 1 C0.04 4.13 -2.1 6.05 -6 8 C-4.02 5.36 -2.04 2.72 0 0 Z " fill="#373737" transform="translate(248,300)"/>
</svg>
