<svg width="689" height="206" viewBox="0 0 689 206" fill="none" xmlns="http://www.w3.org/2000/svg">
<path d="M141.66 84.0879L160.253 65.4954H197.438L216.03 84.0879V102.68H197.438V84.0879H160.253V102.68H141.66L141.66 84.0879Z" fill="#010101"/>
<path d="M160.253 121.273V102.68H197.438V121.273H160.253Z" fill="#010101"/>
<path d="M160.253 121.273H141.66V139.865H160.253V121.273Z" fill="#010101"/>
<path d="M197.438 121.273V139.865H216.03V121.273H197.438Z" fill="#010101"/>
<path d="M523.483 134.187C520.089 134.187 516.899 133.573 513.915 132.344C510.989 131.115 508.444 129.447 506.278 127.341C504.113 125.175 502.416 122.659 501.187 119.792C499.959 116.866 499.344 113.764 499.344 110.487C499.344 107.21 499.959 104.138 501.187 101.271C502.416 98.345 504.113 95.8287 506.278 93.722C508.444 91.5569 510.989 89.8598 513.915 88.631C516.899 87.4021 520.089 86.7876 523.483 86.7876C526.994 86.7876 530.183 87.4021 533.05 88.631C535.976 89.8598 538.493 91.5569 540.599 93.722C542.706 95.8872 544.315 98.4035 545.427 101.271C546.597 104.138 547.183 107.21 547.183 110.487V113.121H512.072C512.306 114.525 512.745 115.871 513.388 117.159C514.091 118.446 514.939 119.587 515.934 120.582C516.987 121.518 518.158 122.279 519.445 122.864C520.732 123.391 522.078 123.654 523.483 123.654C525.472 123.654 527.082 123.391 528.311 122.864C529.598 122.279 530.651 121.664 531.47 121.021C532.348 120.26 533.05 119.382 533.577 118.387H546.744C545.807 121.313 544.344 123.947 542.355 126.287C541.477 127.282 540.453 128.248 539.283 129.184C538.112 130.12 536.766 130.969 535.245 131.73C533.723 132.49 531.968 133.075 529.978 133.485C528.047 133.953 525.882 134.187 523.483 134.187ZM534.016 105.66C533.782 104.548 533.372 103.495 532.787 102.5C532.202 101.505 531.441 100.627 530.505 99.8664C529.627 99.1057 528.574 98.4912 527.345 98.0231C526.175 97.555 524.887 97.3209 523.483 97.3209C520.615 97.3209 518.216 98.1694 516.285 99.8664C514.412 101.505 513.154 103.436 512.511 105.66H534.016Z" fill="#010101"/>
<path d="M466.428 134.187C463.56 134.187 460.868 133.631 458.352 132.52C455.894 131.408 453.729 129.828 451.857 127.78C449.984 125.731 448.492 123.244 447.38 120.318C446.327 117.393 445.8 114.116 445.8 110.487C445.8 106.859 446.327 103.582 447.38 100.656C448.492 97.7305 449.984 95.2435 451.857 93.1954C453.729 91.1472 455.894 89.5672 458.352 88.4554C460.868 87.3436 463.56 86.7876 466.428 86.7876C468.885 86.7876 470.963 87.168 472.66 87.9287C474.415 88.631 475.878 89.4209 477.049 90.2987C478.395 91.352 479.536 92.5224 480.472 93.8098H480.911V71.4266H493.2V132.871H480.911V127.165H480.472C479.536 128.453 478.395 129.623 477.049 130.676C475.878 131.554 474.415 132.344 472.66 133.046C470.963 133.807 468.885 134.187 466.428 134.187ZM469.5 123.654C472.835 123.654 475.556 122.513 477.663 120.231C479.828 117.949 480.911 114.701 480.911 110.487C480.911 106.274 479.828 103.026 477.663 100.744C475.556 98.462 472.835 97.3209 469.5 97.3209C466.398 97.3209 463.794 98.462 461.688 100.744C459.581 103.026 458.528 106.274 458.528 110.487C458.528 114.701 459.581 117.949 461.688 120.231C463.794 122.513 466.398 123.654 469.5 123.654Z" fill="#010101"/>
<path d="M412.445 134.187C409.577 134.187 406.885 133.631 404.369 132.52C401.911 131.408 399.746 129.828 397.874 127.78C396.001 125.731 394.509 123.244 393.397 120.318C392.344 117.393 391.817 114.116 391.817 110.487C391.817 106.859 392.344 103.582 393.397 100.656C394.509 97.7305 396.001 95.2435 397.874 93.1954C399.746 91.1472 401.911 89.5672 404.369 88.4554C406.885 87.3436 409.577 86.7876 412.445 86.7876C414.902 86.7876 416.98 87.168 418.677 87.9287C420.432 88.631 421.895 89.4209 423.066 90.2987C424.412 91.352 425.553 92.5224 426.489 93.8098H426.928V88.1043H439.217V132.871H426.928V127.165H426.489C425.553 128.453 424.412 129.623 423.066 130.676C421.895 131.554 420.432 132.344 418.677 133.046C416.98 133.807 414.902 134.187 412.445 134.187ZM415.517 123.654C418.852 123.654 421.574 122.513 423.68 120.231C425.845 117.949 426.928 114.701 426.928 110.487C426.928 106.274 425.845 103.026 423.68 100.744C421.574 98.462 418.852 97.3209 415.517 97.3209C412.415 97.3209 409.811 98.462 407.705 100.744C405.598 103.026 404.545 106.274 404.545 110.487C404.545 114.701 405.598 117.949 407.705 120.231C409.811 122.513 412.415 123.654 415.517 123.654Z" fill="#010101"/>
<path d="M348.858 71.4266H361.147V104.782H366.413L378.263 88.1043H391.869L377.385 108.732L393.185 132.871H379.141L367.73 115.315H361.147V132.871H348.858V71.4266Z" fill="#010101"/>
<path d="M314.162 88.1043H326.451V94.6876H326.889C327.416 93.2831 328.206 92.0543 329.259 91.0009C330.137 90.0646 331.308 89.2161 332.771 88.4554C334.233 87.6361 336.077 87.2265 338.3 87.2265H343.567V99.0764H336.984C333.648 99.0764 331.044 99.9835 329.172 101.798C327.358 103.612 326.451 106.069 326.451 109.171V132.871H314.162V88.1043Z" fill="#010101"/>
<path d="M265.857 71.4266H293.507L309.745 132.871H296.14L292.629 119.265H266.735L263.224 132.871H249.618L265.857 71.4266ZM289.557 106.976L283.412 83.7154H275.951L269.807 106.976H289.557Z" fill="#010101"/>
</svg>
