<svg width="689" height="206" viewBox="0 0 689 206" fill="none" xmlns="http://www.w3.org/2000/svg">
<path d="M141.66 84.0581L160.253 65.4656H197.438L216.03 84.0581V102.651H197.438V84.0581H160.253V102.651H141.66L141.66 84.0581Z" fill="#351791"/>
<path d="M160.253 121.243V102.651H197.438V121.243H160.253Z" fill="#351791"/>
<path d="M160.253 121.243H141.66V139.836H160.253V121.243Z" fill="#351791"/>
<path d="M197.438 121.243V139.836H216.03V121.243H197.438Z" fill="#351791"/>
<path d="M523.483 134.158C520.089 134.158 516.899 133.543 513.915 132.314C510.989 131.085 508.444 129.418 506.278 127.311C504.113 125.146 502.416 122.63 501.187 119.762C499.959 116.836 499.344 113.735 499.344 110.458C499.344 107.181 499.959 104.109 501.187 101.241C502.416 98.3153 504.113 95.799 506.278 93.6924C508.444 91.5272 510.989 89.8302 513.915 88.6013C516.899 87.3724 520.089 86.758 523.483 86.758C526.994 86.758 530.183 87.3724 533.05 88.6013C535.976 89.8302 538.493 91.5272 540.599 93.6924C542.706 95.8575 544.315 98.3738 545.427 101.241C546.597 104.109 547.183 107.181 547.183 110.458V113.091H512.072C512.306 114.496 512.745 115.841 513.388 117.129C514.091 118.416 514.939 119.557 515.934 120.552C516.987 121.488 518.158 122.249 519.445 122.834C520.732 123.361 522.078 123.624 523.483 123.624C525.472 123.624 527.082 123.361 528.311 122.834C529.598 122.249 530.651 121.635 531.47 120.991C532.348 120.23 533.05 119.353 533.577 118.358H546.744C545.807 121.284 544.344 123.917 542.355 126.258C541.477 127.252 540.453 128.218 539.283 129.154C538.112 130.091 536.766 130.939 535.245 131.7C533.723 132.461 531.968 133.046 529.978 133.455C528.047 133.924 525.882 134.158 523.483 134.158ZM534.016 105.63C533.782 104.518 533.372 103.465 532.787 102.47C532.202 101.475 531.441 100.597 530.505 99.8368C529.627 99.076 528.574 98.4616 527.345 97.9934C526.175 97.5253 524.887 97.2912 523.483 97.2912C520.615 97.2912 518.216 98.1397 516.285 99.8368C514.412 101.475 513.154 103.406 512.511 105.63H534.016Z" fill="#010101"/>
<path d="M466.428 134.158C463.56 134.158 460.868 133.602 458.352 132.49C455.894 131.378 453.729 129.798 451.857 127.75C449.984 125.702 448.492 123.215 447.38 120.289C446.327 117.363 445.8 114.086 445.8 110.458C445.8 106.83 446.327 103.553 447.38 100.627C448.492 97.7008 449.984 95.2138 451.857 93.1657C453.729 91.1176 455.894 89.5376 458.352 88.4257C460.868 87.3139 463.56 86.758 466.428 86.758C468.885 86.758 470.963 87.1383 472.66 87.8991C474.415 88.6013 475.878 89.3913 477.049 90.2691C478.395 91.3224 479.536 92.4927 480.472 93.7801H480.911V71.397H493.2V132.841H480.911V127.135H480.472C479.536 128.423 478.395 129.593 477.049 130.647C475.878 131.524 474.415 132.314 472.66 133.017C470.963 133.777 468.885 134.158 466.428 134.158ZM469.5 123.624C472.835 123.624 475.556 122.483 477.663 120.201C479.828 117.919 480.911 114.671 480.911 110.458C480.911 106.244 479.828 102.997 477.663 100.715C475.556 98.4323 472.835 97.2912 469.5 97.2912C466.398 97.2912 463.794 98.4323 461.688 100.715C459.581 102.997 458.528 106.244 458.528 110.458C458.528 114.671 459.581 117.919 461.688 120.201C463.794 122.483 466.398 123.624 469.5 123.624Z" fill="#010101"/>
<path d="M412.445 134.158C409.577 134.158 406.885 133.602 404.369 132.49C401.911 131.378 399.746 129.798 397.874 127.75C396.001 125.702 394.509 123.215 393.397 120.289C392.344 117.363 391.817 114.086 391.817 110.458C391.817 106.83 392.344 103.553 393.397 100.627C394.509 97.7008 396.001 95.2138 397.874 93.1657C399.746 91.1176 401.911 89.5376 404.369 88.4257C406.885 87.3139 409.577 86.758 412.445 86.758C414.902 86.758 416.98 87.1383 418.677 87.8991C420.432 88.6013 421.895 89.3913 423.066 90.2691C424.412 91.3224 425.553 92.4927 426.489 93.7801H426.928V88.0746H439.217V132.841H426.928V127.135H426.489C425.553 128.423 424.412 129.593 423.066 130.647C421.895 131.524 420.432 132.314 418.677 133.017C416.98 133.777 414.902 134.158 412.445 134.158ZM415.517 123.624C418.852 123.624 421.574 122.483 423.68 120.201C425.845 117.919 426.928 114.671 426.928 110.458C426.928 106.244 425.845 102.997 423.68 100.715C421.574 98.4323 418.852 97.2912 415.517 97.2912C412.415 97.2912 409.811 98.4323 407.705 100.715C405.598 102.997 404.545 106.244 404.545 110.458C404.545 114.671 405.598 117.919 407.705 120.201C409.811 122.483 412.415 123.624 415.517 123.624Z" fill="#010101"/>
<path d="M348.858 71.397H361.147V104.752H366.413L378.263 88.0746H391.869L377.385 108.702L393.185 132.841H379.141L367.73 115.286H361.147V132.841H348.858V71.397Z" fill="#010101"/>
<path d="M314.162 88.0746H326.451V94.6579H326.889C327.416 93.2535 328.206 92.0246 329.259 90.9713C330.137 90.035 331.308 89.1865 332.771 88.4257C334.233 87.6065 336.077 87.1969 338.3 87.1969H343.567V99.0468H336.984C333.648 99.0468 331.044 99.9538 329.172 101.768C327.358 103.582 326.451 106.04 326.451 109.141V132.841H314.162V88.0746Z" fill="#010101"/>
<path d="M265.857 71.397H293.507L309.745 132.841H296.14L292.629 119.236H266.735L263.224 132.841H249.618L265.857 71.397ZM289.557 106.947L283.412 83.6858H275.951L269.807 106.947H289.557Z" fill="#010101"/>
</svg>
