<svg width="94" height="94" viewBox="0 0 94 94" fill="none" xmlns="http://www.w3.org/2000/svg">
<rect x="46.5532" y="23.2767" width="11.6383" height="11.6383" fill="#F14317"/>
<rect x="34.915" y="23.2767" width="11.6383" height="11.6383" fill="#F14317"/>
<rect x="58.1914" y="34.915" width="11.6383" height="11.6383" fill="#F14317"/>
<rect width="11.6383" height="11.6383" transform="matrix(-1 0 0 1 34.915 34.915)" fill="#F14317"/>
<rect width="11.6383" height="11.6383" transform="matrix(-1 0 0 1 46.5532 46.5533)" fill="#F14317"/>
<rect width="11.6383" height="11.6383" transform="matrix(-1 0 0 1 58.1914 46.5533)" fill="#F14317"/>
<rect x="58.1914" y="58.1917" width="11.6383" height="11.6383" fill="#F14317"/>
<rect width="11.6383" height="11.6383" transform="matrix(-1 0 0 1 34.915 58.1917)" fill="#F14317"/>
<path d="M58.1914 23.2767L69.8297 34.9151H58.1914V23.2767Z" fill="#F14317"/>
<path d="M34.915 23.2767L23.2767 34.9151H34.915V23.2767Z" fill="#F14317"/>
</svg>
