<?xml version="1.0" encoding="UTF-8"?>
<!-- Bitzed (Zambia) brand mark, clipped to a circle for round avatar display. Source: public/Bitzed_Zambia/bitzed_black2.svg (VTracer). -->
<svg xmlns="http://www.w3.org/2000/svg" viewBox="0 0 512 512" width="512" height="512" role="img" aria-label="Bitzed">
  <defs>
    <clipPath id="bitzedCircle"><circle cx="256" cy="256" r="256"/></clipPath>
  </defs>
  <g clip-path="url(#bitzedCircle)">
<path d="M0 0 C168.96 0 337.92 0 512 0 C512 168.96 512 337.92 512 512 C343.04 512 174.08 512 0 512 C0 343.04 0 174.08 0 0 Z " fill="#000000" transform="translate(0,0)"/>
<path d="M0 0 C1.3 0 2.6 0 3.94 0.01 C10.47 0.1 14.61 0.55 20.44 3.56 C23.19 2.81 23.19 2.81 25.44 1.56 C29.62 -0.53 35.05 0.34 39.65 0.32 C41.67 0.31 43.68 0.28 45.7 0.25 C46.34 0.25 46.34 0.25 49.58 0.23 C50.16 0.23 50.16 0.23 53.13 0.21 C57.76 0.71 61 2.1 64.28 5.44 C65.65 7.96 65.86 9.69 65.95 12.55 C65.98 13.48 66.02 14.42 66.06 15.38 C66.08 16.35 66.1 17.32 66.12 18.31 C66.16 19.3 66.19 20.28 66.23 21.29 C66.31 23.72 66.38 26.14 66.44 28.56 C67.26 28.1 68.09 27.64 68.94 27.17 C70.09 26.56 71.25 25.94 72.44 25.31 C73.55 24.71 74.66 24.11 75.81 23.48 C87.56 18.13 99.76 16.9 112.5 17.12 C112.85 17.13 112.85 17.13 114.64 17.14 C123.98 17.23 133.23 17.67 142.5 18.81 C143.4 18.92 144.3 19.03 145.23 19.14 C153.47 20.35 159.95 23.13 165.44 29.56 C165.87 30.36 166.31 31.15 166.76 31.97 C168.68 34.93 170.67 36.47 173.5 38.56 C183.23 46.31 190.09 56.39 195.44 67.56 C195.94 68.59 196.43 69.61 196.95 70.67 C200.04 77.47 200.94 81.53 198.77 88.8 C198.33 92.49 199.22 95.19 200.25 98.75 C205.98 120.16 206.35 143.8 202.44 165.56 C202.32 166.21 202.21 166.86 202.1 167.53 C196.26 199.74 177.81 230.87 152.44 251.56 C151.68 252.21 150.92 252.85 150.14 253.52 C139.91 262.04 128.74 267.61 116.44 272.56 C115.51 272.98 114.59 273.4 113.63 273.82 C106.9 276.67 101.23 276.66 93.98 276.45 C89.75 276.59 87.13 277.74 83.38 279.55 C78.42 281.26 73.25 281.48 68.04 281.88 C67.24 281.94 66.45 282.01 65.63 282.07 C64.92 282.12 64.21 282.17 63.48 282.22 C61.44 282.56 61.44 282.56 59.61 283.57 C54.93 285.7 49.2 284.89 44.11 284.88 C41.94 284.88 39.78 284.9 37.61 284.92 C36.23 284.93 34.85 284.93 33.47 284.93 C32.22 284.93 30.96 284.93 29.67 284.93 C26.26 284.54 24.82 284.01 22.44 281.56 C22.44 280.9 22.44 280.24 22.44 279.56 C22.13 279.81 22.13 279.81 20.56 281.06 C18.44 282.56 18.44 282.56 16.44 282.56 C16.44 283.22 16.44 283.88 16.44 284.56 C11.99 284.74 7.54 284.86 3.1 284.95 C1.58 284.98 0.07 285.03 -1.44 285.09 C-13.9 285.58 -13.9 285.58 -17.91 283.13 C-20.82 279.93 -21.86 277.46 -21.94 273.12 C-21.81 271.95 -21.69 270.77 -21.56 269.56 C-22.22 269.56 -22.88 269.56 -23.56 269.56 C-23.82 270.13 -24.08 270.69 -24.34 271.27 C-25.7 273.82 -27.29 275.97 -29.06 278.25 C-29.67 279.04 -30.28 279.83 -30.91 280.64 C-32.76 282.79 -33.75 283.45 -36.55 283.84 C-41.04 284.03 -42.91 284.08 -46.56 281.19 C-49.49 277.34 -50.13 275.42 -49.56 270.56 C-47.99 267.11 -46.04 263.92 -44.06 260.69 C-43.54 259.81 -43.01 258.93 -42.47 258.02 C-41.18 255.86 -39.88 253.71 -38.56 251.56 C-38.99 251.56 -38.99 251.56 -41.15 251.53 C-44.32 251.49 -47.5 251.43 -50.68 251.35 C-52.05 251.33 -53.42 251.31 -54.8 251.29 C-56.77 251.27 -58.75 251.22 -60.73 251.17 C-61.92 251.15 -63.11 251.13 -64.33 251.11 C-68.17 250.46 -69.8 249.26 -72.56 246.56 C-75.03 242.86 -74.92 239.93 -74.97 235.64 C-74.98 234.86 -74.99 234.08 -75 233.28 C-75.02 231.63 -75.04 229.99 -75.04 228.34 C-75.06 225.83 -75.12 223.33 -75.19 220.83 C-75.2 219.22 -75.21 217.62 -75.22 216.02 C-75.24 215.27 -75.27 214.53 -75.29 213.77 C-75.24 206.92 -73.66 206.51 -68.56 200.56 C-61.3 200.23 -54.04 199.9 -46.56 199.56 C-46.56 161.61 -46.56 123.66 -46.56 84.56 C-49.32 83.64 -50.99 83.44 -53.84 83.42 C-54.25 83.41 -54.25 83.41 -56.34 83.36 C-58.06 83.33 -59.79 83.31 -61.52 83.31 C-65.97 83.18 -67.98 83.02 -71.6 80.2 C-74.78 75.92 -74.75 72.14 -74.8 67.01 C-74.81 66.27 -74.82 65.53 -74.83 64.77 C-74.84 63.21 -74.85 61.65 -74.86 60.08 C-74.87 58.49 -74.89 56.9 -74.92 55.3 C-74.96 52.99 -74.98 50.69 -74.99 48.38 C-75.01 47.67 -75.02 46.97 -75.04 46.24 C-75.03 42.62 -74.65 40.7 -72.66 37.64 C-69.67 34.68 -68.11 34.44 -64.02 34.45 C-63.08 34.45 -62.14 34.45 -61.17 34.45 C-60.15 34.45 -59.13 34.46 -58.09 34.46 C-57.05 34.47 -56.01 34.47 -54.93 34.47 C-51.6 34.47 -48.27 34.49 -44.94 34.5 C-42.68 34.51 -40.43 34.51 -38.17 34.51 C-32.64 34.52 -27.1 34.54 -21.56 34.56 C-21.58 34.15 -21.58 34.15 -21.67 32.09 C-21.82 28.37 -21.91 24.66 -22 20.94 C-22.06 19.65 -22.12 18.37 -22.18 17.04 C-22.37 6.36 -22.37 6.36 -18.95 2.7 C-13.35 -0.97 -6.42 -0.18 0 0 Z " fill="#071014" transform="translate(188.5625,112.4375)"/>
<path d="M0 0 C1.3 0 2.6 0 3.94 0.01 C10.47 0.1 14.61 0.55 20.44 3.56 C23.19 2.81 23.19 2.81 25.44 1.56 C29.62 -0.53 35.05 0.34 39.65 0.32 C41.67 0.31 43.68 0.28 45.7 0.25 C46.34 0.25 46.34 0.25 49.58 0.23 C50.16 0.23 50.16 0.23 53.13 0.21 C57.76 0.71 61 2.1 64.28 5.44 C65.65 7.96 65.86 9.69 65.95 12.55 C65.98 13.48 66.02 14.42 66.06 15.38 C66.08 16.35 66.1 17.32 66.12 18.31 C66.16 19.3 66.19 20.28 66.23 21.29 C66.31 23.72 66.38 26.14 66.44 28.56 C67.26 28.1 68.09 27.64 68.94 27.17 C70.09 26.56 71.25 25.94 72.44 25.31 C73.55 24.71 74.66 24.11 75.81 23.48 C87.56 18.13 99.76 16.9 112.5 17.12 C112.85 17.13 112.85 17.13 114.64 17.14 C123.98 17.23 133.23 17.67 142.5 18.81 C143.4 18.92 144.3 19.03 145.23 19.14 C153.47 20.35 159.95 23.13 165.44 29.56 C165.87 30.36 166.31 31.15 166.76 31.97 C168.68 34.93 170.67 36.47 173.5 38.56 C183.23 46.31 190.09 56.39 195.44 67.56 C195.94 68.59 196.43 69.61 196.95 70.67 C200.04 77.47 200.94 81.53 198.77 88.8 C198.33 92.49 199.22 95.19 200.25 98.75 C205.98 120.16 206.35 143.8 202.44 165.56 C202.32 166.21 202.21 166.86 202.1 167.53 C196.26 199.74 177.81 230.87 152.44 251.56 C151.68 252.21 150.92 252.85 150.14 253.52 C139.91 262.04 128.74 267.61 116.44 272.56 C115.51 272.98 114.59 273.4 113.63 273.82 C106.9 276.67 101.23 276.66 93.98 276.45 C89.75 276.59 87.13 277.74 83.38 279.55 C78.42 281.26 73.25 281.48 68.04 281.88 C67.24 281.94 66.45 282.01 65.63 282.07 C64.92 282.12 64.21 282.17 63.48 282.22 C61.44 282.56 61.44 282.56 59.61 283.57 C54.93 285.7 49.2 284.89 44.11 284.88 C41.94 284.88 39.78 284.9 37.61 284.92 C36.23 284.93 34.85 284.93 33.47 284.93 C32.22 284.93 30.96 284.93 29.67 284.93 C26.26 284.54 24.82 284.01 22.44 281.56 C22.44 280.9 22.44 280.24 22.44 279.56 C22.13 279.81 22.13 279.81 20.56 281.06 C18.44 282.56 18.44 282.56 16.44 282.56 C16.44 283.22 16.44 283.88 16.44 284.56 C11.99 284.74 7.54 284.86 3.1 284.95 C1.58 284.98 0.07 285.03 -1.44 285.09 C-13.9 285.58 -13.9 285.58 -17.91 283.13 C-20.82 279.93 -21.86 277.46 -21.94 273.12 C-21.81 271.95 -21.69 270.77 -21.56 269.56 C-22.22 269.56 -22.88 269.56 -23.56 269.56 C-23.82 270.13 -24.08 270.69 -24.34 271.27 C-25.7 273.82 -27.29 275.97 -29.06 278.25 C-29.67 279.04 -30.28 279.83 -30.91 280.64 C-32.76 282.79 -33.75 283.45 -36.55 283.84 C-41.04 284.03 -42.91 284.08 -46.56 281.19 C-49.49 277.34 -50.13 275.42 -49.56 270.56 C-47.99 267.11 -46.04 263.92 -44.06 260.69 C-43.54 259.81 -43.01 258.93 -42.47 258.02 C-41.18 255.86 -39.88 253.71 -38.56 251.56 C-38.99 251.56 -38.99 251.56 -41.15 251.53 C-44.32 251.49 -47.5 251.43 -50.68 251.35 C-52.05 251.33 -53.42 251.31 -54.8 251.29 C-56.77 251.27 -58.75 251.22 -60.73 251.17 C-61.92 251.15 -63.11 251.13 -64.33 251.11 C-68.17 250.46 -69.8 249.26 -72.56 246.56 C-75.03 242.86 -74.92 239.93 -74.97 235.64 C-74.98 234.86 -74.99 234.08 -75 233.28 C-75.02 231.63 -75.04 229.99 -75.04 228.34 C-75.06 225.83 -75.12 223.33 -75.19 220.83 C-75.2 219.22 -75.21 217.62 -75.22 216.02 C-75.24 215.27 -75.27 214.53 -75.29 213.77 C-75.24 206.92 -73.66 206.51 -68.56 200.56 C-61.3 200.23 -54.04 199.9 -46.56 199.56 C-46.56 161.61 -46.56 123.66 -46.56 84.56 C-49.32 83.64 -50.99 83.44 -53.84 83.42 C-54.25 83.41 -54.25 83.41 -56.34 83.36 C-58.06 83.33 -59.79 83.31 -61.52 83.31 C-65.97 83.18 -67.98 83.02 -71.6 80.2 C-74.78 75.92 -74.75 72.14 -74.8 67.01 C-74.81 66.27 -74.82 65.53 -74.83 64.77 C-74.84 63.21 -74.85 61.65 -74.86 60.08 C-74.87 58.49 -74.89 56.9 -74.92 55.3 C-74.96 52.99 -74.98 50.69 -74.99 48.38 C-75.01 47.67 -75.02 46.97 -75.04 46.24 C-75.03 42.62 -74.65 40.7 -72.66 37.64 C-69.67 34.68 -68.11 34.44 -64.02 34.45 C-63.08 34.45 -62.14 34.45 -61.17 34.45 C-60.15 34.45 -59.13 34.46 -58.09 34.46 C-57.05 34.47 -56.01 34.47 -54.93 34.47 C-51.6 34.47 -48.27 34.49 -44.94 34.5 C-42.68 34.51 -40.43 34.51 -38.17 34.51 C-32.64 34.52 -27.1 34.54 -21.56 34.56 C-21.58 34.15 -21.58 34.15 -21.67 32.09 C-21.82 28.37 -21.91 24.66 -22 20.94 C-22.06 19.65 -22.12 18.37 -22.18 17.04 C-22.37 6.36 -22.37 6.36 -18.95 2.7 C-13.35 -0.97 -6.42 -0.18 0 0 Z M62.12 46 C57.68 51.31 53.6 56.93 49.47 62.49 C46.88 65.99 44.23 69.44 41.56 72.88 C36.81 79.03 32.21 85.29 27.61 91.55 C24.27 96.1 20.89 100.61 17.44 105.06 C11.58 112.62 5.94 120.34 0.28 128.06 C-2.19 131.41 -4.66 134.76 -7.13 138.11 C-8.89 140.5 -10.65 142.89 -12.41 145.28 C-14.34 147.9 -16.27 150.52 -18.22 153.13 C-18.95 154.12 -19.68 155.11 -20.44 156.12 C-20.75 156.54 -20.75 156.54 -22.3 158.63 C-23.56 160.56 -23.56 160.56 -23.56 162.56 C-9.37 162.56 4.82 162.56 19.44 162.56 C14.01 174.91 8.33 186.93 1.93 198.79 C0.25 201.91 -1.41 205.04 -3.07 208.17 C-11.89 224.77 -20.98 241.21 -30.41 257.47 C-30.84 258.22 -31.27 258.97 -31.71 259.74 C-32.5 261.12 -33.3 262.5 -34.11 263.87 C-34.99 265.4 -35.79 266.98 -36.56 268.56 C-36.23 269.22 -35.9 269.88 -35.56 270.56 C-34.93 269.74 -34.3 268.92 -33.66 268.07 C-28.37 261.17 -23.03 254.32 -17.56 247.56 C-16.87 246.7 -16.17 245.84 -15.45 244.96 C-11.46 240.05 -7.41 235.19 -3.31 230.38 C1.43 224.8 6.06 219.14 10.66 213.45 C14.77 208.37 18.94 203.35 23.12 198.34 C25.33 195.69 27.51 193.04 29.69 190.38 C30.41 189.49 31.14 188.6 31.89 187.68 C33.28 185.98 34.66 184.29 36.05 182.59 C45.3 171.25 54.65 160.26 65.07 149.96 C73.51 141.42 73.51 141.42 75.44 137.56 C70.66 136.61 66.04 136.43 61.2 136.46 C60.43 136.47 59.66 136.47 58.87 136.47 C56.43 136.47 54 136.49 51.56 136.5 C49.9 136.51 48.24 136.51 46.59 136.51 C42.54 136.52 38.49 136.54 34.44 136.56 C34.6 136.33 34.6 136.33 35.43 135.16 C36.4 133.78 37.38 132.4 38.35 131.02 C39.45 129.46 40.56 127.9 41.66 126.33 C44.6 122.18 47.5 118.01 50.38 113.81 C52.23 111.13 53.9 109.11 56.25 106.81 C58.44 104.56 58.44 104.56 59.31 101.69 C60.89 97.32 63.62 94.21 67.44 91.56 C70.67 90.86 70.67 90.86 73.44 90.56 C69.02 100.17 64.03 108.26 57.44 116.56 C55.74 118.76 54.05 120.97 52.38 123.19 C51.62 124.17 50.87 125.15 50.09 126.16 C48.44 128.56 48.44 128.56 48.44 130.56 C49.43 130.58 50.41 130.6 51.43 130.62 C55.13 130.7 58.83 130.79 62.52 130.88 C64.12 130.92 65.71 130.95 67.31 130.98 C69.61 131.03 71.92 131.09 74.22 131.15 C74.92 131.16 75.62 131.17 76.35 131.18 C81.3 131.33 85.67 132.23 90.44 133.56 C84.77 140.49 78.41 146.7 72.06 153 C70.93 154.12 69.8 155.25 68.68 156.37 C65.93 159.11 63.19 161.83 60.44 164.56 C62.36 166.59 63.95 167.88 66.38 169.38 C70.03 171.99 71.58 173.43 73.44 177.56 C74.26 184.52 74.56 191.73 70.83 197.89 C65.43 204.38 57.72 208.28 49.44 209.56 C47.37 209.55 45.31 209.49 43.25 209.39 C22.65 208.84 22.65 208.84 17.35 213.25 C14.72 216.09 12.68 219.27 10.69 222.59 C8.56 225.95 5.89 228.83 3.25 231.81 C2.75 232.41 2.26 233 1.75 233.62 C-0.49 236.31 -2.56 238.56 -5.32 240.75 C-9.2 243.96 -11.29 246.39 -11.94 251.53 C-12.33 259.23 -12.02 266.87 -11.56 274.56 C-3.64 274.56 4.28 274.56 12.44 274.56 C12.44 263.34 12.44 252.12 12.44 240.56 C18.05 240.56 23.66 240.56 29.44 240.56 C29.44 251.78 29.44 263 29.44 274.56 C38.02 274.56 46.6 274.56 55.44 274.56 C55.6 273.57 55.6 273.57 56.44 268.56 C58.81 266.95 58.81 266.95 61.88 265.69 C68.23 262.82 73.2 259.13 78.44 254.56 C74.63 260.39 70.68 266.04 66.44 271.56 C82.88 270.55 96.71 264.36 107.96 252.25 C108.45 251.69 108.94 251.14 109.44 250.56 C107.82 254.15 105.64 257.15 103.31 260.31 C102.59 261.3 101.86 262.28 101.12 263.3 C100.84 263.67 100.84 263.67 99.44 265.56 C103.48 267.24 106.71 265.75 110.56 264.25 C111.26 263.98 111.95 263.72 112.67 263.44 C142.99 251.31 167.26 227.63 181.12 198.12 C181.91 196.28 182.68 194.42 183.44 192.56 C183.93 191.39 184.42 190.21 184.93 189 C191.77 172.16 194.18 155.47 194 137.38 C194 136.49 193.99 135.6 193.99 134.68 C193.88 116.7 193.44 96.69 182.44 81.56 C184.75 81.89 187.06 82.22 189.44 82.56 C187.54 67.94 176.47 53.88 165.44 44.56 C163.83 43.5 162.2 42.45 160.56 41.44 C156.56 38.95 156.56 38.95 155.44 35.38 C154.44 32.56 154.44 32.56 152.79 31.59 C141.32 27.48 128.92 27.24 116.88 27.31 C115.56 27.3 114.24 27.3 112.88 27.29 C93.46 27.33 75.7 31.26 62.12 46 Z " fill="#F6F6F5" transform="translate(188.5625,112.4375)"/>
<path d="M0 0 C7.92 0 15.84 0 24 0 C24 11.22 24 22.44 24 34 C29.61 34 35.22 34 41 34 C41 22.78 41 11.56 41 0 C49.58 0 58.16 0 67 0 C67.16 4.54 67.3 9.07 67.38 13.6 C67.42 15.14 67.47 16.68 67.53 18.22 C68.08 32.64 68.08 32.64 63.83 38.05 C62.57 39.38 61.29 40.7 60 42 C58.97 43.38 57.98 44.78 57.02 46.2 C56.56 46.87 56.1 47.54 55.62 48.23 C55.17 48.9 54.72 49.56 54.25 50.25 C54.02 50.59 54.02 50.59 52.83 52.31 C49.12 57.74 49.12 57.74 47.76 60.7 C46 63 46 63 43 63.57 C41.8 63.54 40.6 63.52 39.36 63.49 C38.19 63.48 37.02 63.46 35.82 63.45 C34.33 63.4 32.84 63.36 31.31 63.31 C26.59 63.21 21.87 63.11 17 63 C17 75.21 17 87.42 17 100 C16.5 100.16 16.5 100.16 14 101 C12.58 102.66 12.58 102.66 11.1 104.84 C10.55 105.65 9.99 106.45 9.42 107.28 C8.83 108.16 8.23 109.04 7.62 109.94 C6.36 111.77 5.1 113.61 3.84 115.44 C3.2 116.37 2.56 117.3 1.9 118.26 C-0.93 122.34 -3.83 126.36 -6.75 130.38 C-9.85 134.65 -12.95 138.92 -16 143.23 C-16.23 143.56 -16.23 143.56 -17.41 145.23 C-18.28 146.46 -19.15 147.7 -20.02 148.94 C-20.99 150.31 -21.99 151.66 -23 153 C-23.33 153 -23.66 153 -24 153 C-24 152.5 -24 152.5 -24.02 149.97 C-24.08 140.52 -24.15 131.07 -24.24 121.63 C-24.28 116.77 -24.32 111.92 -24.35 107.06 C-24.37 102.37 -24.41 97.68 -24.46 93 C-24.48 91.21 -24.49 89.42 -24.5 87.64 C-24.51 85.13 -24.54 82.62 -24.57 80.12 C-24.57 79.75 -24.57 79.75 -24.56 77.89 C-24.65 73.21 -25.47 69.95 -28 66 C-35.48 61.66 -44.59 62.33 -53 62 C-53 52.43 -53 42.86 -53 33 C-35.51 33 -18.02 33 0 33 C0 22.11 0 11.22 0 0 Z " fill="#045E22" transform="translate(177,123)"/>
<path d="M0 0 C13.62 10.02 24.34 22.31 27.69 39.42 C29.44 53.86 27.53 68.83 18.94 80.89 C8.78 92.84 -5.66 101.49 -21.31 103.81 C-24.13 103.96 -26.91 104.02 -29.73 104.01 C-30.13 104.01 -30.13 104.01 -32.16 104.01 C-32.77 104 -33.37 104 -34 104 C-33.96 104.85 -33.93 105.69 -33.89 106.57 C-33.76 109.73 -33.64 112.9 -33.52 116.06 C-33.46 117.43 -33.41 118.79 -33.35 120.16 C-33.27 122.13 -33.2 124.1 -33.12 126.07 C-33.1 126.66 -33.1 126.66 -32.98 129.66 C-33 133 -33 133 -34 139 C-42.58 139 -51.16 139 -60 139 C-60 127.78 -60 116.56 -60 105 C-65.61 105 -71.22 105 -77 105 C-77 116.22 -77 127.44 -77 139 C-84.92 139 -92.84 139 -101 139 C-102.77 114.85 -102.77 114.85 -99.01 109.13 C-96.68 106.69 -94.29 104.52 -91.66 102.42 C-88.55 99.75 -86.01 96.56 -83.38 93.44 C-82.81 92.81 -82.25 92.17 -81.67 91.52 C-79.1 88.63 -77.03 86.05 -75.16 82.64 C-73.02 78.9 -71.75 77.2 -68 75 C-60.97 73.8 -53.89 73.99 -46.79 74.12 C-36.81 74.21 -28.65 71.46 -21 65 C-15.78 59.03 -15.64 53.02 -15.73 45.39 C-16.08 41.02 -16.86 39.07 -20 36 C-22.91 33.84 -25.9 31.87 -29 30 C-23.47 23.26 -17.31 17.19 -11.12 11.06 C-10.04 9.99 -8.96 8.91 -7.88 7.83 C-5.26 5.22 -2.63 2.61 0 0 Z " fill="#035E22" transform="translate(278,248)"/>
<path d="M0 0 C0.16 0.5 0.16 0.5 1 3 C-0.32 3.99 -1.64 4.98 -3 6 C-2.05 6.37 -1.1 6.74 -0.12 7.12 C13.33 12.97 25.28 23.1 31.23 36.83 C31.48 37.55 31.74 38.26 32 39 C31.46 38.72 30.91 38.45 30.36 38.16 C29.64 37.8 28.92 37.44 28.19 37.06 C27.48 36.7 26.77 36.34 26.04 35.97 C24 35 24 35 21 34 C21.38 34.62 21.75 35.24 22.14 35.88 C29.21 48.11 34.62 62.68 34 77 C26.97 75.02 20.75 71.46 15 67 C14.96 68.05 14.92 69.1 14.88 70.19 C14.12 76.62 10.85 82.27 8 88 C6.58 87.55 5.17 87.09 3.75 86.62 C3.36 86.5 3.36 86.5 1.36 85.85 C-0.87 85.05 -2.91 84.1 -5 83 C-5.2 83.61 -5.39 84.21 -5.59 84.84 C-8.09 91.84 -11.61 97.8 -17 103 C-17.99 103 -18.98 103 -20 103 C-20.27 102.36 -20.53 101.72 -20.8 101.07 C-21.16 100.24 -21.51 99.41 -21.88 98.56 C-22.22 97.74 -22.57 96.92 -22.93 96.07 C-24 94 -24 94 -26 93 C-26.23 93.7 -26.45 94.4 -26.69 95.12 C-28.97 100.13 -32.44 103.96 -37 107 C-41.87 104.88 -45.12 101.42 -48 97 C-48.57 94.37 -48.39 92.7 -48 90 C-51.3 90 -54.6 90 -58 90 C-57.08 87.46 -56.28 85.35 -54.56 83.25 C-48.81 74.97 -49.32 64.68 -49 55 C-47.51 54.84 -47.51 54.84 -40 54 C-41.98 52.68 -43.96 51.36 -46 50 C-44.69 47.39 -43.64 47.32 -40.94 46.38 C-40.57 46.24 -40.57 46.24 -38.71 45.59 C-38.15 45.39 -37.58 45.2 -37 45 C-39.3 43.85 -41.08 43.69 -43.62 43.44 C-44.44 43.35 -45.26 43.27 -46.1 43.18 C-46.41 43.15 -46.41 43.15 -48 43 C-48 42.01 -48 41.02 -48 40 C-48.5 39.84 -48.5 39.84 -51 39 C-51 38.34 -51 37.68 -51 37 C-47.96 34.98 -46.62 34.67 -43.12 34.19 C-38.29 33.25 -35.89 32.2 -33 28 C-32.15 25.42 -31.45 22.87 -30.87 20.21 C-30 18 -30 18 -27.91 16.7 C-27.28 16.47 -26.65 16.24 -26 16 C-27.8 14.2 -30.23 14.83 -32.63 14.81 C-33.39 14.81 -34.15 14.81 -34.94 14.81 C-35.71 14.81 -36.48 14.81 -37.27 14.81 C-43.62 14.88 -50.22 15.11 -56 18 C-57.74 18.08 -59.48 18.11 -61.23 18.1 C-62.26 18.09 -63.29 18.09 -64.35 18.09 C-64.89 18.08 -64.89 18.08 -67.62 18.06 C-68.17 18.06 -68.17 18.06 -70.92 18.05 C-73.61 18.04 -76.31 18.02 -79 18 C-79.18 13.25 -79.18 13.25 -77.52 10.97 C-56.41 -7.8 -25.86 -4.76 0 0 Z " fill="#F6F5F5" transform="translate(336,148)"/>
<path d="M0 0 C0.33 0 0.66 0 1 0 C1.1 0.89 1.2 1.79 1.3 2.71 C2.59 13.19 4.95 21.36 11 30 C11 30.66 11 31.32 11 32 C11.74 31.26 12.49 30.51 13.25 29.75 C15.5 27.5 17.75 25.25 20 23 C20 27 20 27 17.87 29.24 C16.92 30.15 15.97 31.06 15 32 C12.93 34.65 11.03 37.42 9.12 40.19 C8.63 40.89 8.14 41.6 7.64 42.32 C6.63 43.77 5.62 45.21 4.62 46.66 C1.76 50.78 -1.12 54.89 -4 59 C-2.97 58.99 -1.94 58.99 -0.88 58.98 C2.95 58.97 6.79 58.95 10.62 58.95 C12.28 58.94 13.94 58.93 15.59 58.92 C17.98 58.91 20.37 58.91 22.76 58.9 C23.49 58.9 24.23 58.89 24.98 58.89 C29.1 58.89 32.96 59.2 37 60 C30.64 67.51 24.2 74.91 17.12 81.75 C12.75 86.07 8.99 90.67 5.25 95.54 C1.9 99.89 -1.59 104.1 -5.19 108.25 C-9.22 112.9 -13.13 117.61 -16.94 122.44 C-19.87 126.08 -22.91 129.63 -25.94 133.19 C-28.66 136.39 -31.33 139.63 -33.94 142.94 C-37.19 147.05 -40.58 151.03 -44 155 C-49.96 161.92 -55.71 168.98 -61.24 176.25 C-61.82 177.01 -62.39 177.77 -62.99 178.56 C-64.14 180.07 -65.29 181.59 -66.43 183.11 C-69.11 186.64 -71.74 189.98 -75 193 C-73.68 189.55 -72.18 186.32 -70.42 183.07 C-69.91 182.12 -69.39 181.18 -68.86 180.2 C-68.31 179.18 -67.76 178.17 -67.19 177.12 C-66.61 176.06 -66.03 174.99 -65.43 173.89 C-62.1 167.78 -58.71 161.71 -55.25 155.67 C-46.68 140.7 -38.81 125.38 -31 110 C-30.53 109.08 -30.06 108.16 -29.58 107.21 C-25.85 99.88 -22.34 92.52 -19 85 C-33.19 85 -47.38 85 -62 85 C-60.5 81.25 -59.66 79.26 -57.31 76.29 C-56.78 75.61 -56.26 74.93 -55.71 74.23 C-55.43 73.87 -55.43 73.87 -54 72.06 C-49.87 66.76 -45.81 61.43 -41.94 55.94 C-36.9 48.8 -31.66 41.83 -26.4 34.86 C-24.37 32.16 -22.34 29.46 -20.31 26.75 C-19.6 25.8 -18.89 24.85 -18.15 23.87 C-16.66 21.89 -15.18 19.9 -13.69 17.91 C-10.15 13.17 -6.6 8.44 -3 3.75 C-2.44 3.02 -1.89 2.3 -1.31 1.55 C-0.88 1.04 -0.45 0.53 0 0 Z " fill="#FD8512" transform="translate(227,190)"/>
<path d="M0 0 C6.45 1.76 10.33 6.93 14.38 11.94 C21.2 24.79 16.96 45.5 14 59 C13.37 61.01 12.72 63.02 12 65 C11.67 65 11.34 65 11 65 C10.92 64.3 10.85 63.6 10.77 62.88 C10.42 59.65 10.05 56.42 9.69 53.19 C9.57 52.09 9.45 50.99 9.33 49.85 C8.5 42.67 7.12 35.91 5 29 C4.99 29.7 4.98 30.41 4.97 31.13 C4.42 64.25 -4.24 88.85 -26 114 C-27.36 111.27 -26.65 110.11 -25.82 107.2 C-25.55 106.24 -25.28 105.28 -25 104.3 C-24.71 103.29 -24.42 102.29 -24.12 101.25 C-23.56 99.28 -23 97.3 -22.45 95.33 C-22.32 94.89 -22.32 94.89 -21.68 92.67 C-16.8 73.5 -19.62 51.99 -24 33 C-24.01 33.93 -24.03 34.85 -24.04 35.81 C-24.11 39.32 -24.18 42.82 -24.26 46.33 C-24.3 47.83 -24.32 49.34 -24.35 50.84 C-24.65 70.42 -27.81 84.71 -42 99 C-44.6 101.41 -47.26 103.74 -50 106 C-50.66 105.67 -51.32 105.34 -52 105 C-51.67 104.32 -51.35 103.64 -51.01 102.95 C-50.57 102.01 -50.14 101.08 -49.69 100.12 C-49.26 99.22 -48.83 98.32 -48.39 97.38 C-45.07 89.29 -43.47 82.07 -43.56 73.31 C-43.57 72.36 -43.57 71.4 -43.58 70.42 C-43.8 60.43 -45.58 51.28 -50.31 42.38 C-52.21 38.59 -52.15 37.89 -51 34 C-49.81 31.54 -49.81 31.54 -48.44 29.19 C-47.98 28.4 -47.53 27.61 -47.06 26.79 C-46.71 26.2 -46.36 25.61 -46 25 C-43.72 27.2 -42.21 29.03 -41 32 C-41 32.99 -41 33.98 -41 35 C-33.65 29.35 -28.44 22.41 -23 15 C-18.76 15.89 -15.7 17.79 -12 20 C-3.55 6.37 -3.55 6.37 0 0 Z " fill="#E66C06" transform="translate(356,225)"/>
<path d="M0 0 C14.52 0 29.04 0 44 0 C42.79 3.02 41.61 5.92 40.22 8.84 C39.88 9.56 39.54 10.28 39.18 11.03 C39 11.41 39 11.41 38.06 13.38 C37.67 14.2 37.28 15.02 36.87 15.87 C36.03 17.65 35.18 19.43 34.33 21.21 C32.98 24.04 31.65 26.86 30.31 29.7 C24.81 41.34 19.08 52.82 12.97 64.17 C11.95 66.1 10.98 68.05 10 70 C-2.87 70 -15.74 70 -29 70 C-29 60.1 -29 50.2 -29 40 C-19.88 39.69 -19.88 39.69 -17.03 39.61 C-12.08 39.4 -8.07 39.1 -4 36 C-0.08 28.97 -0.45 21.38 -0.31 13.5 C-0.21 9.05 -0.11 4.59 0 0 Z " fill="#055E23" transform="translate(153,283)"/>
<path d="M0 0 C7 1.89 13.78 4.78 19 10 C19.08 11.65 19.14 13.29 19.19 14.94 C19.63 20.56 21.42 24.06 24.5 28.71 C27.03 32.57 29 36.31 29 41 C27.95 41.08 26.9 41.16 25.81 41.25 C21.54 42.09 20.06 42.98 17 46 C15.64 49.23 15.64 49.23 14.69 52.75 C14.52 53.34 14.52 53.34 13.7 56.3 C13.47 57.19 13.24 58.08 13 59 C12.43 58.84 11.87 58.68 11.28 58.52 C7.5 57.66 3.85 57.51 0 58 C-4.39 60.77 -5.42 65.27 -7 70 C-7.57 69.85 -8.14 69.69 -8.73 69.54 C-12.58 68.63 -16.11 68.02 -20 69 C-22 70.93 -23.36 72.88 -24.81 75.25 C-25.2 75.83 -25.59 76.41 -26 77 C-26.66 77 -27.32 77 -28 77 C-28.48 75.75 -28.96 74.5 -29.44 73.25 C-29.57 72.9 -29.57 72.9 -30.25 71.14 C-32.2 65.6 -32.2 65.6 -31 62 C-30.78 59.94 -30.59 57.88 -30.44 55.81 C-30.35 54.73 -30.27 53.64 -30.18 52.52 C-30.15 52.1 -30.15 52.1 -30 50 C-29.39 49.83 -28.77 49.66 -28.14 49.48 C-21.64 47.54 -21.64 47.54 -19.06 45.38 C-16.11 38.77 -15.75 32.13 -16 25 C-16 21.16 -15.78 20.12 -14.06 16.94 C-12.81 14.59 -11.85 12.54 -11 10 C-9.89 9.69 -8.77 9.38 -7.62 9.06 C-4 8 -4 8 -2.12 6.12 C-1.03 4.06 -0.52 2.26 0 0 Z " fill="#060606" transform="translate(326,163)"/>
<path d="M0 0 C0.75 -0.01 1.51 -0.02 2.29 -0.04 C6.14 -0.05 7.97 -0 11.25 2.19 C10.87 2.25 10.87 2.25 8.94 2.56 C5.11 4.87 5.13 7.53 4.06 11.71 C2.69 15.91 -0.05 18.06 -3.62 20.44 C-6.61 21.49 -9.62 21.79 -12.75 22.19 C-13.74 22.52 -14.73 22.85 -15.75 23.19 C-15.25 23.62 -14.76 24.05 -14.25 24.5 C-12.75 26.19 -12.75 26.19 -12.75 29.19 C-12.15 29.16 -11.54 29.14 -10.92 29.12 C-10.52 29.11 -10.52 29.11 -8.5 29.06 C-8.11 29.05 -8.11 29.05 -6.11 28.99 C-3.54 29.2 -1.96 29.9 0.25 31.19 C-2.06 32.31 -2.06 32.31 -4.75 33.19 C-5.74 32.53 -6.73 31.87 -7.75 31.19 C-10.24 30.93 -10.24 30.93 -13.2 30.92 C-13.73 30.92 -13.73 30.92 -16.46 30.91 C-17.59 30.92 -18.71 30.93 -19.88 30.94 C-20.98 30.93 -22.08 30.92 -23.22 30.91 C-34.9 30.94 -45.33 32.62 -54.32 40.63 C-56.13 42.6 -56.83 44.7 -57.75 47.19 C-59.81 47.88 -59.81 47.88 -61.75 48.19 C-62.08 48.85 -62.41 49.51 -62.75 50.19 C-65.5 41.78 -66.6 31.84 -63.8 23.29 C-62.6 21.08 -61.32 19.16 -59.75 17.19 C-58.97 16.14 -58.18 15.08 -57.38 14 C-51.64 7.85 -47.39 3.85 -38.75 3.19 C-34.88 3.12 -31.01 3.14 -27.13 3.26 C-22.75 3.36 -19.81 2.99 -15.75 1.19 C-10.48 0.2 -5.34 0 0 0 Z " fill="#F78314" transform="translate(300.75,161.8125)"/>
<path d="M0 0 C0.33 0 0.66 0 1 0 C3.39 8.4 3.17 16.73 2.89 25.37 C2.81 27.73 2.76 30.1 2.72 32.46 C2.23 51.48 -1.28 65.19 -15 79 C-17.6 81.41 -20.26 83.74 -23 86 C-23.66 85.67 -24.32 85.34 -25 85 C-24.67 84.32 -24.35 83.64 -24.01 82.95 C-23.57 82.01 -23.14 81.08 -22.69 80.12 C-22.26 79.22 -21.83 78.32 -21.39 77.38 C-18.07 69.29 -16.47 62.07 -16.56 53.31 C-16.57 52.36 -16.57 51.4 -16.58 50.42 C-16.8 40.43 -18.58 31.28 -23.31 22.38 C-25.21 18.59 -25.15 17.89 -24 14 C-22.81 11.54 -22.81 11.54 -21.44 9.19 C-20.98 8.4 -20.53 7.61 -20.06 6.79 C-19.88 6.5 -19.88 6.5 -19 5 C-16.72 7.2 -15.21 9.03 -14 12 C-14 12.99 -14 13.98 -14 15 C-8.98 10.92 -4.83 6.82 -1.13 1.5 C-0.76 1.01 -0.38 0.51 0 0 Z " fill="#991A02" transform="translate(329,245)"/>
<path d="M0 0 C0 3.38 -0.45 3.93 -2.44 6.5 C-6.11 11.27 -6.18 15.51 -6.19 21.38 C-6.2 22.13 -6.21 22.89 -6.22 23.66 C-6.24 27.9 -5.95 31.13 -4 35 C-3.34 34.84 -3.34 34.84 0 34 C0.09 33.25 0.19 32.5 0.28 31.72 C1.52 27.02 5.15 24.73 9 22 C18.23 16.75 27.31 16.82 37.69 16.81 C38.81 16.8 39.94 16.79 41.1 16.78 C42.19 16.77 43.27 16.77 44.39 16.77 C44.88 16.77 44.88 16.77 47.36 16.76 C50.06 17.01 51.69 17.62 54 19 C52.02 19.99 50.04 20.98 48 22 C50.3 23.74 52.6 25.4 55 27 C51.57 28.71 47.78 28.05 44 28 C44 33.61 44 39.22 44 45 C43.67 45 43.34 45 43 45 C43 39.39 43 33.78 43 28 C42.25 27.97 42.25 27.97 38.48 27.82 C36.53 27.73 34.58 27.65 32.62 27.56 C31.64 27.52 30.66 27.48 29.64 27.44 C29.17 27.42 29.17 27.42 26.79 27.32 C25.92 27.28 25.05 27.24 24.15 27.21 C22 27 22 27 20 26 C20.17 26.5 20.17 26.5 21 29 C20.67 29.16 20.67 29.16 19 30 C19 29.34 19 28.68 19 28 C9.2 29.63 4 37.67 -1.55 45.31 C-2.03 45.87 -2.51 46.43 -3 47 C-3.66 47 -4.32 47 -5 47 C-12.43 38.78 -16.03 26.82 -15.65 15.87 C-14.44 10.51 -11.16 6.49 -7 3 C-3.79 1.79 -3.79 1.79 -1 1 C-0.67 0.67 -0.34 0.34 0 0 Z " fill="#141614" transform="translate(243,175)"/>
<path d="M0 0 C0.75 -0.01 1.51 -0.02 2.29 -0.04 C6.14 -0.05 7.97 -0 11.25 2.19 C10.49 2.31 9.72 2.44 8.94 2.56 C5.11 4.87 5.13 7.53 4.06 11.71 C2.69 15.92 -0.09 17.99 -3.56 20.5 C-8.18 21.95 -12.28 21.71 -16.75 20.12 C-20.1 17.96 -22.9 15.45 -25.85 12.77 C-28 10.98 -30.05 9.95 -32.75 9.19 C-30.09 5.89 -26.93 4.94 -23 3.56 C-21.81 3.14 -20.62 2.71 -19.39 2.27 C-12.93 0.35 -6.68 0.01 0 0 Z " fill="#191E1F" transform="translate(300.75,161.8125)"/>
<path d="M0 0 C3.49 0.65 6.07 2.02 9 4 C10.91 7.82 10.84 11.87 10 16 C6.55 20.96 1.32 23.93 -4.41 25.58 C-9.58 26.42 -14.78 26.22 -20 26 C-16.81 21 -13.21 16.45 -9.44 11.88 C-8.29 10.48 -7.14 9.08 -6 7.68 C-5.49 7.07 -4.99 6.46 -4.47 5.83 C-2.93 3.92 -1.46 1.97 0 0 Z " fill="#0B0B0B" transform="translate(243,287)"/>
<path d="M0 0 C0.73 -0 1.47 -0 2.22 -0 C8.34 0.12 11.37 1.74 16.06 5.38 C17.05 6.03 18.04 6.69 19.06 7.38 C15.63 9.09 11.85 8.43 8.06 8.38 C8.06 13.99 8.06 19.59 8.06 25.38 C7.73 25.38 7.4 25.38 7.06 25.38 C7.06 19.76 7.06 14.16 7.06 8.38 C6.34 8.34 6.34 8.34 2.68 8.19 C0.77 8.11 -1.15 8.02 -3.06 7.94 C-4.01 7.9 -4.97 7.86 -5.95 7.82 C-10.68 7.6 -15.27 7.31 -19.94 6.38 C-19.94 5.72 -19.94 5.06 -19.94 4.38 C-13.3 1.17 -7.29 -0.01 0 0 Z " fill="#E18024" transform="translate(278.9375,194.625)"/>
<path d="M0 0 C0 0.66 0 1.32 0 2 C-0.33 2.16 -0.33 2.16 -2 3 C-2.48 8.38 -2.48 8.38 -0.56 10.88 C3.25 12.55 6.9 12.24 11 12 C10.34 13.98 9.68 15.96 9 18 C1.08 18.41 -3.11 16.78 -9.06 11.44 C-9.4 11.13 -9.4 11.13 -11.1 9.59 C-13.25 7.79 -15.3 6.76 -18 6 C-13.51 0.91 -6.59 -0.51 0 0 Z " fill="#111412" transform="translate(286,165)"/>
<path d="M0 0 C17.49 0 34.98 0 53 0 C53 0.66 53 1.32 53 2 C36.17 2 19.34 2 2 2 C2 10.58 2 19.16 2 28 C6.95 28 11.9 28 17 28 C17 28.33 17 28.66 17 29 C11.39 29 5.78 29 0 29 C0 19.43 0 9.86 0 0 Z " fill="#447C53" transform="translate(124,156)"/>
<path d="M0 0 C2.31 0 4.62 0 7 0 C6.52 7.36 6.52 7.36 4.38 10 C1.06 11.4 -1.43 11.38 -5 11 C-7.44 9.88 -7.44 9.88 -9 8 C-9.25 4.81 -9.25 4.81 -9 2 C-7.68 1.67 -6.36 1.34 -5 1 C-4.67 2.32 -4.34 3.64 -4 5 C-2.68 5 -1.36 5 0 5 C0 3.35 0 1.7 0 0 Z " fill="#E38D12" transform="translate(293,167)"/>
<path d="M0 0 C1.12 -0.01 2.24 -0.02 3.39 -0.02 C3.93 -0.02 3.93 -0.02 6.64 -0.02 C7.13 -0.01 7.13 -0.01 9.58 -0.01 C12.25 0.26 13.9 0.89 16.19 2.25 C12.83 4.49 11.8 4.48 7.89 4.41 C6.85 4.4 5.81 4.39 4.73 4.38 C3.65 4.36 2.56 4.33 1.44 4.31 C-11.58 4.1 -11.58 4.1 -17.81 5.25 C-17.81 4.59 -17.81 3.93 -17.81 3.25 C-19.13 2.92 -20.45 2.59 -21.81 2.25 C-14.45 0.29 -7.6 -0.05 0 0 Z " fill="#2B1F14" transform="translate(280.8125,191.75)"/>
<path d="M0 0 C1.84 2.76 2.48 4.3 3.19 7.44 C3.28 7.82 3.28 7.82 3.73 9.75 C4.02 12.13 3.73 13.73 3 16 C2.34 15.67 1.68 15.34 1 15 C1 19.62 1 24.24 1 29 C0.67 29 0.34 29 0 29 C0 19.43 0 9.86 0 0 Z " fill="#2D130E" transform="translate(331,255)"/>
<path d="M0 0 C0 1.32 0 2.64 0 4 C1.32 4.33 2.64 4.66 4 5 C-1.13 5.1 -5.95 5.04 -11 4 C-11 3.34 -11 2.68 -11 2 C-3.57 -1.57 -3.57 -1.57 0 0 Z " fill="#D17317" transform="translate(270,197)"/>
<path d="M0 0 C0.41 0.01 0.41 0.01 2.5 0.04 C3.32 0.04 4.15 0.05 5 0.06 C5.64 0.07 6.28 0.09 6.93 0.1 C7.5 2.04 7.5 2.04 7.93 4.1 C6.93 5.1 6.93 5.1 4.87 5.2 C4.04 5.18 3.22 5.17 2.37 5.16 C1.54 5.15 0.72 5.14 -0.13 5.13 C-0.77 5.12 -1.41 5.11 -2.07 5.1 C-2.63 3.16 -2.63 3.16 -3.07 1.1 C-2.07 0.1 -2.07 0.1 0 0 Z " fill="#FD8410" transform="translate(272.06640625,195.90234375)"/>
<path d="M0 0 C1.13 0.02 2.27 0.04 3.44 0.06 C3.11 2.7 2.78 5.34 2.44 8.06 C0.79 8.39 -0.86 8.72 -2.56 9.06 C-2.56 6.75 -2.56 4.44 -2.56 2.06 C-3.22 1.73 -3.88 1.4 -4.56 1.06 C-3.56 0.06 -3.56 0.06 0 0 Z " fill="#040D10" transform="translate(291.5625,163.9375)"/>
<path d="M0 0 C1.98 0 3.96 0 6 0 C4.56 3.37 2.67 5.51 0 8 C0 5.36 0 2.72 0 0 Z " fill="#444444" transform="translate(204,195)"/>
<path d="M0 0 C0 2.67 0 5.33 0 8 C-0.33 6.68 -0.66 5.36 -1 4 C-1.99 4.33 -2.98 4.66 -4 5 C-4.33 6.65 -4.66 8.3 -5 10 C-5.33 10 -5.66 10 -6 10 C-6 8.02 -6 6.04 -6 4 C-5.01 3.67 -4.02 3.34 -3 3 C-3 2.34 -3 1.68 -3 1 C-4.32 0.67 -5.64 0.34 -7 0 C-3.87 -1.04 -3.01 -0.93 0 0 Z " fill="#594728" transform="translate(289,164)"/>
<path d="M0 0 C0.66 0.33 1.32 0.66 2 1 C-0.31 4.63 -2.62 8.26 -5 12 C-5.33 11.34 -5.66 10.68 -6 10 C-6.66 9.67 -7.32 9.34 -8 9 C-7.51 8.52 -7.01 8.04 -6.5 7.54 C-5.86 6.91 -5.22 6.28 -4.56 5.62 C-3.92 5 -3.29 4.37 -2.63 3.73 C-1 2 -1 2 0 0 Z " fill="#BABBBB" transform="translate(298,361)"/>
<path d="M0 0 C0.81 1.69 0.81 1.69 1 4 C-1.19 6.5 -1.19 6.5 -4 9 C-4.38 9.38 -4.38 9.38 -6.31 11.31 C-6.87 11.87 -7.43 12.43 -8 13 C-8.33 12.01 -8.66 11.02 -9 10 C-8.26 9.28 -7.51 8.56 -6.75 7.81 C-4.31 5.31 -2.13 2.76 0 0 Z " fill="#DE8C41" transform="translate(246,213)"/>
<path d="M0 0 C0.66 0 1.32 0 2 0 C1.51 3.12 1 6 0 9 C-2.06 9.69 -2.06 9.69 -4 10 C-4.33 9.01 -4.66 8.02 -5 7 C-3.68 7 -2.36 7 -1 7 C-1.02 6.03 -1.04 5.06 -1.06 4.06 C-1 1 -1 1 0 0 Z " fill="#DE760D" transform="translate(243,200)"/>
<path d="M0 0 C0.41 0 0.41 0 2.48 0.03 C2.79 0.03 2.79 0.03 4.38 0.06 C4.38 1.05 4.38 2.04 4.38 3.06 C2.06 3.39 -0.25 3.72 -2.62 4.06 C-2.62 3.4 -2.62 2.74 -2.62 2.06 C-3.94 1.73 -5.26 1.4 -6.62 1.06 C-4.22 -0.14 -2.68 -0.04 0 0 Z " fill="#291D12" transform="translate(265.625,192.9375)"/>
<path d="M0 0 C0.33 1.32 0.66 2.64 1 4 C-2.75 7 -2.75 7 -5 7 C-5.29 7.64 -5.58 8.28 -5.88 8.94 C-7 11 -7 11 -9 12 C-7.56 8.76 -5.74 6.38 -3.38 3.75 C-2.74 3.04 -2.11 2.34 -1.46 1.61 C-0.98 1.08 -0.5 0.55 0 0 Z " fill="#E6871E" transform="translate(250,169)"/>
<path d="M0 0 C0.66 0.99 1.32 1.98 2 3 C-0.31 5.97 -2.62 8.94 -5 12 C-5 8.56 -4.2 7.25 -2.5 4.31 C-2.04 3.5 -1.57 2.7 -1.09 1.86 C-0.73 1.25 -0.37 0.63 0 0 Z " fill="#F7984D" transform="translate(158,371)"/>
<path d="M0 0 C0.99 0.33 1.98 0.66 3 1 C2.67 2.65 2.34 4.3 2 6 C0.68 6 -0.64 6 -2 6 C-1.49 3.83 -1 2 0 0 Z " fill="#12140F" transform="translate(291,167)"/>
<path d="M0 0 C1.32 0.99 2.64 1.98 4 3 C3.47 6.92 2.8 9.39 1 13 C0.67 8.71 0.34 4.42 0 0 Z " fill="#B96518" transform="translate(366,277)"/>
<path d="M0 0 C0.33 0 0.66 0 1 0 C1.81 3.19 1.81 3.19 2 7 C-0.44 9.94 -0.44 9.94 -3 12 C-2.01 8.04 -1.02 4.08 0 0 Z " fill="#AC5E16" transform="translate(332,327)"/>
<path d="M0 0 C0.66 0 1.32 0 2 0 C2 1.98 2 3.96 2 6 C0 6 -2 6 -4 6 C-2.73 3.96 -1.39 1.96 0 0 Z " fill="#454444" transform="translate(165,382)"/>
<path d="M0 0 C0.33 0.66 0.66 1.32 1 2 C1.66 2 2.32 2 3 2 C1.63 5.16 1.01 5.99 -2 8 C-1.12 2.25 -1.12 2.25 0 0 Z " fill="#F98A27" transform="translate(161,365)"/>
<path d="M0 0 C2.57 2.57 2.54 4.48 3 8 C0.36 8 -2.28 8 -5 8 C-5 7.34 -5 6.68 -5 6 C-3.02 6 -1.04 6 1 6 C0.67 4.02 0.34 2.04 0 0 Z " fill="#36393C" transform="translate(375,187)"/>
<path d="M0 0 C-1.98 0.99 -3.96 1.98 -6 3 C-6 3.66 -6 4.32 -6 5 C-7.65 4.67 -9.3 4.34 -11 4 C-8.33 0.74 -4.08 -2.04 0 0 Z " fill="#332113" transform="translate(279,167)"/>
<path d="M0 0 C2.72 2.35 3.81 4.62 5 8 C3.02 7.01 1.04 6.02 -1 5 C-0.34 4.67 0.32 4.34 1 4 C0.67 2.68 0.34 1.36 0 0 Z " fill="#C7C7C7" transform="translate(363,179)"/>
  </g>
</svg>
